<mxfile host="app.diagrams.net" modified="2021-08-21T13:39:36.787Z" agent="5.0 (Windows NT 10.0; Win64; x64) AppleWebKit/537.36 (KHTML, like Gecko) Chrome/92.0.4515.159 Safari/537.36" etag="5peNVN3GRatVn1AENE2e" version="14.9.7" type="github">
  <diagram id="9JMKPUHasTxJOBeePzF7" name="Page-1">
    <mxGraphModel dx="2067" dy="607" grid="1" gridSize="10" guides="1" tooltips="1" connect="1" arrows="1" fold="1" page="1" pageScale="1" pageWidth="827" pageHeight="1169" math="0" shadow="0">
      <root>
        <mxCell id="0" />
        <mxCell id="1" parent="0" />
        <mxCell id="q1pJfg4_mO1esPuGB9fL-2" value="" style="shape=image;verticalLabelPosition=bottom;labelBackgroundColor=#ffffff;verticalAlign=top;aspect=fixed;imageAspect=0;image=data:image/png,iVBORw0KGgoAAAANSUhEUgAAAggAAAD0CAYAAAD+M94oAAAAAXNSR0IArs4c6QAAIABJREFUeF7sXQd8VeX5fs64K3snhBE2yB4qiixFnKDVOqmj7r1aO2wddbR2aP1rW6217lX33gMFFVBk7xlIQiAhO7n7nPP/ve93zh0hQBJukptwvzYm3HvG973fer53PK9kGIaBROnxEqBOlsxWRv59MA2P1XMOpg6JexMSSEggIYGEBDpGAlICIHSMYOPvqe3bztt3V/y1PlGjhAQSEkhIICGBtkkgARDaJq9ufXVQ1+ELAn5dR0DToRlAQDP4NwEBUib5NT1C1yC0DnZF5t+SBNhkCSr/iM9tigQHfW+pJ7q1hBKVT0ggIYGEBBISsCSQAAg9ZCzQBu/XDDT4gmjw62jwaWj0Wz863AEdnqCGWq/4zB3U4AsaaPJr8BMmAEAAgu4LGyMAWQJSHQpk0N8Skm0ynKoMlyrz5/Rv+p3qUJFqF/9OcyhIdyr8mz5T6CFcDBiQQqaOHiL6RDMSEuhiCbSk59uP7k8Lwgh6AV8jjIAHCHjFby0A0G9dgxHwQoIOQ9f4+1YVxQ5JscGQFUB18N+wOSCpLkC1A/ZkSHYXYE8Sn0WdKhK6ylbJuJMvSgCEThZ4+18XnkAEBPa4A9jj1rC7yY/KJvo7gBqvhhpPAHU+HXW+IIOBep/GfxMQ0NnbRLicxMLxhLZ6USsJKQ4FGQ4FaXYZGU4VWUkqspwKslw2FKTYkJtsR580FfkpDhQk2/YpBtJiSAl1RPuHSeLOQ0oC7EJmzpcoHyMtAL2pCnDXwGiqgkG/vfWAtw6GrwHwe2B46mH4mwQ48DcJgOBrBPQgdL8HkqHzZwQWaMUQs73lwt+oLkiqHZKswFCd/Ldhd0G2JUGyOWE40iA5kgBHCmRnOuBMg5SUASk5m3/gyoSclAnYnBEvEStMAj50zbBOAISukfsB32rNe93QUd6gYXudB8V1fpTU+VHW4MMed5A3/1ovAQID9d4AfBqd0MGnfWs609TiczstImxKiAU0sKof1gZEO0Fa0AFQJCDNYUO6U0W2S0aWi0CCHQMzHBiU5cSwbCd6p9phU0StRbsT9ooDDpDEBYewBCJmm6FBd9fCqCsHakug1ZYBjXv4R/fUAb4GGN4GGP5GSH4PdH8joPlNLWHzbZfmHRsbTdgffZDYP0AIz1mxKui8BgltpPgrcuWRJAWwJcFwJkNypkJy0E8KJFcGpLQCSOm9IGcWQcoohJzZD4ZiC2seE2ih08Z+AiB0mqhb96KgbmBrrQ+rd7uxvsqNtZUeVBEY8AfR6NPRFBDmAo1O2gwFdD5BGIZuTiAxKSXDgC6Z2Ju/j5XeILIdtBQICCIWAdk0IkQuBmGjgvhLhyyZZgjSODgV9Em1YVReMsYXpGBiYTLSHUrrhJW4KiGBQ0QCoT3R74VWtQnG7o3QK7fAqNomNAW08ZPJwO+GFPBDD5KJQDgX8dTntUAW2zbv1qZdMbSBiw2eDxOGCQUigDqtJ5D2p0EQ91twwFoVhH5RmBZ5rYoEDbxGkX9TpN+TDMnmAOwuBgyGXWgbpOz+UPKHQy44DFLeUEiO5EOk57u2mQmA0IHy35+63PpONwyUNwawuLQRi8oasHxXEyrdAXiDuvlDp+rIc39LwYrNJ+5eeD1GRoWWhBX5rubvbX59y9eqkgSnTYFLlZBikzEyNwnTB6Riar90DMhwmA+xFrBID4kO7LzEoxMSiAMJGJ466OVroJUtg162AkbFNiDYBCPoA4J+8WOQ31B0aX7Itv5trRTNZ2JLTY068R9AFs2f23yVammFso4s+1qtrM9ZI8H+DGS2cArTRN4wKP0mQimaCKlgpHk4snycTEAStr4kTBTtHMsJgNBOwbX2tpZAgqYbWFrehC+L6/H51nqs2+OGAZ19BPgsfohSU5BpwZIX+TU6FAnDc1w4fVg2Zg/JQO9UBySJThukOUmUhAR6oATId6B8NbQtC6Bt/Q767vUwAj4+8fMBnk/y1um/B7Z/P00SWoiwR4IhKTBIA5GSCXXITNiGz4Tc73B2hkyU2EggARBiI8d9PkXTDHg0HfU+Ayt3N+HTrbX4bGst9jQFhPqP1XjhCR9LD4EOblqHPF6ABLEMWKpH+ieFVk7qnYKfDMvCrEHpHB1BGgdFToCFDumIxEM7SALmWZ4dAP0wgn4Y7lro2xchuHk+jG2LoHlqGQSHrfpC7U8mQ54ZfDI+tECCWBeFd0PYXdI0q5I/g6EJ40VSFuSBk6EOnwWpzwRIrjT2dSC7SsLVse1DOgEQ2i6zA95BGoJqb5AdCdfvceOzLXVYWNqA8kbhHGQNdjHkNRiWW2GHOBIesLpxd0GUatFcFCO1Kml2FccOSMPJgzMxNj8JOUkqUuwKh2EmSkICcSsBsrlTlICnFkbtTug7foC27TvoO1dDD7ghk+3f8htqFjcgQAHpGcU2uT+HwbhtfywqRgIi2fAvy5nSEJoEQzhGWocsOSUHyoDJUEacDDl3EKSkTEjONEBKHCpa2xUJgNBaSYWGozUsxQdiQgvNX403gO31fmyt9mH+9nosKmvE9lpPCz68bXhp4tJ9SoCImoZmuTCzfxqO6pOCIdku9Eq1s7Yh4eicGDjxIgGOIqgrA2pKEChbAX37D2w6oNDCBKTthF4yJEj5Q6EMnAKl/yTI2f05SgI2lwAbpkk3ET21d18kAEIbx2eksw959lJoYXGdD6sr3OxguLisiX0KiKEw7DJjod02vixx+QEkIM5SdB7IT7HhyN7JOKZfGiYWJGN4bhKTPCUW4MQg6gwJiHUhDEuJO8CoKYFRsRHBXWthlC0XmgKKMoi47pDVBHRGp5jvYN8F05wruzKg9BkHpehIyH3GQc4fBjhTEgRu++iPBEBox0ClZcAT0PHDzkYsLmvE0vJGrKn0MFmRTmjVDPyzNN6HqtNhO0Tb5luEVTIcokXsjWPyknBEYRqmFaVgXEEykmwJlWKbBZu4oY0SEIptw10HvWQptNJl7Gxo7F4Pvakakq6zttECElbwbwIgtFHM7bhc9IzgWQkFYtpckHIGQukzHsqAoyAPmMx8DIkSLYEEQGjjiKhyB/BlcQM+21KDDdUeJi4ibgJRImxiEZTCsSUnamOFD/JyS+0WDXLEyV1ETXe1W2U0WZPVD5QfYkiWExN6pWD20EwcXpjCNNCJkpBAeyWwt9nK3O7ZvrgdwY3zoG9bBL1qK4y6XYLOOGpN2PvNHa7hCtnsLedI4ctgbZTtlUV3u08AMrFaRYVVyjZIGb2h5A2FfNiJUIcdC8mRFhEWTqjOvKvDOyv+pJoACAfsE7EB7qj34/2Ntfh4UzX7GVQ0BUEshz2/WMg70o843OquBwj76wEZxLlEfgkTC1Jw/qhsHNk7BQ7KNJUoCQnEQALajiUIrnoP+o4lMBoqAU9NB3KOtKPCDBCE82NYe0Hn6WgDaDue3GNu4ehRSQE5NUo5g2Ab+xMow09goqZDvSQAQvMRYAFtk+t4Z4MfL66sxLsbalDW6GfyIiI3EiqrQwEgCORdlOHAZePzUVbvx+NLKmB0gzCrSF9vykJJoZEnDkrHDUf0wqBs4ntPJI861BfA9rTfIK6Cbd8isOhZ6OXrOLeBoQV5PBFXYdwV05Pa4jPkDdE8UR+Ch+K9uoeCJZk9knyWKBySkkn1HgPbUZdAHXAUQORMh2hJAIQWOp4mUJUngP/8uAsvrqpi34IwM5gABooZoNjTx41snjWOKEzGu+cfhkWlDfjJK+sjMj52tYlh3z0gOBXCQZMWICBLwwWjc3H71EKk2FXhNJYIkezpQ/mg20c0xkRgFPjuv9DKVobC6oivI543WnbSk+2Q8gZD7TcRwR9fATTfQcujJzyAwUGICFrQPhPM488UG+Ths2A/9mbIWQMOSY/nQxggmLSFERsDaQeqPEG8uqYSTy2rQoX7UJlEAvRIFB8cwdFuqSRp8bt4XB7uP64I35U04KevbTDXhvg2MOxvAaMTQ4ZLxS1H9cKZI7KRYVdgC6WAiOflvicsy/HfhpC/AZEZeeoFs+GPL0MrWRZS1cd/K6waSpD7T4L9tPshZ/aF+5FjYdSUMXvr/oxtVrKlMGGZSepmcg5Etz/Swm9mZqElViZip9ZpVSKPGpzZpf+RkL310Gt2wvDVdToIC9XHlcHaBNv4syElZwGy2n26/iBreugChAiPI0/QQGm9F18V1+Op5RXYVuM9xLgLZGZmY6tKaBqGdSb01+UTCnD3jD7M73DeG5tCWd/iV39woJkhWqpKMsYWJOHSCXmY0icVOckKlASRyoGE1+O/N4IeGPW7oBf/gMDSV6CVrRABteTgx/OkO418iemHnRc9B6lwNPwvXgZ9ywKTdGnf7bCojcOdbUZqgPSKzdlfTRpkM5yQjbAGmP2xtWaXSJIjOrc5L/kflD4TEZj3IPwLHusCgBChfTQApdcIqMdcAaXoCEgpecyC29OPEocuQICBoA6U1Pkwf0cD3lhXheW7PPDrWshrtfuej9u+ftPil2KXkJ/iQJJNArFBVrqDqHYHoBnAndP74aqJufhiaz0uentzyBGru8pILPDkqkVF4jTUJw1Mw2nDs3AkRTzYExkl2z6Kuv8dTH1cVwpt22Joa97nkEWd/QvCGubuBA6s7Z82X9f5j0MZMgPa8rfheffX+2Vk5PtkFXJKLof/ccI4bz2MpmpAD0YBJGsOsYzsyZBsTuiURIpYI6O4Dfc/Pqzn0G8lKQvOK16HlNEX3hcvh7b56y4BZZHyY8dOWxLUkafANu5MyL1GAfak7j/o99OCQxIgsI8BhStuq8eHm2uYBrnOa2ZE46iWvfOXd+YoYMblKGAfiVMjv5DYdE7f5iVTyuQk5CfbmHbYr+mcJXLlbjd2NlimkvBzwqE+BlRZxvSiNEzrl4pBWS4Ql0BAN7Ct1ocfyhrw6ZY63DGtN84blcN/X/LOlojUrcKy31zdGCaDiVDV8EWRvtSdKdXmNbRSUodlQsRKg7OcOG1IJk4bloVhOYJpTZTm7ei6uife3AESIBrkht3QN32N4KYvoW9fAsNbFwELwmMg7gACe9dZLohCNlZmZiMU0gjYT72b1eRGUw3cD0+DoWshiBwe5uJZUu5QKIOmQO41AnJyNqeTNxoroZetgrb+M+iNlSZoCr+XVk114GQoQ46FZGjwf/l3yH3GQsoZDNmRzI6cRmMFtPK1QM0OGAw0ImdY+F/qsJmwn/Ynzq3Q9PCxkGpLOqDTD/zI8E5gagsYvaiQ84ZAGfMTKIedCJlYGdlU3fP0CYcMQLD81Slj4jcl9XhjbRUW7GgARSl09Sl4b0VVeDMKR+5GblTW3xKzBZ4+NBuzh2VgeLYTOUk2JNsUZnLc7Q5gTYUHr66txCdbhA3P2sqtoaxIwMVj83HxuFwMzXKi3hfEjvoAP7dPmg3ugI4PN9VyFMOMolR8sKkWV72/NWrDjJQfKR9T7DJyk1X4NQNV7iA8pKqh6WNWQHhRx6+K1qUqOKp3CuYMz8TZw3NgZ5Njz5v8B14ee+oVkWDPAIIBBDd8juDaj0W4Im9+eyvY41YaIYAgQpI5QkHYC80iJp46+jQ4Tr2b0yY3/X0KjKaqFgCCDHnQZNiOuQJy3/EAber1u/geObUAhr8J+qav4Pv0fk4yJZz6xIvot2Py5VCnXAXJloTA/H9AOewESFkDITlc4llNVdAqNkJf+xECK9+BpFF+GguCh+cYOQbajr4Uht8D90NTObFV3AGzpCwog6fCdvjPIBeOhqGQw3PPWicOGYBAw7e8IYj//FiOL4rrsa3Gx6dkMbC7drOy2ADDYUgiCInAv05oPqQMpMkYLuRrO3d0Lm6e1AuFaTZsqaEcEHWocmsoTLVh1qAM5CfR5x786Zud+GhTrXl/GCZM7ZeGh08qYqri+cUNeHL5blQ2BXgzL0i246yR2ZjSL5UnZ7JNxXsbq3HNB8Uh0hFhkBUqj/xkBy4ckytIiexkpqD8FEF8V9qA19dWodYbDEUVdLXM97fYW5Eb1P6ZA1Jx+YReOCz30A11ituNMQYVIxOC/4cXoJcsh1FbJpx1zVUhBo/vlEcIbaPJV0KLhuKAMugYKL3HAcnZQNAHvXIjn/6dP3sSUlI6vE+djWDZ6ignRTa65QyB44wHmII4uO5jBFe+C8NdAygKlF6joR55AeT0QgRXvQv/e7ezFsACB7RG2I+9BepRF4vQQAr/rCmBtnEemyaktFwog6dBzh8Oo7GKNQzaijdbBAiOM/4GddRsBNd9Bv9rN4I0IfG29bLYVQeU3CFQJ54PZdwZkBR7p/R5Z73kkAAIpG7/YGMt/r10Fzbt8aCJT7RhJ7zOEva+3kPheHZZwujcJEwtSuMY/VSbwtkf6eT/1fY6wSXeDMgMy07C62cPRbZTxpfbG3DfgjJUNPrh1w04FAWDM5146MQiDMyyY+VuL+a+uYkzTDKTmiHBqUh47swhmNI3FTtqfTj79Q0obSC6aAEgVEmQDP1n9kCM75WCgKbjzXVVuPmT7RG8ZKJV4wuS8OCJA9AvzQmnCjT4ddgVCS5VRp1fw+rdTbj+o23Y1RgwZd86z+au6BuLc42iOhyShMPyknDFhDycMSwTMqlWEqWbS8DgDSu46FkE1rwHo64c0CmrqsWcEWlVj/+milwDZBrQIaUXwjHnfsi5QyA5kwHFxpFJdBLXKzaxyYDi/P1fPIjAt49Hq/hpTTjjr5BHzYFGwOnNWwT5k+WQaEtis4Nz9r2AIwXuZ+bCKFthCkhoKRwn3c6bJW2c2rZv4fvgHqBhN5sXJNUOKa0A9uNvZaAAdy3cT5wB1JdHQDKJ0zM7f/YEOwN63/oN9JVhEBEvvSG0oFZmTQlIyoI64kTYZt7aoyibex5A4F4LqxBL63x4+PtdeG9TFeo8FNjT9RuTZIg4W9YOSBIGZTpw2zG9Mb1/GmyKzJ71dCjXdB3eoIG31lfjd19sR9DUGpr7Ox46aQDOG5GN0no/Tn9lHXY2BKJABHE1TOiVivfPHwZ3UMfjSyvw52/CtrzDsl147owh6JfuwN1fl+CxJbv2it6gJZMAxCtnDQUpXF5dW4VbPy0OkZbSslCYZsdb5wxD33QH1lW6cceXJVi9xw2nKuG4ARms4eib5sCikkac8dq6eJnjraqHlQwqxSHjvJE5uP7IXshLJptDiJquVc9JXNTVEgivCdr6zxH4+mHolVvYATEU+245/jAGjL8T674kaMEZCsFzXvoa5Mw+HJoZWP0ujB0/snZP7jcByug5kF1ZvD5qO5bB+8z5USGIUkYfOC54GnL2AHieOJOTS4kSsWbKNjjn/oeBQmDdZwi8ei0MjmUUMnPMvg/quDM5/bL3kZkCfHFKe1F4PuUPheOcfwOZfRD87M8ILHwy1DSSOiVT4pDMnMFw/+cnMHZRPSidM6V1Nrdlc52nQE2KkiC9D7scGzJfY/W2pZWNNaxvbqrltpH2oGAEHD/5K+ScgV094GPy/h4HENjBUJI4y+L8HfX4yzc7sbqy0VRti0Hc9UWoAyVJRb80BY+dMgDjC5NR7dHxdXEtFpc2QlUknDMyhxMP0eb+3x9348/flpmTREKqQ8W8i0agD23O62twzYdbQmlLxUQMlw/njsS4Aie+LK7DRW9tgcYyknH+qBzcObUQqQ4bBj68jDUExJDY3IyR7rRh9TVj+L5nV1TiznmloTBHAjT/PnUQThqUjpLGAKY9uQp+invmhwir4dS+qXjk5AEoTLXj9P9twKKy+q7vgjbUwLIrUmuO6ZeKu2YUYWSOi/00EqV7SMAwNKCxCoFvn0Bg2SuA380VF6Q4YswTN0YY93UfgMCVlgDH2Y9CGX48DHc1vK9cA33HsigCMHXg0bD99CHISVlsTvH8ezabAayijD0Tjlm/BZKz4H7gKBAxlCQrkJIyAZsDkisTkuqAeuTFUIZMZ3+Cpn/MguSnaAXhZGQ/4wHYRs5G8MeX4P3wHpZtS46IjvMehTp0JvSqYvj+OYtDBkV/SFCOuACO6TdAcmXA/Zfx0P2eUB1p3SKnQGXkKVCHTAfSC4HGPdCKFyO49iPouzdC0klLGda3dsY0FRBKjCUpvQ8cc+6DMuBoQO7e0VA9DiBQN1W6/XhmeSWeXFqBWp8mJn1o16PhEgdaBHKGlSX8YXpfpjCmVNF//KaUiYhEFIUEuyLjX6f0x9j8FMzfUYe7vi5Fo582XwP90ux4+7zhKEyx4zdfbOeNu7kJghMtGcAZw7Lw2OyBWLarCZe+uxnl9eRjYOC3U3ozv4E7qGH0Y6vY89hSnVkzkqQlSxJ23DyRIyP+9l0ZHluyO6SOHZGbjP/MGcjmjOs/3IZPt9bAG5QQ1IWuhryfZUnGE7MH4eQh6fhuRwPOep14FLq+D1q7tVlytEwPBck23Dm9EDMHZiLdceiQprRWXvF3ncEn2cA3jyO45Rs2J9AmotNGotHfQRiUbZG86s0Qvkg3xvhrT3SNGMokZcB1+ZtMhBT49H74Fz4VdRgSm6QE+8xfQD3mGhiN5fA+ezGMKnI4FsV2/K+hHnEhJLsLRkMF+y8QQAgVXhwo2ssQJgN3FdxPn8+JqXihUexwnPUw1OHHw/fyVdA2zBOWj+Zz3ZBgn3Mv1PFngdJiux+cDCngCWkv7cf9ArZJF0MrXwPvcxcBOmlGZQFOhs6AbfoNbEIx6B4CerIC2ebifg2uegeBhU9BrykN1bUzAALJSEAhocmQ0nqxo6cy5nRIjtRuy9TaowACbUZ+XcIji3biocXlYliawKCFPF5dNu+FtU5C7xQ7Fl0+BnW+AB74bieeXVlp1pdsCTJvrhSfn5/kwJZaL0cmCKIWYZZ4/Zyh6JVix7UfbsVb62qizCdWxAJh2om9UvD+3OHYVOXFLZ9sxw/ljTyU7zm2Ly4ak4NqTxAT/rMq5HjYHGgQUNl2wwT4dA1/XLATTy2rMNG+gRuO7IXrjyxAhkPFF9vqsLnaiy3VXk5uVe0NoMGnocGn44RB6bj/uH7YXuvDtGfXMotbdymR+SItznYCd1dNyMWFY/IxINPRXZpyyNaTl4Ggj+3elDsBTdXQGyvYxm74GiF5a6E3VMDw1IrryOOesjEGfTAC9G8/oAWAgBeGLqjXQ6r9fbg5R3s5he+IBN+x6BCqh3LYSbzpSs4MeP8xk50DrYgGAQ1MCmF7Ely3LODN1P/+76Gt+zQMEGbcCNvRl3Fsv75rPSjnBAEpCockeRD/geFt4N86OS76GqGRg2dTlfBVzuwNx+l/gdJ/EjxPn8cRIdap2nqJdU7jkMsJ5wqA8NA0SL5GIU9FhX32vbCNPQP+rx5BcMGjQjMq21lrYZ/1KzahkHmIs2fuXMWUyEq/wyEPmgo5oze0DV+wA6RetS0iODnSKGAFL1orcSx6QTwj7MciAyk5UA+fC9uEcyCl5HZLkNDDAIKBLTV+nPTSWjT4hHdtPBaxcMiY2i8Fr509DKsr3Bw6uKWG0sM2d0YkRGrRmArbAW1SeSkqPpx7GHqn2vHgd2V4YCEBoubmE3HmPbxQ+CFs3OPFjR9vw/Ldbh7IVx+eh18cVcj+DiP/uRxW1urIREz0BLK5/3jFGHg1Azd/UowPNlZzPem7f54yAGcMz4Lbb6DC7UeGU+UfMvGU1vtQUu/HjjovMhwKZg/JQnGdF1OeXh0Xhp72jA3rJCb6wcDxAzNw9cQCTOqTzHwS4dKdzqDtkUQPvSfoheFtBPxN7L2ve+oEORD9m4FFFRMGwe+BweDBzRsln2QJWNAPEQTRdyERhS3ikca/WIXt0dPVoy6DfcYNnIHQ/eAxzDcgAoyi1wSa984r32bP++Cy1+D/8K5QLZURJ8N+8l2sOfA9dyF0Cm/ktngBOq1z1BflKFBgODOFAZGAAjlB0orWexzsp9wFpXAUvM/Mhbbje/YJiNQgWFuz46cPQx1xEjQyh1AYI4EPOn1n9YPj1HugDDwG3v9dDX3DF8K/IL0Qztn3QB40DXrJEvi/fIgdKUm7wDJV7GxysB13M+SMfvDP/wcC3z/Pzpm8VpFpImcgA0CKoAibmjvIlGQySsKVDtvYM6FOughyem8BWLpR3pceBRBoIBAj4nUfkhNd/J5QLYBw6uAMPHn6IPxY3oQL39qEag8N9mgvCaGwiqTrEFc4VRkfzD0MI3OTMK+4Due/sWlvE4PpA3DZuFz8aWYRftzZiEve3YKKJjGpjuqTgkdPGYCCFBsueHMLviyuNf0GwrKj6X3WiGw8fGJ/NAYM1lZ8tpXinw3YZBn/mTMIJw9Oxzc7GvHfZRXITVLQO9XB/gYUAUHP7pVC3AzCkYm0GNOe6b4AwVpNrUlOfTk8JwlXjs/FqUMzmWQqXDpLudlDN+s4aJbY2s0ZaPo3kTbB8LmBgJtP1AwY6Ie0C/4mgECFt45BA6nBxb/rWVPBvg+UX4BAR6ySPBkS1InnwjbrV5Cc6fA8PAN6LfkJiVDpEGuS+UbnTx+COvJU6MWL4X3xsnDiptR8OC94hkmAvC9dAW3TVxEncHEkYK+N/kdCHf0Tbn/g878yUKLv1CEzYDvht5BzBsH37m8RXPaGAA5RUElkS3Rc+CyU3mMRWP8p/K9eb/a0wX4JthN+IxgUyVFy93o2ITBx0hkPsN9D4IsHmbOCtRpm+CM5StJz1SPmwnbsTdB2/Aj/x/fAqNwi2qA6YD/ht5AkBcE1H7DPQqwAWkvD1IRSwv+C6jXqVNimXQ85rbBbUar0OIDw8OKduP+b8rgHCLTlnzAwA8+fMQirKjy48r2tKK6lU4f4X2gjooknSyhItaEozYGyBj8zHFL59eTenGyINvyrPtiGRaXE/CaKddJNdSh4/7zhGJTlxEebanD1h9uYRplKukPBK2cPw7i8JCze2YBrP9zG6Zwj309hi4+dOgCH90phHoNz39yE5buEg5ciGXh89kDeGN9dX4OrP9gmCFlkCdkuFdkfZ342AAAgAElEQVRJNv6dk2xDr2Qb+qbbETQM3PHljm6rQYhcDDg1LGeL1FGQ6sDcUTk4f1Q2eqc54i5mOw722m5ZhUiA0Ca4Z5kjaPMkciE6yRJ4CHqZcyGw8L+skWjTM/cjQSLqcZz/BKSUHPieuwjBbQubkSWJm6k9jjP+DnXMadDLVsL3v6uFtsEiOiLwMOJk3kB9b9zMDo9h500JUO3Mk6AediKCpMp/9TrohrC+q2PPhP24WziUUStdwVoIAkiRGzGbQ0afDseJtwFJ2fC/ci209V+wrwLVznbEz2A79magsRKe5y+F0bAbcCQzwRMRPZEjov+TPwnyplCLwuBFGXIc7HPuY0Dge/U6aMWLhP+CzQnnBU+xdoPSdPu/eCDCSBTboWmZnqynWgCFWBcdJ9/Ozp7dpXQLgMA2KFM1w3/vJ0nGXV+V4N8/7o6TaIWWhwFPOBkYl5eMj342nNkc//B1Gd7bWGMaGCIAgiEzCdL9M4uQ7VK4be/zdeDwxI/nHoY0l4JvttfjnvmlWFspVGr0hEyngjum9sX55GfgDuCXn+7AJ1tqIkKOgNOGZuGRk/tDkSR8ub0eL6ysZE0DuTtMKEjBJWNzMGNAOmyKhBpPEKf9bz02V/lCyP03xxTi8gn5KK7zYeZz60wXiWi1Js19pyKDQgVtssQU0PFMlNSWySv8E8Q2QqaV2UMzcN0RBRiQkSBWaosc23qtFa3U3JBDJ3V9zzZI/gbA5mJPeNqIpKSM8CvaYP0JHcAjHQoidnVzOWpT9bXN8+F981eApzomp1i2e6t2OC9/C3L+YATXfwHvq9dD1vWQz5KwN9BQleC44g0ovUezHd//7m3QSpcLqmbSRPQaAQeRKTnTEdg0D9oPL7Odn9JDy7mDoYw5A7axp8OwJ8P79M9glP5o6jclqJMuhn36dcyRQJrP4JIX4Z/3MAyv0Eyy9qHvRNhn/Ya1B6Qd8D57AQxfU0hLY5t+HWxTr4W27HX4P/+b8A9JyoDz5y9BzuqLwMJn4J/3EPtQRAIE0U8Sh186Zt8jNBAvXY7g5q/AYeV2FxyXvgwlsx8C3z0B//x/mbcLamlhMA2l4Qn1Zyy0DKHVUHFAHfMTOObcyz5m3aHENUAQghUZu62QuTDHfzPxmpP+N59vxzMrBCKO3yLCHEkdvfzKsRwu9+SyCty3oLRFM8HQrCS8P3co6n06g4D3NlSbqjsJJw7KwBOnDeQoDXIQ/Hp7PTsI0sl9Rv80jMx1cTTEP38ox4PflcNL9IYRw5804ueOyMXfTujDyaso1JLolWkDJ7MAaSDe3VCFs0fksjPjjGfXYI+bNngx5cfmJXGERO80O656dxs+2VIrQiXD8w7njMhhW/36SjceXLQztFjEb/+0v2ZE0zylKBX3zuiDARkuEZHSjWyO7W95597ZXK6kUg8ufxO0+VJOBYk3R5nV0xyqZ0/mkDg5vUA4jFESIlcGn3b5s2TTicxazaNAgNmHHIffjEyXQnrbuNhrm76G981fAN7YpDAWVZaZwEiZcDbb2fn0vH2JCdjNxpCvX3YRXFe/z2GL5D9AG2Vw0dNmmCGZASWOQnCc/lemV2b/C/I/IC0B3UOnX1mF/51fQVsj1Pw01wmk2I+5Avap10DftRaS4gDyhgJVxQgULwKaKiFnD4TS93AgqzekoB+eFy+HvuMHcz2QICVnw378r5hHwffRPdCWvgY96IOcnAnXNR9xhIn/q4cRWPrqXsDKOrVTMir7nD+yxsD3CmkQFgotjS0FrqveAhxp8H/9CIJLXjaBvdnhBCI4xNuKVaI1OjpEs90jPBQ+G6GBGXFSux/XmTfGNUAQsYlmNiKSigEsKKkH0QPvq/zszY2chGlvh73OFOuB30W2fWLlu3tqX1x+eB5W7GrE7fPK8P1OiksOn8BVScIJgzLw9OmDsbC0Ebd/uQNrKt1i0EukPFNw3MBUPHB8f3YmJOuBxRNJ97qDBu5dUIwXVlSbTojW2d1yzpEhSwYnerplUiGmFaVyJsOgbmBTtQf/XrILxbV+vHnOMOzxBDH238ScFl5FVRn4+6z+OOOwHPg0DX//rhzPr9qDhoBIxEIJoO6e0Q9Ds114eXUVfvHpVkb0kY6QB5ZW97mC2kx92z/TgZd/OgxF6T2LejXeeoJs/sGFTyH4wwvQPPUCGITyA5jR6SEiHzpAC18Y3ubp/xQtRH/IdiA1W2QvTM2DlNmXncrktHwYSdlQUvOAtPwwuBU68Sh7cmsVE9rGL+F94xdscojFCdXqE92ZjqQbv4TsSoVRuQ2+d2+DXrLMDDUEpNwhsJ/1CJS8gRy9Qe0MrngHvnd+a8qNyNtIKDLUrH5Qp98AZeixnCqaQC6ZC7StCxGc/w/o5Wt4rREOiEIW5CRpm3wlAqvfR2DeQ7CfdAfU4bNC/CwSnYRI3tUl8H1wJ4LFi1kTQERHpL2g3A/2k37P2gXP/66GtpFO/0EgOQfJV73Hq45/3v8xj4U4MoYL2/wlFfaxp8M++z6un++D26Ht2sCaBcmRDNe1H3Jkhv/TP3PCKQZ71PW6Do3I6RwpTBWtV6yHtvYj4VcSo2J5kdGKreYPhfOKt5jlsrVjJkbVaPNj4hogWAmW6NC7s9GPX366jcPkFl82Zp+OHue+sRFfFYdt8W2WSCfcILi/DNYcjMpNxlvnDmWnQyI8enBhGVMs0+QjW/6QrCQ8fdpADnf871JBlkTq/7DbIvv+IidJwalDMpnyON2poNKt4cedTfh4Sw3qPTp0qTm9tOmlwOYOOgJozEBGjoeZDhUezUCjT2gSeDmVJOS4ZNYemFhNTFIDSHYo+PepA3FMvzQ4FJk1ENvrfHCoEvqm2aFAxqqKJpz92kY0BgWlLXk+9/RCSas+mjsSA7McILCWKLGVAEUZ+F68DMGdK0MqYqFKl03PehkyD1/zZMgnfVKlh1K3hYiSBFOfObLDqRBD6md+guJgbQObLIgjIKM3lPReMEgz4cqEnJwFEJBgEKJAUm2C6riZp4G24XN4X7+ZIx1iARAsuM6bz+CpICdEw5nGzpHa9u+ZA0LO7g+l7wT2IdBWfwRt9zpOhhRc+Q4CXz0sIhUMycz9ElFjxQkpOYNXAcNdBykoTJjEYGgVagOJzHb8rbBNvgyB+f+C/9v/AroPct5wKEOmQU7txZEf9N7glm8Bd5W5htE6IOK02BHxlLtYQ0G+EcGylZANCUZyGlwXPMv5IQKLnmEnRYp6sOK9hBcQRUAUwXHi76EMnYHA4ufgn/8ov4eLIxVJN81j3wX/+3cKs4poFY8BxZ4E25kPQh16HCfrCnzzbwSWvMRai1iUUGAlHY6S0uA89zGmko73EucAAXAHNHxf1oQ7vyrBxio3itKdWHzZqL3UtpbKccYzq7GObORxHMUQOSgoV8EFo/Nw6+RerM6nkEcyE9R6Nc7NcPKQTOiGhi+3NeD+b8qwuSbMKtb1g0vgeBHRIDEz41kjspCbZIOdVAsUBRXQOGvmw9+Xo6IxEDrbRXspdEZLIlTDZkpvK3y0eaCTyDp58F4SdDpVZQPPnDYEk/umIokiOaI8QDqj3T3wHYaBINnPX7gYqK+I8tLvqtZaKm6i2yWzBf0QtTElHKKTaWSh06v39ZuYVyE2AEHY92mE00apDjse9mnXinrYHGIjprBLbx0nPwp89QgMIhciIGOxIB6k4AxZhf3E38F25EXwf/gHBJe+KrgjDlgsCZhREDNuhF6xkTkQjDqKxCDzQBLsU66CbcrV0Ck64fO/sV8Ek1uxO5cOw54C29ifwDbrN4CviR0ZA2s+ZM0IXaM4U+C8dTGM3etZY2JUbAybc5Oz4TzxDiijToVRWwr/d08guOx1zvJpaWoP2Iy2XGBPhm3WbRx5Eu/mxzgECJbSxeDEQuS49/DiXdjVKLzr+6e7sPjyUfvsjolPrNzLE78tfdf510rIdqo4d1Q2Th+WzSduF28kQKM/iF1NASwqacDTKyqx1eRJ6Pw6tvxGa8sVPSaQuEORMDDTwdkhCbSReaK83o+AmX7Wcjjt/DaInJhc2CHLOrdYtacvQst86HQibmgfnJFAIY860pwKfjelEGcOz2kWBtn5Uuj2bzQMPv1RGJ2xR0TNxGKTPRi5hAGmpZkQY8o2+QrYKPWxKz30ePpGW/MhfAQQYpjvIWT0oxM3qc6TsyEPnMzMisTXodfthLbjBxh1OwVde8ir62BaHp4dUnIOAwR19Bz43rwV2poPzFP+/p8vYI1pFiU1P/mHyDYYjbsZYAgqbANSzkA4TvszlN5joG3+CsElr0AjFkhKA+1Kh1w0if0fyNcksOItBOY/KnxR+KAoM7dD0q0LYZQshe/NX0DnzJ2AnNYL9qlXQ5l4PvSaEgQX/heBpa+F6t4hY0t1wjb5chGtEecl7gCCNdDJs//FVZXsVV/RJDxWiduAHPYWXDKyRbHSvQMeXgavpkXlJYjzPuAp4lBlDM924fDCZGQ6baz1393kx4oKN1btcnMehIM/03aUJCLP4s0tg2FbbdeBAwrJlDClXxpzMvg1wBskZ8wgs1NSrgv6jMid6PMAfRc0WPtBmS3bL3fTcxsycpMVXHtEL5w5PAt5yaR2TpQ2S4A0B8WL4f/0fhi7KWImthtdm+tj3hCtgeI0bLz92o//NWxHXsgOc6GiBRBY/jqruRmrthN8RtY1Gr5Gm7LCxy0rjsA0LYbAcPvAb/P3EwmRndT7g6fB+79roG+cZ1IdHxggWCDBghvRdnkhIVm1QR5wNG+scu+xgLsaWvla5pogEKQUjuZNnRxA/d8+YSaaMs2YZHUqGI6kq98T4Zuv3cAOmuRnoh59OWyUXKquDL4Fj0FbTcBGM0NED142LbXeUJ2wH30pbMf9or1DrtPuiz+AYID5AB5fuhvvbqxGFaUnNuEBDfHxBRQaeFgotMySFHUlLfb9Hl4aYvbqNCke5Issv9nwY6zTrticrCS07T3JHmT1WnG7cPYRAMBagASkEyWCCbIVT+uIS8g34v9O7I8TB2fCF9ThCehoDGicoKopIAACgQNPUG/2vYF6XxB+zeB7CEx4CDz4NXiCGrwBoM7nZwdQeo51v2i1pfgVoblkerlifD4uGJPDPiWJ0noJ0NjStn6LwLz/E4s/5wSIzQbb+lrs78pwdk9r1jpOuI3j+in1cWid8jVy9sLA1/+MCTiInmVhnUR4xgmyJCsLYrgFpm9RjACKlN4btnFn8OZNJgyRCfLAG2y0zi7cmjDMiYhbI/NN/jBQpAL5U8g5AwB7CrMp6lXboW1bCG3dx5zWWvg4heGRMmga8yBoWxYwQ6OUWgD70ZdwrgRKXEWhk9rGeSK7ZSgEKzYjo/lTyBxC0Rq2I+bu5Z/SMW9s/1PjAiBY3UintW01PjywcCc+31KLhkA4TahYDGQc3Yec+obvBRDo+2qPhpGPLmcEf+Ch2X6hJe7sfhJIUhX830kDcPqwtpGUEOahTZ+iOnwaAQmDfwhkELggYOEOBkGOtERFTSCVklrV+zROrNUU0PhvAh913iADg3NH5uDwwmi7dPeTaCfW2ACCxQvZOY02HvZsj/siwXbS7bAdfj7TAIcAgruGN9DgD8/HfQtaW0FeaxWb4JxwpgOU4jnQ1NrbW32d0NRIgN0FOb0PpNQcSCqFEmvQG/cA1cXQiTehuemG+BHGnMZpmLW1H8P35YOwT74Myqg5zMUQWPAYglu/Y1ARyfrY6oq19UJHKqezVg87qVkoBoXMNo/PaOvDY3t9XAAExo2GgZ0NQfz682J8U9LAC7DY5MNbPQGEWYPS8fxPBrcohZL6AI54YgULvSvV2bHtosTTYiGBVLuKh04cgDlDIwhz2vXgaAVoaOE3NT3WiA0SWNANBhb0m9grCVgQCE53qsximSitkABpDkqWMW0uJRASJ8MYxae34vXtucTayOwn3wHbxPPMSAbxJPIBYCc+UsHHlQakPS0122TeGqnp7JCYHdO/wtoT2PTAewf5XYi/xfyL9kuh62zHXAX7tOtY7sTOqE44B8audSKnQynldBCgs0Pq3Uy0hisdznMeg9L/yIhvDFD4K/E0KEWHd1JNDtzncQMQar06fv7OBvyw0yPsvhzKFx0KRx6fswdn4r+nDWqxZWsqPZj5XPfn+T9wtyWuaKsEMp0qHjphIKecbnmLb+sT93X9PgBEgjCpXQLWdm9gj3+jqpjBgTgdxrd+kDYsKo7Z90KdcDaTNVmFHOHIi17f/n1MnRTbJdwY3SR6JNJluYMSIIUkZplzLDMJ8ShQaKllsIgeH/Qv4jewHXMldHcVJEca9LLlCHzxELRyYa4i0wKHSnbG2HJlwvnzFyDnDYvqASKsCnz/HOyn/zVuQiC7HiAYBqp9Os57bQNWVlBO8H3Hx1NYDtlv/3Z8UYtDe8nORsz+3/qE9iBGE78nPaYo3YW/Hl+EGf1TWwcQOhZF9CTRdlhbtLpd8P33TKChMi5CGdvSUNoiHXP+CHX8WVFMixTC53vpcuh1uzrUEa4tde0J14pdwyI+F7qMUKIqQ4b9rL9zyCkdO7Xi7+H/+F7ouzd0DUhLyoXr2vc50iRyMaIU1cGFT8KwueC6+AVI+cNDGo2uYmTtUoBAWoLSBj9u+ngbFpYQg6DgQNtXUSDhwnG5+MvMlgHCF8W1mPvG5lY5x/SESZFoQ+slMDYvGX86rggTC4kVrvl9YWdK6xv+JHHqb72AY3wlpRr2PHkOUF8e9xqDyKaH7OQEEM74C3PvRxbalLwvXQajnvLFxJOTZYw7sAsex3OWybAsoiyiyJY5WsF5wdOQ03txFEzgs79CL18byifT6VVNyYPrpvmQ1GhHZf8nf0Rgycswgn4oeUPgOPsfTE8tyL/EaOns0mUAgRDf1moP/vBVKRMD+RkCUhfvGyDIkoQbjijA76b22UtOhLA+3FyLy97dGteZHDu7gxPvExI4eXAm7pzWBwMynXtNMxpx9V4Ntb4gFFkCjTO7bECRRXIpuyLx5xQqmSgdLAHyOSAym5evglFv5e3oXhspq9sdKXCcdj+UZpz75Efhef7ngHuPCRA6WJ6HyOPFziFDTs0DhVzqBMB8DZDzhsJ52h9hpOVD3/ItfB/fC6Nqe0gqXWGukrIHwXndx3uRJPnf/jWCq97jqAxDsUMdNBXkx4KMPlGRfJ3ZpV0DEAxga62XoxU+2FQLf5DsPyIhyv6cC2mB/pWZ4rglIb24shK//Kw4goa4M0WZeFe8SoAUjuePzsFtx/QWHATNzAfkSPj2hmq8sqYKqTYFqiIh06HAYaMMjQqyXDYkqZS4SmW+CiKDIgZMu0pAQmaGRKKVtssS57EgiuxYlEPNykFzXy/5Ef73b4deuTWCuCq+fQ6a9zWTn2f2g332PVAGHhP1tbFrLdzPXsSJmhIahFjMEvEMy/uAeBjss37NuSaIMlkZOJmJlAKb5yNImoPq7aHMkeHw+djVozVPkgceA+eFz0ZcKma679XrEdzwOdM7M8i0J0MZfxazSDKBVBeULgEIZQ1+/OP7XXh97R40UJxYKwsBhD8d1x8/H5fT4h3/+qGcsx1aEeitfGzish4sASsT6PVHFuCXRxdC0A9Eb+AUgkjZLh/4jtTZIoI8khyJ6VANwKEqSLMrcNkkjkRIthNQUDjNc6pNZtCQ6VLgtBFooGtV2BUg2aYwjTZ9T/dSFk+XTeG8FZQoS5SIOpnI4JACCIaO4LbFCHz+F/Yut3gOuuPQZIBQOAaOk++A3GdcVBMoiZD3mblM8BOykXfHRsZZndkxlCIZCsewM6LSdzwkRyr0ujLom76Cf+FTDBjiAZQp484U2TKbFe/zFzOXA3MxWIH8KfmwTb4U6vhzIDlTO13qnQQQRFQCLbRVniCeXlaBp5ZXcPrg5qGM+5OAIgmym3NGZrd42d1fleCxpbsTToqdPozi84VMVCRJkA0Zt00pxI2TClqsaKNfw8OLyxm0iokZeWIN53CI3rDNICumbQ6TWVm0LgQQUh0yaxVIw5DmUDkhF/2kOQgoyHApMtKdMmsoUh02uFQJRekODM50wmXvHvniY9LzxJC49TvOAGiUr2aOfUGR2/1K+CQ7HfYTfgs5Nzok29i5Cp6nzuWsgvGwWXU/CbdcYwsgUMSInNEXUq8RgCOFGRIpoyUCbpExMg7GlTr5CqHlCJO/c6M8T54NvXR5yOfGGkvkh2Cb+QuolFkzglOjM/qu0wACBap6NB2vr63C377biYqmcFbA1jBukTBUScZzPxmMmQPD3OaRQrrho2K8tnbPQVDjdobIE+/oLAmItNIGFAn43ZQ+uO7IghbdfGgs/vXbnXhhlThh7E2tbHlHW2FV1lXWqT/68zCbpOBS5MydzGa3t+mBQAFpE0i7QCk4Ml0qxhYk44LRuRiRm2RqGGJjsugsubfpPRZ98ud/A6nfw/Ho3cusYLXZWtTJOdE+85ecMCmy6GUr4X3ybBgm018P7tk2DYODvdiSe/g5ERy0lGKaQDylfeastl1bbCf+HrajLjEPzaIuhrcenmcvhLFrTThywYSQdLCW+06A/aTbIReMNMmUOqcNnQQQwOmLvympxy0fF6O0gbItRi6urWssAYRXzx6KY/qmRgnXuvvCtzbjs601nRHJ2roKx/yqsMzE1iOKcHA1LWrmh9HSFXSr/B8mkQJssoF0hwqVYrSbpYKmjTVoEMWwxqyAIqE0nemsiGczuYr5fmtDlSTFXPhoIoqTdVcW9mCmtirAbVP64JrD81uszrZaH+79uoSdXPedd8GSeKTkLelbuoXIHomMDA8n5w5XwKKktvIJhL8hLcPwHBf+cnwRxuYnhecKc4MIX50eUQgclK5A4IM7OINfpFmhO7eQeptyMNiPvUkwC1rF0KGRo9yLl5mfxGqzMl3tWEsrxmL0qLIojKIphEKcfXaXyDhJTIiKg3NHNFdnG1oQ8DWy5oPMI5QF0vA2Qgo0RfEWhmeAGPOkC7LeE7kaWLWMVT83X2miZ6n4V6ze1b65J/qIesB5+l+gjvtp1GMoi6SHHHMrNkTVM1RrWYU66lTYT7hNhEd2UukUgEAbRVlDEOe/sR6bqn3tPuGT89fXF4/C4KyI5CcRgjr5xfVYXt4AvWtHQod1HU803iQEc1jINYdDe8iXg8J7xNJgk2UUZdgxPCcZAzLs6JPmQJ8UO7KTbch0Kkixy7zR7EtUPJg5XbOBao8fpQ0BlDX4sL3Gh+I6H7bV+lHW4GV2QEEMY03R6I2xw4TRigdzRgtJYlX+bVMLccWElgHC2ko3bp9Xgu9KGsz8CS1pEVrxwhhdwv0sAWPzU/DfOYPQJ82k6u1hTgnanq3wvXw1jJrikN01RiLsssdYC7rt6Mtgm34DJEdyuC5aEIHV7yHw1q+gE3iNIekTzUEBDqxYsAjTGGUuTc+HnDMIUvZATm4kZ/QW6aCTcwBKJkUDjtcR+m39HSlGWnjMH6q3TuuMLjIu1pXDaNoDNFZCq9sJo6YUevUOoHo7NF89n9z5YGISEYWhgzhoHDrGNJGO2zn3CahDpkeNUX3XWpMQbFszgGAdQkiFboN9JuVwuBBQOieXS6cABNpE5r65CQt2ENdB+1GzXVLw7eUj0S8tnPwkUsqTn1qFLTWUg7z97+iylaWVL6azPM9hkf+Hmb/IaT4ryYajeqdiQmESDi9IxmG5LjhtqknGEoYBsSHcEAsR5b7YWOXFj+UNWFTaiO93NqHJT5k0BZ8FMWJ2ZaElmCqTZFfwu2l9cNm4vBars6isEb/4tBhbq73mAtu19eYlgbUfBqYVpeG/cwazP0OPKTQ+mvbA8/jpAKX1DSX46nq5x0LGrEE45krYp18P2FzhRwa88H/7HwTm/1OcaGM0P8TJlNYFlbWBsmKD3Hci5D7jofQZyymSkZS5l81bDHZTFW9qHg7U/latHxFAVqvdyZk39bIVMMpWQt+1DoaH9gEtIqHSgd7aM74ntkfCSq6fvwClKJJmmXKNLELgndtg1JaEGhttNhHgQlFVOC5+ifu1M0qHAwRKofuXb0vxrx/IAYwWufZv3nZFxbprRyPFvjd6ImEO/edSNPoEZebBvKczBN+2d4gTOm14FE6XbCMufxmj85PZ3DKpTwqGZUcsRObD9zWZW3MQjb5mX3dEGTkQ1HWs2u3BtyUNnE9jY5U7lLCIkhlZ55uwvqG5ur5tUjnQ1axBMMBRBr+f1hsXjGk5VGj+9nrc+PE2lDeSX4xVp7ZsVi2ZHw62bWEjEaWI/vPx/bnPu4Is5UBybtP3ZFaoLYWPHPUowY6pEO+KePQ21bsNFxNAUKdeA/u06yGpEYma/G74P/8bgj+8EMrRur92R47AaJOhOQpkG2BPgmRPAnIGwFY0CSg6EipFTigipXj0DA03wlobWnrHvpt64JVDOKPv/YTQWuR3szlJ2/6DSJBUtcU0WTSx+WJ/Gs3urBgWe5JwknRc/T6UfEo4GC6USdL/4V2cq6N5CRtHTMiQOwSui57rlNDHDgUImmHgvY21uOnjrZzN7mCLQ1Wx46bxoRTIkc9zB3SMeXw5Gv0iYqI7AwTLYmZ5xJNNuiBFRWGKnUHB5D4pOLx3Cnu/x+ukoeREO+p8oM13QUkDyM6/s8GPWo9IiiJOPZGJrtuyIbdmJNGzhcllYKYDd87og5MGtZyo6YNNNbjyvS2g8Rq5qLb2LXQXaXEIwGlmiFKY2ufg20V9fOm4PPxycm9kU5ymdfLsNr4IbBfjBZJIkPyvXgOtprRzeO9b04kxvMbqbXXaDbBPvw6SHD7MkCOa741boG2eH5EMfN/jw8o6EaH/gwEFUnIWlNR8SLkDIfc/CkrRJGYLlOTuo2USgIGSV+2Cvn0Jglu/YeBAiZQMdw1zAQi+Eho7Mgw5dhqXGHZ3qx/Fm7yJr1w3fw05vTDq3uDyNxD44oFQKGZLD4UShsEAACAASURBVLaMt7ST2sadBfvJdwJ2In7ruF2gAwGCgWW73Ky6XbfHExOHtSynDeuuG9cilz55oh/91Co0CUrGdvs5tLrHO+hCq6tJxdwnzYZBmU6MyEnCMX3TMLYgCTlJaosOmh1UnZg8loiINlZ5sGBHPZshNlX5sKPWy+mRLahw8Nvo3lW1Js6YvCTcfWw/HN1n7xTL9N53N1Tjqg+2clX27aS4L1HIUGVgaLYTeUl2LC5rYDDcdqixb1HTmCDOhKsPz8eVEwsESNjn2TAmXdYhD9F3rgLRyVJ2Rk6Q0yFv6dqHWuPYNuMm2KZdx6ai0LnbXQvPCxdDL1/XKhKoMG0zZRtKgpTdn/0IlL4ToAw4ClJWfwYF1gnTOlB0rQTa+XY9CL2mlDUL+o4fGEhiz1Yg6BXmkxj6a7Szhu2+jccE+2HQ6iIj+dffi9TYESXwwwucBhzu6gO8h/rbAFQHHKf+AeqYM4EOBIYdBhB2Nfpx74JS1iD4gq0nQ9qfdPqmObDkijEWhUTUpXRCPf75NSZAaPsy3+7ej/GNlJaY/AcmFCRjQq8UjC9IRr90ewh9muin22qaKTLix51NWFTWgB/KGrG60oN6H/FhxB4iWMvK9H5puPe4fryJRxfykwDeXl+Daz8kiu6214G4OSb1TsX1R+YjP9mGexeU4eviupgDBOrwdKeCa48oYF+KFGJg2pc+N8ZjMhaP03b8CP9X/wd9x4+AFjRjvdsu71jUpaOfYcg22Gb+EvbJFK0QAYOaquF+4kyOzReJhVqhVU3OgVI4GlK/iVDIr4D+JqfCvUZyt10S9mqJ4W1gXwVtxxLOeqmVLGceg+5qhoqMYSKAkHLHuqgMnySAwDePI/DtE4C3dr/DM/wsGXL+UKbzpjHRUaVDAIJP0/Hs8go88v0uVLpJpRybhWBUbhK+uGhki7KgVM9zXl6HpgBNuti8L3ZCF/ancKBLNNcjqaazklQ+4U5hTUEy+xQQwU5PLWQS2lztwZKdTfiyuA4LSxtBhEVUrJNQezbsSHlZfuKnDcvAn2cWIUvQKEYUA+Qb8eb6alz/EVH7traIRZ9UpJN7p+L30/pgQkESttR4cd+CnfhkS42ZrjxyaTh4nwSSS36KHbdMKsTc0TnM0hh/20KYFM2Spl6yFP55/8cLPsjObKmOWyvu7nadMwO2438F28Rzo0dbUxW8j58GvUE4ZlrBiOIi69/mWpGSDXXwNEEVXDAaUlY/SOS53o1A4UF3mx6EVrERxB2hrf+MtQsEFJqP+XgfT6bngPBucmWyBqF5IZKwwOJnOZS01UV1QBk1G/ZZv4GUlNXq29pyYUwBguWIsrC0AXd/XYIVuzxmdsbYbNiHF6big/OjnTusxn5f1ohz39jIYXnxEIMf3QnhU0TYnY0c6HRkJqk4bVg2jh+QjqHZDhSkODg50KFSSB1PvgnLd7nx2toqzNteJ9RxofN8+8eO5YMw10wRTgmXmhcyf7y2rgo3f7ytlSK3SJN0zBmShVsn98awHBdP/hpvEJurvVhb6cEb66qwtLwRmiZBD/FMtL8tVuXo7aRJo4Rlpw/LZN+HeCuRzrF62Sr4P/8LtJKlAhzEHXiPrfQY+2T1g2PWb6EMPyHq4XrjHngfPRnw1IQ+j/QzYNmoSVBGnQJl1BwouYMhpeTsddqMbY3j+2mk4ZMNMj/sgLZjKYLLX2fAIGkB1r+ETLJxPK6iHEGzBiDphs/2Err/4/sQXPoKEPC0ukN4rCXnsq+LevjcqLTirX7IAS6MKUCgd+1u8uPBhbvwv9WVCGgcKRuzE/2x/dPxv58ObdFJkWLYf/bWJngCsbX/xkLQkVQh7JhjSMhyKZg7OhtnDM9FYYoNaU6FGf8OxUIDnaxQRMP9Y3kjHlm8EysqiKt+77wIbZOPyMD487G5+NPMfi3eSgqn19ZU4JZPwxne9vcO5o4wgIvG5eGmIwvQK8XGY7yiKYiKRj96pdrZFLC7KYC7virBx0S+ZHJTtK3uLV8tuB2AogwHpz2fXpQWi8fG/Bnc5poS+D/+I7QtC0yGRGs7jPnr4uaB7LBaMBL2E38PpX90KBsa98D9rxMAb725KooJL5zPdKgDp8A29TpIeYPYRk3Mm6auKm7a15UV0YM+oK4c2rpPEFjyEnv8Ww7CIcfdrqzgft5tORjKA46G86Ln9gYI79+OwPK3OJKjtXTQwu9XgdJvoqD1LiTze2xLTAECncbe21CD277cgVofxblGJ7052KrPHpyJJ0+P5ja3nvldST0ueHMLmoKCx/3gz2oHW9vw/byom2fiHJcN547MwWUT80B/2xRrEdhbNRu7GsT7k0JuXNB1oN4fxCurq/Hokp280R5MXxK51qXj83HvjL57C8EA/LqBl1ZX4jeftw4gqJKEC8fk4tajC5GTZENpgx93fLkD80saeI1Ktcu4ZFwuLhmXB1UBznx1E5bvahJgJyY0rxbcNDAky4XHTh2IkXnEthhPRYfRVAvv27+GsWWBya4ZjuuIp5rGvC7E999/EmyUqCl/mJj37LFvwGisgfvh6ZCCFt8Gr/CQUvNgn3Ej1NGnASqRFonPE2UfEiDtQeVm+L74G7StCyFrmskGG78Ss8Ic7cNnwX7uv/aqqO+1GxBY+wnvXa3tebEuypAUBepRl8I29RrBiBnDElOAQOrV336xnb3VO6L8dHg2Hj11YIuPLq3345kVFaj3Gaho9KExoGOP2486r862beFJShoNQZ5jeSqEyHwM6hodIkrN/Nu0DEZ6DAi7uMzc+kJ1vK8iOB/ov7IsI9up4szDMnHVxAI+ZSbK/iVAUi6u9eGhhTvx/qYaeIOCeMmSf+tAoMzmmsvG5eIPLQEEAN4g8OzK3bhz3o4DdIlI8Xz5+Hxce0Q+cysQ3wNprfxRTrgSZEnCA7OKcNaIbB57ox9dySGU+wIIMo09Pi3qIqrLjIhqzRg5qncaHj1lAArT7KZtvzV3xfgatotHbGr+JvheuQbaloUiTO0QK8qIk2E/5Q97UeJSNkH3Q1MBXRPRDYoNymEncs6G5mFvh5jI2txcPlLoQQS/fxG+rx+B5CXbvTA6mKt8m5/ZkTeIbd+AfdLFsJ90R/SrAl54Kfx1w2etBgfN6yqlFcJ+6h+gDDk2prkaYgYQPEENz6zYw5z2YiGPfblifD7uO65lVXHobVHcnaIWRMFQ5w0yaKjxBFHv0znPQJ1P498NvgCzAvqCOna7AwjoBiobA+zhHiT+dAIDBjm00SYlQdPpMwmkMaG1ka5h9kDdQFAgEaiyjGSbSP9LDIcXj8vFqPxksF9ZorRaAuTw+snmGjyxtAIrK93wB2gDteLq9z/OaMt1KhKumFiA30/t3eI7aTw8uGgnnlhKjmMtFwJ5lN6ZogeumpjPKZ8Xlzfi/Nc3oylIi715SuTbBf6nPBdfXDQCvVPtmP3yOiwpj3Y+slTHlgOTeLMVsNaW+WPgtCE5+POsPshy2du9wLS6Q/a6MKz94RY0VSHw/h3wr/+81arS9r87/u4kaZD/gOOUuyG5mpl/asvQ9PCxTG1M2gXaLJRhx5lsi609N8Zfm7u6Rlr5WgQ++RP0nSuhB7wxpbCOVdus/VCdfiMcM26MeizNGd9bt0InU9xBFGX0aVBn/gpKOiUIi814ihlAWFvhweXvb8bWGp/g3Y4RjWikvG44shdun9rHVNm1LIBWUYHusxPCix395Q0SeNA5MsLt11Hv1zjGvdbrhy8I1HqDIKbIBp8mrgnQtWRaoax8CkbkpmBynyQMyXbxqVLsAfugGjuIgdEjb43ed7ClxoenllVwhEBZnZ9P3BaHwr7bT6yTMmttfn1MYYtThvgz7ptfilfWCla/5oV8DgqSVFwyPo/NBpS2mfr7nNfJdNAoTvuhsR62GJNp47tLR3GIKoGbO+btiALNlvWZiG/ykhVmnPT4dTPHhgALrS0UrXHh2Gz89pi+LURqtPYpB3+dUVuGwNePILD8TX5YT3dI3JfElNGnw3Hq3ZxuOLJo25fA/95tkAfP4AgHSgUterl54t+D74tD4QmRaz3lgggseAzBNR8x2VA8jj3qZfup98B2+PlR3UN5K/zv3gat+Ac2lbR3azfsKXCcchcDVI54iUGJCUCgk/Sd80rw5PLdoWC+tixwrW3HvccW4coJLfPpm7vvfpHTwYGHfb+h2V623+bEog6tlVdPu440+e9urMKrq6vxTWk9a3qsjag5HanV9myXDTdPKsSVE1seNzvq/Pjlp9sxf0d0/LE1SckcdMORBfjZqFwGh7IsYVVFE677cBt21QegR6jQQ/DAAOyqjG8uGYm+6Q48uXQ3fj+v1AxrC+sM6NahOUm4fGIeNu3xcrrppgB9b/20pget8FnguiN74YYjeiHD2Rl6qmaag7qd8H/9T2ir3gaClA8lTA7Tmlb0lGtIKurYM+E49R6RBClUDOhV22FUbYUycAoMVWh7LBjY3k2hp8jt4NthcMrk4Iq3EVzyMvSqbVFkXHunkIvmHxSjORKUW/+yxnlLvy3js+hJ4VQt2B9b6k9O1PTTh6COmh0NEHatg+/9O6GXLY/QIrZNItaqQlwZjjP+CinzAJr2Vj4+JgBhWXkTzntzE2q9FMZkZu7qAA3Cn44rwqXj88LCb8vO3EqBJC6LfwlsrvLihdV78Pa6KuxqovwJYfAWCUxpLFJirzum9cWcYS3TLG+p9uKK97dgTSXFV1tFbLr905245eheOGtEFkcpzNtWxw6Ba/d4ce/8ElS7ox0oI6NVjuqTiifmDGTmy/Pf2IiviilBDe+aZlY7MBnWTUf1wgmDMrCtxoezX9+I0nqRCt2K/zlwb4QBgsum4LrDe+GaI/JZc9KxJTz59NqdCC56CoEVbwBekRHzUC0MEMafLQACn+IOZWl05igwt3hfE7TNXyO49FVopcsAf5OZA6j5Bi/mIu/npveCIFYTs2+vLZ6/sFzNTUAQsV5wYmsGCLT/RWsBwm8x4LzgaSiDpkYJhvgd/B/dA2PX+nb77ISgjazAPuMW2KZcGZOwx4MCCFQpsstf/PZmfLFNsMdZvkodYWL42eh83D+zLxxmPGDiNN6ZEzB+3kXjjHxHPtpUg6eXV2Dlbrd55m6ulpcwPNvFJElH923Bu9cAVle6eWOu9oSBBm25I/NcuHNqX0wtSkVFkx+P/VgB4tr4xVGFyE224fL3NqOkju4JO6qKaBUJeck2/PG4vjhxcAbcQQ2jH1uBAIXfmnsFXUNJtm6a1AuT+6bCE9Tx289L8NHmGmGiagNVuAUPrEUt22nDDZMKcPn4XNiUjgMJoeWWNAeLnkFwxZuQPPtngYufEdSxNVEnnAv77Pti6izWsTXuYU8P+qDv2cqRDoa7iqNHoPtgeOoBCpX0NYoEUQEP/zY0LwxvE6Sgj/8dJrCygICgSA4Dh8iTqekPZWXDNL+K1EaEAQLguvJtyL2iyf6CG+ch8On9QuuxNzRpVedYOkeqMTksOi9+HnJW0X7N8a158EEBBHrBl9vqcPE7W+DXhAc2O2y1YYFrTSWtaygXw4i8JBQkq0i2KWwPprAy4hAg1sGcZBtskoTsJBUuVUG6Q0GyXYFTTaD4tsi5u1xLPiJEsPTvHyvw+dYa4TQaUXnaPMf3SsE/TuqPwVkt09Ou2NWEU15aF0rURLePykvGX47rxwmxqtwa7v56Bz7ZWoegpuPPxxdhzrAs3PjxVnywoQbBCE0ZvY+cEm+cRFqHbI56uPmTbXhlTTVk5mEXAHrWgEzcNKkAY/KTGOhc99F2fFdSB79Oc0icXlrrpigONdb1IoKCuBkoDPO8Udlh35eO6FRPDQKLn4f/++cAT11c2n07otn7fabqhHrUz2GbeWvodNrpdUi8UEiAQtK0IAwCBYbGRF0UQSJ+B2FQeCQnhaK/g5DM7wzK/0CMhr4mGAQivHWQND90dy0DDPrOCHj5e8oVQWPf0AOAuwYGRaiYEN/qhrDBUEbSrQshJ2dH9VBw9QcIfP4A9LrSgwIIkQ9VJ5wHx5z7DnokHBRAIJKZc15bh4UlbjOEK9KqdtB1a/EB5DRG+z0thMSMR0xyRIbDv2Wh5CUHMc6uJxNRDiW6UZi8JsMhIdVhR7ZTYS57YjFMtQsgQWFrKXbZBBcqExntuyRsGx3Tu21/KmmwdjUG8Mj35czESERZvGFSHKphYHpROp49YzCcLZymqReJ6nnO/9ZFOdUOyHDhnXOHIsVhx1XvbcT8HQ3sjEpja+6obPz6mN6gcfj7L7fj/U21FO8KWTY4b8bNR/XClH6pDFCfW1GJO+eVwqtRmC2NSQOzBmbgd1N6Y2iWC8V1Plz/4VbmSRBht801IG2XB91BY59MK3fN6IuTB2fGRMkdGvH8h8GLI6Ut9n/zOAyfMJ8cyjCcAppl4jtIzoRt2rVQJ/28fZ2XuKvrJUDAgn504tMRv4n1ljZ/Pv4SWYv5ueBUF5w/9Nug6whIkGnDW89RFfAJzQVpMOzH3gxEZPikxnImxy8fMim4W/ZfaKtQDJsTSZe9ASl/WFtvjbr+oADCB5trmKKWTkHxXYR6yHSPCFVVKIStGG7xsVjkZAYgaQ4Z2S4FmU6FUyunOVVWHxOY6Jtm48WXwEiidJ0ErE3Vrxl47Ifd+NeSXaj3kepf4b6lDfn5M1om16K97vvSBpz+yrooxZ4sKRiQaYdDlrBhjwcmiwY30q4o+PNxRTh7ZBYD03WVHqyrcmNEthPDcpP4M9pAX1pVyYmbKIxSIrYzycDMAWls7iDHx43Vblz93jaR6TRGwMDqBcG2KGNQlgMPzirCkb1TDnrztmyzPEP0IPxrPkbw7V+FGBK7bgTEx5sNSWGQKecOguOUPzBZ0qEOmuKjZ7qmFpaJvbk2AVK02Y/mVfD7FxD4+h+AuypmlSXAqg6ZDufcJw7qme0GCO6Ahkve2YoFOxpM9WwrMpMdVFUP5maxvMlQoIPAjJUYJbykhuGBZTFqvmxbbIgSkmwGbpvSF1dMyD/ohfdgWpW4N1oCNAL/n73rAI+iaMPv7tX03kijhd5770gREWwoICqiiA0EwUYHQYoN/bF3RcGGDalK7x2k1yQkkJBer+3+zzdze3cJIblLLhAx46OSsGVmdso7X3nf74+mYfaWBEbbLELEgLq++GRwnRITyQj0b03Ixj3fnyyKmotFlxd3WxAonNIpEiObBsNDJzK3FtFnmyQzruSa8OnBq1h+NA3ZJn6i0IkietXyw7sDazNehj1JuYyG+XBKAQRYXOBOK/uLKzY8Bba2i/LFwt4xNr2Isp9QxhXE+3F8NYzfP8PqzcOy3GP5qHDdbtID7OFvAgtA093zNqD3qQYIN+l73NzXFiHisVWlCMAuVkHTjk9h3LyUZWG4wqRYZjv1vtDd+y4T/CpvKTdA+PVkBqZvjMeVXKN1gav6i4SyaNoDTqjbitabL7BKQIo99UWBDWQ9eL5DBB5rHVbePq++r5J7YOOFLEb3TUGEd8T5471BxL55rVuIsiSJ9fO+H0oGCCU5zJRURgo4bBHmjf51/BDlq2UxOIdT8vDXuWwkZBuso4rIsgTcHuePRX1rsgCdjReysWhbIsuaYKlXnNjTTQqWDrTddFJhQjcyBtYLwPTuUYj101Wo52UyuZ7fiYJvHuYmWKq/jUWxQo/+V96srBzKeiF4+EHT7Slo2j/CAlKrbYtV7LNSfA+Z/imYluaHqLL+38oZoNIwy5v999a/d6IZJTmdnXVEmzYu4VLPJuIQct9BWxLV0NTvA+3QxSVKhDvRLJrfrucjEgPhyxvi8cupdBa4RYIRMvlhbrFiy2u3tivIU8Oiw59qGw5tJUaI32LdeFOaQ5kNczYlooavBm/3r1ViHYj58q+L2Rjx02mXiImu3yB7bjUtDoF6FYY3C8FLnSNBLpC15zKxdO8VHLpMrIqKRYr/SS3InLHTBmQqDrjtGiAC7mkchJndoljapQKLndnA7LEHFlhOrEfhz5MhMMnd/25hXmLWMdYEOVmErNFC2+IeaPq9BEFdMSD23+3ZSm652Qjz6b9h3rsMUGkZg6Wg1gI6X/YtRU9/Fh8gaD0B+oZaL/4t1RpAUPO0VQIVoor/XlABDFSorNeIENR6yAQy6Pd0rUpTqhonDSPT+oUw7fjMQdCs4v2gRDKI/lHQ3jEXqtqdy/XQcgGE9eeyMHNTAk6nk4m08ngPytWiSropwEOD0S1C8UTrMJY5QUFq1aXq9gDB3rMZBczHP6heYMnEJRKw/nwmRq0845Y4AEdASVaFUU1D8HT7CAYOVhxNxYcHUnEmncu5cgChZvEBMf5akAgUBS0eupKHSznEJ1JxNlIbL4OVmpo4RCZ3CkeA3hktEIfzD9GMn9wAwx8zIOdeZW6R/3JRFl/evwTpRKibD4G274sQvAL/y11TJdtuG8kWEywXdsK05X1IiQd45oKVccRue7Nb8xQtWUHrxTd6EtIi8itRDVFHv9NC0HhAFrUQdB5sT5D1vhxAaDwhqLSQGQihe3UQCDQQyFDABQERQYR533cw/7PK2nduClJk1kkBskoLdfOh0N72EgM+zlo1lA/pMkDIMUpYtD0RXxxKhcFM7FGKuEzFTzxVcXTRwKFMh+FNg/Fk23CEeWlKNFdXxbr/J+vkQGWtyCzbaK6LdQhpdPx2Kh1P/HHOLRYEBSDUD/LEmFYhuKdhEBOL+vjAFRZA6UjqRNeOaRWG0S2CUStAz3Q/knKMINnyb46kYU9SDtP/UMBEeb6l3YLAAQkFSo5rE47JHSOh17CMaaceayZ53b/egHz1Anct/AcFmIp3lCNzp7rZUGh7T4TgG+FUf1ZfdBN7wGyCJfkIzDs+geXMFpbGyLgHrEGmCpEZnx0KAOSz0M7GaI9hU/Y/u6CfI7BW/EwytzgQoFCpIRPQYCDCg1kZCHRLeQS8KzLbr+1TAq5Ub1VYA2j6T4OqZlsWK+XK2dZlgLDPGmDFxWfsXtpbBR4wHxQNBqtfWKcWMbR+ECZ1jECUn87hIzq3uN7EqfAffbXzGJmEoD47kIoZmyj/uOK+P1o26gd54Nl2ERgQ58825Ne2JbH0y9R8E7c6WScKjTLiWXi3f00cuFyA+GwDOkZ6o1m4F4ib4bVtidiRkGNTHS3Px7TH3PC76WcfnRrjWoczHgZKCy6rWM5ugXH9IkhXTpBiGZMtdlthEtj8e9lIaBiXisJkZ/+WVSsQ0sqYR4svKTf2nQIy5VaXf0kPyBKk1LMwbv8IlmNrAFMeC2HnYemOY84ODIrGqtnZS+1bui06iZ+YbWPYgcLZypSmEKYp73JkPSl7RjrfxzZLl8YD6g4PQdv1KUBD7i/n3+ISQKBArM8PprJFj7IY3J2e5XzTK+9KinynD0fbBR2yetbyw4zu0agdoKtc0pnKa1L1k6/TAySutWBbIiNacod2iEYU8ESbcExoH8E23ynrLmLVqUwm5MWDj5RTu3VTFIAGwXpkFsrIM5kQ7aPHwy2CMbxJCHYn5bI4n+NXKZjRPZuysoSFeKkxvl0Es2DYi/IO++JBFLCmdQsgJR+1+kfdPJRs3PUKfFEWZwWs2Q8gzi9pbq5jCY9TFl5VnS7Q9nmBKTO6dCyr/CpWv6GMHmBQIDsJxlWzIZ3eCIm4DtyaT1R1PgGzHtZsD22/VyCENXTJPe4SQDifaWAc9H+eJlpl/s+tVuiUJxAjnyCiSagHFvWJRfNwL0Y+U11urR7IM8iYvOEifjye6paGMSZFXx1e6hyBvy5kY/WpLOQTWxsAEo16tGUIhjQg4iKRpVcu2XXZIeNBZgA02leHFzpH4s76AViyKxlL96YghzSu3VjoPTW8tXihcw3c1zi4RDpW+cpJFK6aBSlhH4RKCEC2ndXUnhAjm0Id25aZXS1pF7jptyCd8ZFwywH1bMUtPO7qQgIIqhpN2YIrRrUkRjZ3Pbr6OTeoB/iokiFnJMKw4ilYLp+oUmPM7d2g9YKm74tMRbQ4F0Np73IJIKw/l4knV3FipFsRHLBzjBUgBHhpsbh3LAbWI5Ef583Wbv+w1Q+stB4gue5Rv5zG7kt5bpInt2cxUKWVOeKv0+KtftEYEMcD2FhogQAUmMyYsi4RPx1PY/LVxJlAOHRk0yC80i0aHhoR/b48jhPp7ssaYIIyNMYho26AHnN7xaBHrC/vYwaCJcg5V2FcNQOW4+vtbkR3uhasX1TwCYd28DyreE3RvEDT3u9gWjcfkpHMv64YRSttuNgeLITWh6bfy1DX6ly1Klb5Tb8l3yClnkbhJ8MgGXIhViEg6s7OZlaExrdD22eyS+4wpwECLaZLdl/G0j2X2aQoR3akO9tbac+ixUirUmNShwiM7xBeae+pfvDN74H0AgsGf3cMp9MLK6kyxBMgoFcdP3wztA4KTDLWns3CyhNXUSdQj/sbB6NmgAc+OXAZS3YmI6OQczb2qxOAGd2jEOOvQ68vjzI2R2KOltxsxSKQ0C7SFzO7R6NFuBe3kuelwfD7DEgnVru9T2z2RlmEyj8M2hGfc0EZCtJKPw+pIBticG2I/pE84jo9HoZfpsASv69YkJh7Ir1daSBzEAkixIBYaHqOh7rxQJdOYq68q/raG98D5hPrYPh5EsDEmmh/cwgwvPHVcesb+bwTIPiEQacAcicjFZ0GCCfTCvDkH+etBC9K/W89F4NGFDG4XiCWDIyFuhgtplu/WvXDbnoPpOSZ0PHTf5BrNLslBuHaBpGJHPh8aB30r+WP9eez8Mzq88gs4Ba42gFatjl3jvbDjoRsvL07GXlGCaNahGBUsxDGynjX9ydxPoMDGGWiuyNeQgkwJlsCqU5O7RqNOh75MP31Oix7V7glaPPa/iDAJMEiqODxwAdQ1e4CFgS56R1Iyf/wFmo8oB+yCKqGt0GyGGHe+x2Ma+dZRay4Y+JmWBSY1cW3BrSdZnvcIQAAIABJREFUH4O6zQM8B7663FI9YNz4DszbPgSJNSnzTQlH/Tc31AYQKK6u6zioOz0Gwcr0WVa7ygYIRK0qy/j9dAaeWnWeyTvzzrv1wAG1q0OkD6PmDfakdMbqcsv2gAyk5JvQ6sMjVhVI9/u4KdaAFpjZvWIwpkUofj+TgadXXYCB8iut88dDJWBy5ygMqOvPBMRS842o6a9nQcAf7L2Czw6lIM9gYdYDB55EN3wWJZGL0gZkPNFQh0nq1RC3c+72ysoaYKligTHwfHodJLIQfPcE5NSzfE0RZIix7aG/Yx6EwCiYDvwI4+q5EHzDGAGNJeUkAxhuNqQ415deQZwlsc3wa8R2nHtA9VVVuwdkSAU5MP05C+Z//mDKjkouTdWud9m1sx8sALFGU+iGLmaWOmdK2QBBkpFLevUb4vHD8TQe0GR98q0GEWL8dHjztproEsN9stWRB84MoX/vNZkFZgz/6Qz2X86xhcLZx3TFRzePwRfQKtwTK4c1RHyWAbM2J2LD+SwHFx0pjsp4rFU4XukaBY0KSM41MbEnyhhKyTdypkVRQPdYXxgsFmyJz7Wl21aklkpWg6+cj7GmXzDG+Ac0pEjHwEhFnlzymFAWKk3vSdB2GgPz0VUw/EyyyNwyoIpuDQ0F/tVoAsvBH2FcOx/Q+kDb72VI2UmMiwGmwkqpW0k1tq10Gk9oejwNTYeHIIh0cLgpEOXfO9H+BTVnY5OUGK+chGHVDEgJB2zWqn9B9UutoiNAIMInAgjqhrc5BXTLAAicBel8ViEGf3cSKXnGf3tfXVN/5VRGnPlTOkfh4eYhIO6D6nLr94BJkvDDP2mYsv4ijMyAoGgjKDH27ukDItoicqLRrUJx8HI+luxOwtb4bBaTQO+sH6zHy50jcVttPyTkGJjY04/H05CaZ7Qy+opMZppSKJNyDExC+lSanZGxfC4HPvJ1MGGM8Xc8bvwNPnBfMGTJGy4ZKwRo7nsXmvo9YNjyIcykYkdchDWaQNvzOYi1OsJ0aCXMRMyUdxViRBPoH/4G0uXjMK6ZBynp0A3Znm2LqqiG9rYXoW59P6flvSFvd8+4q35KOXrAbID52GoYN7wOZCXfMqRgjo45dbM7oR04A4LOu8wOKtOCQBaDZUeuYuK6i5Xkpy2zjpV6gcI2d0+jQLzYJRI1fBQypEp9bfXDq0QPyEjJNWHxzmTGDGpXR3CXA03FfOdE/BPmrcFTbcIxrEkwKPZhd2IuzmQUwFevQbcYX7SK8ERSthFv70rGypMZyDJQXATPqnmybRgebRGKAL0Gy/9JxeIdybiab3YgdnG9M5lVAhJGGtfiSdPPCJKzKn3rUxIWKT1Q3X4UzGe3wrDsMYghdaHp8SzUdbvBfHIDjBvegJyZyNI9hKCa0A1dBDGoFoxrXoX50M83xILA6iqqoe41Cdr2D3Ou/eryn+gBKT8Dlm0fwbT7K8hmkhP4dxc7NTg/SoiegdCP+R6Cfwx3o5QSsFgmQKCuGfXzWaw9n8nSsG61QgtlvUAPzO0VhS7RvhCrCQ9utU9cansopOZCZiEWbLuEX05msGvdBQ844OCBirIgIUCnQY+avri7YQCahnpBpwY0KhW8NCLS8s14aUM8cz/kMRIyQBREzOwWifuaBCFAr4bRYsHZdAMDB7su5WH5savMbVEeC4IKMoaatmCScTnCZOIcuDFnY9au0LrwGLuKE9WsWwBVvV6MkVCK38eEa6TLJwDSeyBa2KBa0N39BgSfUBjWzGOc9TeC0IbqSSRIqtb3Q3QyoOs/NXFu4cYyivaUk8xiZTm//ZYCCIrMqHbwq1C3vLdEDhTHT1smQKD0xuYfHEGhmQhf3O+XvLnjTIBeLeL5jjXwWKtQ9ufq8t/rAVoQjqTkY9amRGxLzLXGB7CtzNoZFQHGjhE7FEsA5sIK9tDgiyF10TDYgwUtDl5+AkdT8kHiqFR0KhGvdI1kGiAUvGiwyNiekAUiZWwa6olADzXOpBdi4przIOVKmpoU5FdaAiBBFatIM3qY92OO8RNESOnWBdB9wX8SiI/UzobI68TtB+y/ggyvSTsAz0AWU0B+USnpMAzrFkJKPMj6n9I6ZVGGKrwx9KO/g+XsNhjWzmOpj5URH8GBof2sqOk8FppOYwBS+LtB4Om/N/OqYouJRVeAKEsw7V8O08Z3gNwUFB3TVbHe16+Tsms7WkLEOt2gH/lpmQ0pEyD8dDwdT646e0tBA6ZyJQsQBRk9Y30xs0c06gV5lNlZ1Rfc2j2wOT4bMzcm4lgqbbhEKCRBIClfN2q0Kz04pmUYA6b+ejX6fHkMx67mKRTu8PfQYGqXKNzbOAhqAfj9dCYmrr3IGBXJKhHtp8crXSIxuF4ALmQaMezHU0jIsaZmlaLezjZdAWgpncY7BUtQQ0rjPlYrd7y7vq5sE75xFLVWsp/4vBOC6sBj7C9c2c6QC+Nfb8K092vIksVqcVFB5R0M3cjPIAbVgWnXpzBseB2ipGSAuP+wwp4oqKBuNwq6rk9C9iLWy+ryX+0B2VQI4x9TYTnyO6NivlVIlLj7TAWPidsheAWV+nnLBAiP/noWf5zOsJKdVuQkVbWGGS20oV5aTOkUgRHNQqoXgqr1eW54bdikkYGfTqRhwbZkXMwugCxzXY7KsJw1DPLEG/1ronmoJ15YfxFfH01jcjHh3lo81yECI5oGI8co48vDqVi8LRGFzLRA9eFzkMbuwj4x6F8nAO/uScarW5PKdAFS2mV9y0UsMnyAxpKiYKnkWrivy2kpFfS+EHzDoQqIgmzIYxTKyE9jErvUBpH8+y3vhbbneGZJkFLPwLT7S06KZDFADI7jOgeB0TCfXM/MvXL25SJsEO6rsfULq3VQNxkETffxEP1r2B5fnc3kzp7+dz3LcmEXJw5LO8vm561QlPGsHjgL2rYjyg8QiFK57cdHkF1gtpovb4Xu4b5WEtYZGBfAqGZDqjkPbo0P64ZWUEzCZwdT8PbOZFyhFMNKsiDQGLw9LoCxKb78VwIu5RaifqAnk2O+u2EQruab8MmBFHx6MBU5RjpVS7ZUTOXQP6tHDB5qHsw0HOos2QuT5KgLp3SGXXkuVk7F7MKP0dVytFicRcWYCYubMIWgulC3Gwl108EQPHxZ+pjl7FaWtkgqeraaqbUQG/aHtv2DEIPrABRVXZgF2WxiJxvZkAPp/E4YNr4JpJ5hQYslmUsr8tm5hK8MqPWMnEnT/WmIQc7liFfkvdX3/nt6wLh+IUw7vwQsRRlXK8u6pIxJ9n+NHoLeD9B6cmloswFyQSbkwuxr6AacrY8SLCzGtIb+4a8BQX3dj3EdCwJ/xF/nszBy5RlIJF50i6AnZkUEEOWjw5xeMYygprpU94BjD0iyjPf2XsHiHZesqYjuC1y0v4eHMOpVIrMONA3zZC6HfrX9cTGrEJ8cvILvj6UjvYBnMzhu9/zPMmZ2j8EjLUJYYG2tt/fBLNEZh4tDKeNcYUyMkNLwivEbDDDvsllFnF1QShsd3L5iZVQgt11EQ873XrMD5Ix4IOcKtxAkH4Vp07uQMi/ZpZ3JGiKoIIbUgbrRAJbSKHgFQpYkyAUZkBMOwHTkFyArqVIGKNWb/hVFEap6vaHp8zzLlqgu1T3g2ANyRgIKvx0LKfWUXZukkuJSlHREQecFMbIZmxNiSBxE33BArWXggKxtlvg9kC7uYyDaPt+ds3DYZaD18HjyTwilSJWXAhCAuZsvYemeK7BYQ5sqw9R6M4YiWQ8GxQXizf414VEdmHgzPkGVfidNM8ki4609yXhn12Vu3idXvRtBMj+3cvO+SgSTX57SOZJlKZDLYNXpDKsoGgcDRSCCADQO8cCrvWLQLtIH689m4eFfT4Pc8451VFJ4g+UsTDQsx73mv21sjHxbd25BKQsgKPkPgncIdIPnQ1W3Gywn1sJ08CcGEkSfUEhZyZDSzrNTEHzCAXMh5DzKnrCGTZIiok8YRJ9wSJQtlZMCOTvZ+uqKWTiuV3/eAzI09XpD22M8hIhGVuh1YzI6qvQkqK5ckR4w7f4aptWzIZOJkWJoKql/ZHLPBcRA0+Y+qON6sSweUjktXqSsJFj2r4Bp77eQ89OZe5T/p+xiq72ogu722VC3uu+6N10XIJgsMoYuP4l9yblWr6cSiVx2Bar6FSS9++EdtVlaY3Wp7oHr9UCBWcJbO5Pw7u7LsLC5pwTaVbzPuP2Ab1BkAehUwxv3NwnGuvOZWHcuCwUmxRJQ1G1A97UM98LEDhHoHOODqwUWjPvjLPYlU2Ald0Moha71Qx4mGH7AMNMGaEFEZ3bCZncscvx9/El0AifOAEvqWRh/eg7SVYpzsPabqIFYqwPU9Xtz/77ZCPO5nTAfWAFYKPhSEcixPpFlMSj4oXIWZHoT1UfbayJIobG6VPfA9XqATPqFn4+AdOWkHdS6AWAXfx8pnGoGzYaqTme23ND7pIT9kNIvAmYDoPeDJqo5xHq9IRtzYN7xKYzbPwUkmkMuAgRBYJY73T1vuwoQwARiSCgmOYezuVW08MwBvljYRXHtqU9WCodKEonhtScWN+KEGFQvAP8bWBtalTuWyIr2TPX9VbkHUvNN+N+eK3h/b7JDGlzFZ4Q9NJDPB6JSDvFUI63QbNVqsI5ZB/sB8SJQUCNl3bQO90R8thELtl/Cn2cyQYBesR4oo9oDRjxt/AkPmtbCU7ZTFLt71CsgwWP0cojRrZD/4V2Qk49akyoBwa8G1K0fYD5+Um+EqOZgJjcN5r3fwLRlKdfAtiZUsDWCZZFUAjCgjA2r7oOqZntob5/jNC99VR6n1XWr/B4wH/sThu+fsb3IHfPI7p7jFgDN7XOgaT0MsrEApl2fwXJsDQvOlQ3ZYCZCtRaCdyjUDfpC23sSpJRTMPwxA1LSEacBAhv/hL5J+ySoJvSPLGeuvZLKdbMYfjmZjhc2XERGMR+os5+BsTPJYOxvAXoR5zMNdglNytfmOUUsLtseJ145EePs1EQLg0jkMzJ+HdYIbWp4OtuU6uv+wz1AIzIpx4g3dybjq8MpN6UnBPLTyxKah3vjrf4xqBugR3ymCa9uS8Sas5kwKuQJ1trRwqWWJTxsXoMnjD/DX861gmP3ZyEpCxxt/Lr732P+0oK5jSFZDKB0R1WNptB2fwaq2LaAVg/pwh5Yzu+Aqm5XiNGtYUk8BONvr0BOIXKkyi1KvASjr6rZDrr+0yAyy4Ei7Vu5769++r+7B2RTAQo+uRdgVoSKHxL4cZnvg+y/gTHweOhbCN7BMG5eAvOOLwCjPcbAPn5lliWkHTgbqrhuMG39EKatHzB+EWcKuTEUMC56BkB71+tQ1e5MBCXXuE6uAQhEUkJl3tYkfHzgClOVc7U4UsOMbBqCGd2jkWeScCA5F3uS87AnMRfHruZbn02BVZUFDK6tecdIX/w0rD6zJHCzZulUk662vfr6W68HaHSeSy/EnM0J+PNs5g1vIIHouEAvrBpRH94aFY6lUV3isfFCNiig0l6424JMjUMsW/FK4dcIlLOs88uRvMi9TWAgQaWBx+jvINZoBtOxVZD2/wBV/T5QNxvMIrDlrGQY/3oDlpMbIJkNEDx84DlhK2DKh3Hze7Ds/MS9lbrO01hQYkwb6AbO4OCALJuVFHB2QxpU/ZIb1wOyzOJqjL++aN3WnduQS6ugI2hVtbwbuv6vAGYJBW91AfEwFHcbcIhPp38R6vo9oB/2HswkbPbHTBbX40phEuZqD2g6PQpNj/El3lqiBYHWnJE/n8ZfF7KKLUDOvZ5zO5MFgUdak9CMRiNAKwhQWamMc40WnEovxJ5LedifnIsDl3ORabAwU6lZ4v/yxc9dsQ8isx58MSSOieJUl+oecKUHaCTuT87D7E0J2J2UW6554cr7lGspoLZDlB++vSsOalHGoZRczN50CdsTckuIiBCggoSelgOYbfgE4VI6d+gx11rFrQfKcljctKoscrq73oSGVOKYqBFD3ywtS7q4m4OD5GMQBYlZDwWtF/RPrWF6B6aNS2Det6w83ePSPWTRoFgDXf+XoKrZwQYLqgGCS934n75Yzr6Cgi9GAunnrc5yd4AEHrCs7fgwND0mwELzZdmYa/pZOUZbd1cIYQ3g8cTvMB9fB+OqGYzx0dmiMENKBDTqdof+gQ8Y6CheSgQIFHfwyC9ncOBKnrPvK3KdbQERBER4atEgRI/GoZ5oHuqFmgE6+OrU8NOK8NGpbICBHnA2vQBHUgrxT2oeo51NyjEhzygh32xh/PSF5vIucrxG9QL12PhQI6goYrq6VPeAiz1Ao2/92Uym23D8akGRwEUXH1Xm5TwDQWZsigv71IRaJeJgUg5e3XoJ2xMdU5vsZwzSV2hlPoWZxk/RUEpg8Tzu8JMqTItkmmRkzrY1kcxwDtwEoha6QTMhxrZjsshyXirMR/6A+fBPLD1LMaWyU3xYfXg8vhLypYMw/jQJEokzVUKxbf6imi2o2p4TINbtwSyI1aW6B1zrARkwFsK49T2Ytr4PwU3aRIqbTt3yPmj7v8yUSw2fPWCt2rUAhGa1QBt700HQDX0d5qO/w7hqJsDmmOtFCG8M3b1LeHxQsVIiQNiRmIPn113EmXQuKVu+omjjKV4WMnHK8NKq0KqGF0Y2CUHPWr5QCQIyCiwosFiYaI2fTgMPjcBOaFfzLTidXoDTaQU4eLkA3/7jPEJyrLMSMT6lUw1M6BCBaj2m8n3R//Rd1p2GtsMfj6Vh0Y5kXMykAN7ygtbSepPDAzptz+sTiwcaB2NbPFkO4nEirbBIKiPpK1AdZKjQQI7HjMLP0d7yj92v6QZfqc1PyvpA5qQtXsEs+0DOI3ZEE2uMYqwXQusxchdinxPyyIpBxb7QiUF1obtrEYSQujDv+Qam9Ysor7RScgt5CChZDuoy1kZV/d4lnpT+02O7uvHO94Ass6yCwhVPMTlyd+BM2w4Z3gj6kZ8Aag8UfnAHpAzSHSlabCH+AdHQ3TEXquhWTHXSRPLUUlHOFGcbRaqO2gHToKrX0zmAsOxIKjslXc7jE9/1omRgO5wuuMOfWQ/uaxSEx1qFIavQgs3xWWzRyyy0IMRThZr+eiZG0yzME8GeGpt/cF9SHgZ+e8z1qli9sv56FX64tz6ahFYHJ5arE//jN9llkAi8At8cuYrXtl3C1XxKHXRvcczy8dGqMaF9OD45eBXJ2RT4VzLXQZichhmGL3CbaY815q7ipk+lVY65BKrIZlDF9YQQGgcQhfL57UxIiawFRXZ4Rd9B68lPJgQijPmMMVHVfhTUdbrAfGojP/nkXHabufbaLyFACKwJDQVKNh3ETl7VpboHytMDthmVmQTj2nkwH1/tVoBAcTz6ER9DVbMjTAdWwLTlfSZ7XiQOQeMBIbQh1G3ug6bZXZDSzsG4ei4s57YVkxtzroUM8+v9oenyBDSdr3VrlGhBeG1bIj7al4LccgQo8moVxT1KFAFlFXaK9sHCPrGMIe7tXckggRzuOuApiCROE+unw4C4AIxoEoxQLw3WncvGzoQcfHb4inOtvhYHoVdNX7wzoBYDHdWlugcq2gNmGfj6UApmbU60BtsWtZhV7PnKs/hTaE5YbMGI155ZfOUczDJ8icHmLVbhJeU0X75a2KGFNbraev5XNejLAppU0a3t6ozZl2E68APM+76FnEMWPm5qYXeqdRDjekDTdjhAGgzGPBYDIATVhHx+BwwbFkNKonRIDnrccRor2mIB8KsBXd/JTE6aWBurS3UPVKQH2Og2G/kGvvY1FmNTNBfB9ac7QnlVXA/o7nqDEYqZT/3N4hGQeYnvqV6BUIXEATFtQUAdhmyYtn0E8+6vIJvyS9h5y64Le7eogabl3dAOnMlTkB3KNQCBggQnrbuAH46lWxelip9ElGXGW6/CM23CGT3sW7uS8emBVAYOirO/UYeTpWF0ixCMah6GlSfT8f7ey7iSV/7T2rxeNTGyWRCT0a0u1T1Q0R6g7BcKpCUxpRkbE0GAgY3jUtQUK/pODr2VECU+L7UwYZrhc9xv+pupzbljk7W5FGwBwgIzPyqEQtLx1bBcOgxVREOo6veFbMyH5dgqGDcvhZybYg8rVumgJn0DojD2I/EjAXJuKiyHf4X58M+QrlReaiMzxeq8oLn7TWjqdrOCg+pwRHeMwepnANK5HTCsmgkLsYM6ZOFVeP4RoVjrB6DrPg6CRyDXXcjP4ABB5w2R1BdVakZZbtrxKSxHf7P+ffkBNs0Kdb1e0A6aC8EntHSAkJJnwvNrL2DtuWy3ph9SZkO4twZv96uFKB8tZm5KxNpzFFThCEC4a4KCPygFg9wBZG3w0Ii4e8UppBWUDyCQGNOng+uibaS3WxbQ6glS3QNKD1Aa8OcHUzF7Mw+ycycdc8m9bIUIlAkgyHje+B0nQpIK3etaYERFVkjiVwP6O+ZCrNURpn3LYd72PuT8TAiUQ91pDFTtHmQgQTr1Fwr/mA6hMJtBFfaP3hsgt0JQTRa+IKVfgJx2HnJBlttyyR37SSGQFnU+0A5dCFW9XizmgDWFpU9UeAmvHvzVPQA58xKzgFGAoOICcNfIkjWeUMW0hrrF3UzTRPQO5j1uzIM55RTkc9tgPvk3pKtn2e+UVUc5OrjyefjuK0IV1QJa4gWJbFo6QDh+NR8vbUjAjsTcIhRGrrz0etdG++rwyeC6jMFwxsYEbLpIi4RjcWyijGhfDd7qVwv1gz3R64ujSMkvX0xE52hfLOobizoBeitTY7UVwR3fs/oZvAcyCs1Ms2TJbtIOqLjFrbR+tVkQBBmPGf/AWMOv8Ee2zf/ojkWKp1PZ54juthegaTsCloSDKFzxNFCQzfnoRTU0ncZAQ5LN5NuXLJASDqBg2aOQTQZ7tgNxDahUnFhaMkNgqoyVw8vAbAQ6H+iGLoYqrvs1JtPqMVvdA27pAVmCaccnMP31NmQL8RW4qTBULkBSkQXMG4LGC4KHH9djIGuCsRBE2ET8IXzOyVbGUbvdz9Wa0J0i6T/0mQJ1o/6lA4Qt8TmYvjEBx1Pz3LbUiVZS9UhfPd4fVAsRPhrM3pSIX05mMJ8pi8NmLE783KGcwuoFeWBx35qI8dOg71cnkOJiQBhncxTwdNtwPN0uHBSoePOMjMrG4dpQciuRk43KtlICxksZl671Og+W56c91+50dWq453qq45UcE+Ztv4TlR69ahVPcZ00Q6eTNiL2sjKCQcKd5K543LgepNDrLoOZKax0pYOkkrm4+FIZ3+8CUFg+qDyMmrd0R+sHzYTn5F1u0SPSFFjMSWSp49zZGp0wLnEQLG6s9ze/KBVDkQ9UMfR2ahv2YKfbfVih763JKOrbtOYajJ87hano2jCYz/Py8ERUWiJZN4tCxTSNo1Cpwvhkl6sMF0rcqMKkKCg3YeeAE9h46ieTL6cjJK4CHXouI8CDUiY1Al7bNEBHqz9pITmirDahKfU4LUS+vWwA5I8ktPCPXb5z14GxbB5Qe4f+nwpkUyje3eKCiH7Q9noW6/UOlA4RfT6UzFcd4SuFiCc/le2nxxtKHDtCrQamGDzcPxU/H05mc7sUsAyQyZ9rSxfig14jAyGahTJSGCJUe/fUMMgudS+Owh1YBOrWIN26LxV0NiWv6WirJGzniCPgc/Occnp/9IS4mXHbq1b4+nggPDUS9OlFo26IBWjWpi4jQAHh7ekCtUgGMAIdTZ5YGY7Nzc7Ho/Z/w9c8b2ALvGkyxV1VJ6gsL8scr4x/A7X06sGdlZOWh/R3PwGImK4+IGuGBmPzEMAzu26FcLzMYTPjul42Y/ebXbBySDsHS+RPQu3MzqKpaHAnlQwsiTqQVYN7mRCaTbmZj2l3zx/61iAips+UIXipchvryRevi4NRQcvEiHjYo+kVCO2gOU2gs+F9/WKwCTIJnIKdQbjIQJoroPrwS6najoOs1iaVBSjkpMB9fC1VoHIxrX4OFaTOU3096vcoXWZ3IrdBrIjSkTqfWudjem3e5yWxGVnYefvxzKz5fvgb7/znD0rwZPbzDtGY/yoC3pw6Db+uEh+/ti1ZN4+Dt5cEkq53d981mC+p3G21V/yPQ6UzbBXh5eyAqIgitm8Thjt4dUbdODfj5eLJ3l1WoPQUFBuw/coa18Zf1O5GTmwtJEm0A1y4jRuu/gDYt62Pcg3egX4828PPxYqJmVakQX4Fx9RxYLu6xbdLurB/7LNYxwF9gPT4LImcA5icpe8Cww/GajwbniiIxTdZAbe+JRaxu1wQpfnGIpzimFRDFsvsWOFocREFA95p+eKNfLQTrVUxk5stDqTifWYgMgxkmM7/GRyuiTaQ3xrePQOMQL7y6JRGfH7zCZXedKgrNjMzSJimOoXusj1N3VvZFuw+ewMPPLcaZi85p3DPRGoeP7e/nha7tmmL4kJ7o2LoRIsKCnNrsM3PyMG3h5/jw6z/408oz16zAgu6PCA3E4mmP495BXW0Pu/ORGVi1cTdz8+p1Orz41DC88OQw14mpZCDx8lVMnPUBVq6l9B0gPDgAf3w5B00b1K7sT1Sh51O2zfxtidiXnAcT5UO6pYhsHRAFC5pJ5zDF8K2V66B8n7GsKil+STbyKPXqztegajoYhj9nw0IR06IKqia3QzdoLky7v4Rp0/8YLSytF94TNgJ+kYBMvAYqZk0wbngTpsMrrRaEst7u+t+z+pLKXafHoOnwEECpYM7ulq6/zq13pGdkY/22g1jwv+U4euI8Oy1TKibV33HeMwuMIHERK2sNAny9cfftXfHoAwPQpH4sdFrnMrQIkHjFDebbiXPooEibZZk0dGT07dEKU564H+1a1INeZ2XPLKF3LBYLzsdfwUfL/sRXP67D1QxyiVktx44AyPpnq8YpOzSS5eC2Hm0xY8JwtGhSlx+Kqkghq5lx1WyYD/0EmaxlbgbAyjxk7gWVlmU20HykdEjaJ5lwk6iGTP+ZJJNuAAAgAElEQVTS73OvAnlXuRvPyT7iOzxHnhTzoOszBQIFQlrLNQBhya5kvL4zCYUUlu0CCim9PlboC8Bfr8aIpiGMB4GCFlPzTNh9KReHU/KRlm+CViWiQbAHesT6IspXi63xOUw06oKLpDSKr7ZTtDdm94iuMvwHuw+cwMMT7QBBo1bD39f7ut1HkyuvwACDoWiApodOi7sGdcWTI25Hm5YNyhwQWTl5mMoAwir2VUWVAF9vT2jVahe/Mh+2YcEBmDHxQdx5W0fbyWXH/uPofvck/rMA3H9HD8x/cTQiI6xBNs4OWlnG9r3HMGDUKyg0GNlScv/g7njt5UcREWofvE4+rtIvc9yL6M9rz2bgtW1JOMnYFov/rTPVKZpeqGwJ0VIKcysMMu9gDymvSfG6NbAFJvJvrJxgNV3GQt1uJMs8MP31FuAdBI+Hv2UkSYWkJGcVr6G9xnPC34BvDUgn1wGegUx7wbx3GSRTgdsWUGvtePvphOXhC02bEVB3fATwDPjXBCQmJqfi42//xIff/Im0jGybLkxQgC9iIkMQGuQPL089AwwmkxlZuXlIunwV8ZdSUGAgSx3fqDu0bogXxw1Dz64toddoykSNRrMZPnUHczZ8AB56nfU9199WCFTk5ReC/m8rsoDaMeF49YWHcUffjtBqirt0SJRPwPmEZGYJ/P6PrawdhH78fX0QUyMEEWGB8PbQQxBFWCwScvLymYvlfMJl5OcXcleWIKBV4zgsnDoGndo0rlKWBOOW/8G87WPIhpwy1+AS5x1t/LQhU7yBWs82f7bxkwWM/kxgV+cF6H15TILOB7Leh11L9wlaD0BHf+cF095vYd75GUia2pW1QZlPqro9oO33IuMqKREgUIrj/K2XsHTvFTeaR6/tlmAPDW6vF4A76gWgeZgnfHTqazo322DGzsRcvLf3CvYk5cDEjAfOncgYOLDuUsObBOPFLjUYn0JVKHsOnMBDVoBA9axXOxJPP3TndatmspiRlp6NhKRUnDibiOOnLzJ/HS8yWjWth7mTH0afri1LbR4BhGmLPsf7X//BFlV/P29moqwbG8F71ZmuVbpVluHp6YGOrRuibk1KX+OF3tGq/zgkJKWxYNC6sZF4c9YT6Ne9jUtdbzCa8OX36/HU1HfYfXQ6+eC18bhvUDeo1FXnBHG9RpH579dTGXh1yyXEZ9HJ2jVBMn62svMq0LLtI+fjRePXeMD4t9Ws6FKXOnEx/7hMwKVYLgalVol1u8FyYj1QmAt1u+FMapasB0YK0nI4OXlM2ALRJxj5i9oDPiFAeryVaZFa4f40TEGjh7rNCGg6P3ZdyVonGn/DL7mUfBXvfLYSn/+wDmRFoN1ap9Hgtu6t0LtLK7RqWhd1atZAoJ8Pc6kVFhpxOS0T/xw/h237jmHt5v345+RF0AGCSvNGtTFnysPo1621LTbheo0ymU3wjrvTNuW7tm+KO/t2hE6nsa8Dyly3Lg10QLmcmo4z55Owbe8xXM3gWSgEUVo2rYu3ZoxFh1aNirg6aVzk5hmw6L0VePOjn2AwGpmrkNo2pH9ndGzVAPXrRiPQ34dZBgg8pKZn4cSZBGzZfRTLf9uEsxeSGHCimIv+PdvijeljERsVdsO/1/VeSK4144Y3IGcnlQ8g+EdD0+peiBFNmEIjAQJoPSBqvSFr9BC0ZRD70ZyVTEB2Mkx7l8G8/3uXAIJ92RegqtEM2v6vMMn2EgFCtsHC4g8ot5vf6E4rAn+l4mei2ACSrSXGRLIYRPpq4aVWwUxBOrlG/JOaj+3xuTiXWUjiVpzz3ekcc/4WQp6TOtbAs+3CoSGWpipQOEB4HWcuXGKn7F6dW+HPr+aWWjNJkpGRlYPT5y9h887DWPbLRjaJJIuFLeitm9bDu3PGoU1zkq4tuRQFCEBUjWB8/faL6NSmUTl6pWT7LdVz5ptfYcG7y9mmoddq8PqMsRg9rL9LcQN0mrpn7Fxs20OUwTIa14vB0nnPomOrhv+CNDXeN+RzXXkig1m/cgwWl9If+RZtPwgSvJhq+AIjTeuYjLOTTmPXvqssKpIL1pNlSYiRWwI9yI0giJzB7fham4lSU68XdEMXwpKVjML3BzugTn6fK6eaUitvZWmUoYa6/QjGAid4h5RvgXatl9xydW5eIT5fsRqvLV2BlLRMwk0IDPLFlLH34I4+HVC3VmSRTV4ZCxzIyyg0mrB11xF88t1q/PnXbmZNoPnWulk9LF/6MmIjS99AiwOEcaPuwNwpD8PHy6PU9tEGTq6/zTuPYN673+F8fDLrc71ejycfuh1Tx4+AlwdlitkLHWr6DX8RySkZ7NoOrRrixaeHoVfnFgwQXe+jGYxmrNu8D8/P+RDnEpJZ0HJwsD9efvoBjB15e5VwNdD3kC4dhvH3qZAuHyvX+BNC4qC97WWItToAlJ1gyAFMBkiFOcyqwmjLRTWktPMsQ0jKjAeMBSxOQPCPgiq2DYSgWpDi9zJVVClhH2TJwjhRnCmOAEH0j4J24HTGlFoiQEjNM2PO5kSsOHbVCg+cOVY6Uw37NYrpXwEgFHfiT+JNehU0osgW1myjhaWOmS0KQFGidZ2tD7+eYhle6RrNiJmqSlEsCKcvXiKGePTs3BJ/fvWq09UjE9zO/Sfwymuf4fDxc6y/NBo17hnYBe/NexaenkUnqPLgawFCCL56+wV0LhdAKLm6hN927D+Gnvc8bzud3D+4B+ZOeYSZTJ0tx05dRNvbn4HJbGEg6tnRQ/DyM8MQ4EdxJFUD6JXdFiJSAiP5mrDmPPuzKwDXRokky3je9C1GG1dBCzN3Dzll7im7hkWuUHtAiG4N0S+cbf5Syin2Ly1afIPiqYkUU+457SRgMbITi6KjoKrZHto+kyHWaILCZY/BfGar9fH2wER3AQSlHqp2D0HbZew15C4utvyGXk59uWPvMYx7+R2cOHORbfieeg+8NXscaK6wU7wTxWKWcOpCIl5d8i1++nMrzGbyO4sY3K8jlr3zIlsTrlccAQLNpiecBAjK88yShHUb9+G+J+eCrH2ELMnyQTFJDepE215LB4alX/yGSXM+YGPfU6/DrEmj8PjIgcytUVZhlri1OzDimddgNJkgCioMH9IDC14Zg5Ag/7JuvyF/LxfmwLDiKUY5Xq6VSecDIaw+4OEPQTLx9GCJ5rnI2A2JvdRy6m+YD3wP+eo5lhFEcw+CmmUMCeENoG0zgp36Tds+hGn/94Ax1yUwbnPZ6byhvX0W1E0J3PNSJAbhQqYBszYlYNUZRXnNFQtCUapZGqxK4RXg0fa0wBRZ5LkqtDVMQolVsElS2JYme0iLc9+drg/30WFa10jczTIYqkYp7mLo3bkFVrkAEKgVZouEzbuPYNSzC/gJRBZRIyyA+QJHDO1dYkOLAAQAUREEEKagc5vGbu2YpCtpGPbkXOw6cJItHGSpcP49fCt6/+vf8ey0pWxMeHl5YOHLj+LRB/r/K3n0KVDxh+OpeG51fLH5UBrY5UG2VB41/YFnjD/AV863wYJyLUTFvjKf2fxJqprtoOkyDmJQLQgaWrgFrrOQdh6m/Ssgnd0MwUT+YAGCJEN7+wyo246ElJcO6dwWyAU5UMW2hRhSB6YTG2D8cQJAZs9ipUL1tkZzcy0KAdoWQ6Dp80KRgCq3DuRKehjN15mvf43Plq+BWbKwhXzGxFEY/+id8PZ0TSeGDgd7D57EpDkfYtcBzkpJMUW/ffkqenZsel1eKAUgKCvxk1aAQNkQzhaKF+g8dALLSqBSOzYci6c+jkF9SEabF7rmztEzsHbzPvZzswa18Pr0sejesZmzr2Fuhx73PY9dB0+y3YMCtAmItGxi95M7/TC3X8giSWH4+XlY/vmjnGJJCmy2rgfMkicxSmXdg59DTrsA45+zIKeeYYGQVJR5RPEdUKkg1u7EggsJXBh/fRFS6mmXwIoNIAgCNP2nQdNmOOddKA4QzqQXYuamBGw4l2V1Ljh7YifLr8ACUqjH/HUqFmxIVgBaIOkUSAsLy2tn19kBAI/U5f5JpemMvsAhFY9fTVe6UB8IqBvogRndo9C3tp/bh0Z5H3gNQOjSEqu+LN3FUPxd1A+SRcL0RV/g9Y9+ZiYltUaNkUN744MF40us2o0CCBRUSIvfhBnvsa+lUqnw1ZIXMLRfpzLcDDzgzCLJiOv6IBKS09hXJxfIoqmPo02zOL5pVmiXKe9Xq9h9+SYZXxy6glmbSHiFQ+TS3HccXMsYYNqNV4xfIkJ2j2qcYysUg7+qfi/oek2ESBzvpPmQcIhrKJAYE0XTGwuY1oJp+weQctM4nTPpG4z6GmJANBt7bIkT1bAwJsWZEHIvM0Erd1o67HYIGepGA6HpP5W7Ff5lzIiHjp/DgJGvIDU9k534mzeqhS/fnIyG9a6V2i1r1NE6QJvw3LeWYclnK5GXx609rZvXw+Yf32AS4SVNlyIAQQAYQJj8MEuXdKW8MO9jvPnxT2woe3josHjqYxjzwADbNzFbLOgweDwOHTvLxn33Ds2waOpjaNHYlc1dwvwlKzDzzS/ZvKlXK4oBkQG9XItrcqVdrl5rXDufBeIyF4EbiiSooGk3kkmTm3d8BuPm/12TJaEAfBat5BUEbZ8pLNOo8JsxkJg1w/m9UgEIVHVtt6cZ+RkoMLI4QDh8JZ8xHG5PzLUuUZR041zhixrf5Ck98aUuNWCWBFzNMyE+24jUfBOLLUjONSAx28SUIq/mmtnPBonsr9b4FpkTY7AllP2OoQtuSXA6BoHXuU2ED+b0jEarCN7YqlDcARCUdlxISEajnmNhtvC0lrYt6uN/c55Gc4auHb3YPIDQFqRYiRYE+kYbth/EnY9Mh8lEvjAZA3u3x//mPctSI69XFOoPitCu2/VhVn0Kzho/eghefWG0SzEMVeE7F9mMZQmZBhlv70zGh/v55qm42EqqKy2mLSxnMNfwMRpa4iuFhIWBbpKMHTAdYp1usPzzG4x/zLRFYwuBtaHt9zJU9XowhsTCrx6C5cJunotNoN83FJq+z3OJ2IIcmA//AtPuLyDnpUMgYjSKGXJTpoVix5QFEZraXaC9fTbEAAqOLTv/vqqMBZoX5DL7csVaPDl1CQMH1JfvvfoMRt7bh538y1uupKbj3nGvYte+f0B9RFkQm396A3Gx9gBix2e7CyD87/Nf8NzsD6yPFhiQHz9aCbiWmIu4610TceDwaTYWiMvlzRlPoE/XVraMDWfafPpiMn74dSPbCzw8NOjTpRWaNqjlzK035BoSTDJtWcrjB9xRBBHawfOgqtMVhg1vwHzo5+vqPTCgr9IwkE8bu+H78TCdWAuxBAteSVWzAw3+t+o2w6Ht8QyXcy8OEA5dycf0vxOw6xLpMLhWuC69zCwHT7QOx2OtQ6EWRFDQuYpMF4IA4tNQ2cgulDcISMkzI6PQhKv5JlzJNeNyjhGpBSZczDKyTIa0AtoAXbcg9Kjph/m9olGLUSxXjeJOgEAtat3/SRw5eYEFmEWEBGLGxJEYPayf9eRgPz/cEIBgxSTxl1Lxwqsf44c/N7OTQ3CgH/5avhAN6tr9k0U2UIcfFi5djmmLvmDjLzTQD1PHDwcFUVFxK6vkDRoOjjCNxvPCbZfw26kMGGycHo5XcF60utIlTDN8hS6WwzarmbOGk9IdF/ZG08Ki7jIWul7PsUBD46o5kHOvMsZGIr4Ra3eBZsA0xgNPqY3m/cvZid2SmQiRAD0LGrYGNtpWC37O59nrypnf1ZWk6IexrRKiGiLxxfd7BWINO198URh8gz5qOV+TlpmNAQ++jENHz9PZH7FR4fhowUT0IJO7sx/4Ou9+fMpbWPbL3zAaLfD00DISs8lj7y3xancBhGmLv8CCpcsZ2qUUR7IOKHOVXkxWzsdfWoIvf1hry46geKKJj9+N8JDAcqcrVpVvrtTDcnglDGvmA/mUvVWxwhzxBIQHzYG6QV+YNi+FadcX1ofa55LdGQ+I3gTWp0DT7E4YVjwD88n1LI7B2eJoQSBJdF3vycxKeA1AoM142sZ4HLlC/k7XJ7aSORDpo0WdQB0CPbQI81IjwEOFAA8NAvUaBHqomKIiZRWQJoNeLTJQQcyJ9Hv6Wck4OJKSjynrL2J/MgVdFE++Kqv5AgbFBeK13jEI8So/Oi/rLa7+vbsBwsL3VmDqgs/YacTH2xMvPHkfpoy775pqFQ9SjGaxAS+gU+vG5VycSp6m9FujwYQPl63C5LkfggKVaMMhN8Nd/TuXagkoMBhQu+NDoIWUvnePTi3w/vxnUSu66qQ1ufq9i293Ry7n47Vtl7AlIQdGmsNEHsDcbjwQMEq6ygSYBpuVID/n38hnLD9V2+evY5CgA0BQ6xkToqbL4zB8MwaWM5vZXWTeVMW0gY7AgV8kTPu+Zapxgk8I9MPeQ8GysUDqSecrVaErre4YUYQqsgVbuMSYNuUcrxWqiFtuvpKagaZ9xiIrm3RugEeG9cPMiSMRHhrESIEc47ZcfeG3v/yN52a+j/RMsv4K6NKhMdZ8PY+5+IqXCgEEh2nfe9gL2LL7CMM2MVGhzIIw5LZOtu9Dbdq84x/c+eh05BcamAtRr+Ou0BF39UHd2DAEBvhBo6E6Klse25Zcbf5Nvd5ybjuMK6dAznGOHbe0yvLuFaBu9yDLbjCTSuqfc7gOg62P7C55sh6o47pD2/t5pvRo+HYsLAn7ncxbv7YmYt3u0JL7LrAmcxUVCVLcnpiDqX8lsBRD5xLj7S+w02Q6egvtwYfcJ8KBgL+HGr5aEX56DYI8KINBDR8tUTFzAEE/e6hFUNDk14dTcSGrkJG2SC6wflEX3tsoGAv6xMKTXlpFirsBwuZdR9H7/slsUdBqtXh+7N2MwKh4KQ4QIsOD8fGi59CeSJZc9OMKIuVsa6G6TuoobXYUmPTs9P/hfPxltgH26tgMP340gxGyXK8cOHoGnYdOZBHZ1JZH7uuLd+Y8VUW+nDuqwaf/tvhsLNiWhP2X85gPWdFZCEQOE18aZVoNHconTMZmn84HolYPKSe1CKx2XHbJGkC0xGKLe1jWgXRmI4/xiGgEXf/pEMPqwXzkd5i2fwQpIxH6O+ZA3XwIpIt7UPjVw+7ojDKfwWKaRAEsFaz3JKjjelp5Gsq8tQpeIONCwhU06jkGlAVAyyFZxyY/cS/TILASW5e73pdTM5g5/2Iin28tGtXGmm/mWzN/ij62QgDB6jgiRtiBo6YhJzuPrcu9O7fE4mmPoUl9Mv3z1tB4S8/IwbPTl+LnNduYy1EJLqsVHY6enZsz2uaaMeGMFCokyA/B/r7QatXXpDNXZeshEYUZvhsLOZMrulakcDUiQAxrCP2IjxmHiHnPN7AcXw0p+wpgMXGxM7LEe4VAHd2CuQVUNTvAfGw1yyqSsi65FIPgWF+yzmnveBViOE9/LwIQdiTkYOrfHCC4akFQ0hcdg68UNGRHh4753fY3sP2JOUN4EBq1nTZ1sjDkGi3MHOuIL535AMSBMKpZCAMIVam4GyAcOXEerQfwTZRO6s+NuQvzXxpdBkAga4MeA3u25VTNLgEEAZHhQRjSr3OpqYuUzUCugq9+XM++KXGpH//7EwQH+haLjuBVpYjsSbM+wNKvfoMsyagRFsSCke5hVM63ViEA9deFbLy6OR4n0goZ26K3bMAjpj8xxvQ7I0VyJchI6R1mQdB6Qt34DogRjWDe+y1PVbTGBhV5JlET95zAGBIVCwIxqGkGTIUqui1IiMa4ZSmLoqbJSXrxujtfAzz9kTeLAkYrtyjWECEgBtrez0HdaADzr1f2eyuvVTL+3n4I/Ua8bBv/r77wCJuvajUdYCreMsXdSI+ijfq3z2azuVq8lB8gEPFRAbbs/gfzlnyDXQcpWl6GSq3GmOH9WaAjsbM6xj+RBfHoyQuY984ydmggDogiG5IgMOKjmMhQRNcIQWxUKGJqhKJmdBjq14l2mkq+8r5b2U+Wc1JQ+PkIyOnny764jCt48LAAUevFrHtMPMmYD0v8Xsa1QDLpAmUzELNicB2oY1pDCIyBdPkEjBsWs3RLWChw2DkehOLVEYJqQzdkEcSo5tcChO0OAMFVCwJDG/YEDPZwDhB4wBL/hR1ZOi5qHCBQ5BZdy+9ULFl2R4drLg9yW4xuEYpZPUr2e1f4S5bzAe4GCGcvXELDXo/ZUpooqI9MfcVL8RgE9r2UYDlX1iaZmNDq4O3ZT6J9i+sTM1F6EkU4z317GaOJJhDy2RvP44EhdhIOxzpm5+aj053jcercJZCFgghVVn4yE8Q3fysWmr7rzmXipXUXWaDufaa/McnwPYLAJdDLCxAE/2imkUBuAsuFHTD99SYsl49bWQyU+UcnEDXU3Z6ErvszMO/6ggUZakh8Ka4bLGe2w7B2PmTSm7fORCGkLjwe/AyCTxjyZtV1w3ZW9Ks6+kFtG4yHH3S3z4a64W0sS6Kq+J7LOx7f/+p3dppWmCcXvvI4xj86xEWAXtLbee+R9W3vodMs4r1RXAx+/Ggm6sSGX3ND8TTHgb3a4cG7+0Cv11yHg0tAgcHIaJ7/OXURO/Ydx8mzCVw3QgYaxsUwGuS+XUtmcSS2xzMXkhinwco123H4xHkYCok6ng6E3MWmeLTJJRLg54Ua4cGoFRXGsju6tm+Cbu2aQKe9vt5Deb+JO+4jHZLCD4dAvspTPitauO4GIPhFMgE0ddM7WPwP4z+gdGPaK7VeEFRqpoFCJEmmPV+z7AXZSNZ/hWqtHDXxDoXunrdZ2jLfIxxSAwggvPJ3PI4xF4NrhYmIXCcLjZublDRGJWmRL4O2BagUmwV3TtA5yHmQQPEMpPcwrVuUaw2p5KvdDRDOXUxGg56PQpYECKKMZx8ZwvKEnQEI1J0Ke4WzzaYv0LppHN6eNQ7tWhJAuD662LTzMKbM/QgH/qGNBkymdtP3i0t81aZdRzDy6fm4fDWTic48Muw2vDP7VnIvXNtssyzh73PZeP/HlVhQ+AEi5FTbRa5gtiJP1nhB1bgfNJ3HQgyMhZR4GAZSnCOmN4c8atqkaOHREpeARgcp6wrEsDhIqWdh+GECy6VWVm0C+aQVT6lX0tUzbDF0d2Ez28qQqCwkunuXQF2/D+ekvwXKwve+Z4JpisonzdNnRw91U8tkdLvneezaf4JZ4wggfP/+NEblXrwUBwikGBsU6AuVcK0rVjHtm81cJyE7Ow+kBkkpsJSvHxLoj5eeHoZH7+9fJvkR3U8ux31HTjOtlV37j+HU+SSQx8VeZPs+Igss4DI6MhQdWjbAmAcGom3zeizY3R0WFzd1PHtMwdKBkFPJWufOQm6EIHaaV9XsCFWNxuxnwSKxbCMp9RSLN5ASD0HOSADMRKDk/B5ZYk21XtANew8qYnZkomHuAgjWLdxXp0asr475p7MKzEjIMTGfW4iXBmoBjBeBKJ2NjEKcZybwYAgyInCQoSxM3KDIcCpriytuDw+NimVTvNi55FQfd35GV57lboBw8lwimvR+nPUQoe/nxgzFvBcfuWYCFddi8PbSo3eXFogIcVX8SEZ0ZBjuu70bYqNDS216RmYOnpm+FCt+o2wGmflak/cvZznTjkWSJDw2+U0s/20zDCYjQgP9sXbZfDSuX9PBm+lKL/9brpVhunIG8R+MRLhM6YH28V9eCwJbOtV6qBr0hrrbM1AF14Yl7SJMKyfDknjYYV2VmfiLdsA0qJsNsZ3iCpb0gpRJPkw+48i5p67VAdoBMxgRUv5HdwNJhyqlg9k8Z2YCGbrBi6BufoeVsKXccKlS6unqQ5UAxA+++p3NB14oLfAxxhLqkoevlJd3vmsiaH2h0qheLH78aDrqxERcc0dxJkVH603p485xHRYQExWM2RMfwh19O7AA6TKL1QRE7Is5ufnIyS1ESnoGDh49i31HzmD/kdOMgp5koW11YtTiKui0KjRtUBPPj70Xd/brWGLwZZnvr8QLKgcg8D2RrGciE2ryZEqq3NpugWQqhGDIZXEJvGsrCA6s41I//GOIcd35T24DCFYzUcsIL0zvFolmYV749kgqFu9IRqbBgo2jGiLKlweocX4DXii+IL3AAkmW2O+JVCazkKdo/HIyA7+eSndQlnS+A3y1KjzdNgLjO1w7QSpxnJT5aHcCBMJ2+46eRqfBE9h7SftgojVI0e7u4VUqChBkREaE4LPXn+f6Bi4VslQAarWKS46WUqh+c95ehjc/+hF5+RzdLnr5MYwfU/QEmp6ZgyGPzsLO/cfZpkTCM7t/f8cNpleXGnbDLyZ/ouHT+yFdPW1LDVQ2yPJuicrCSi4EVZ1O0PV9AWJIPUhEePT1QzDHH3TQkAcjWdHd+w5Use1Y+1nK44aFkNIuMuEYdYM+0HYZB4FYEvcvZxHVApk6K6EoVoSF+vsR3nssnmhTVJOgEl55Qx+5fssBDBz1is1uymIQHrvLbboCJJR29NRFdthq3CAWv302BxSMXLzYLQh2pw0bb8qgUzzCJZzTie68VZM6GNK/E+4a2I25AyoiwUxrBAXqEqkS/T8lLQsUAPnL2h1YvXEvcvPyrfw3AkuRb1wvFgtfHoPeTJyuvLPE/Z+9sgAC1VQ5INN3ldiaq8Tk8XRiXuzJARVtnfa+pcxyJ5MWRHGAMI0FKRawSElXsgb4xxLQItwDM7pFoXm4F8tAeGNnMtvwtzzcBDF+dHK0hy7y72sPb1QaxsI0BBHv7E7Ckt1XkEeEO6w+zjfdV2cFCO1vXYBAXfnDH5sx/NnXWLcSin/xqWEsMrp4uSE8CCV8nlNnEzF60uvYfegkGyLNG9TB7j9o8+eDmsraTfsxfvpSnI1PZkN/+vjhmD5hhGOsk/Mf/t9ypSEPhcvHwXxhF0SZK/K5uzBnXo2m0A+eDzG0Hjt1FK54GpbTmyBYzJCZ/5fyi32ZyBKZMaHRQZAkSLmpEMjPSQpzkgmWY6tgWD0PlvwsqOB8joQEYwwAACAASURBVHVpbVLAjDKtie1khaYXFmofQJbgjaUDa2Jo/SCrSdndvXMDn8eWPAnJKZmo03EUo0ong+u0Z4dj0th74Km3Zva4sL4Vrz2B7PaDnsGFpBQGEFo2roM1y+aXKCVvsyBY6WofvPs2TH7inlIzjOh9Pt5e8PX2cIq/QHFNVCT7gMDC6x+swIffrEZeQaF1uZDx2PABmD5hJMJCAm7gRyz9Ve4CCNyAZucX4VkNNt5TvmmTVZ3i+ZiL2IGB2C0WBEB75wKux6CimJRiLgYli8FV1gElnoCCA2lzppTFQpOE5DwDY1TsGu0Db63INgZCgnSNljuToBYFBHlqrIxxxIUgwF+vwpqzWVh/LhNGCwXDkPnV2chMAX5aFZ5qG85YHasQ0GQmQEe5597loFpWhioNkEcmLsKylZSiBjZhZjz3IB59oF+VAQhkLhw5/jWs2rAHFlmCv483DqxZaj3ZyLCYZTw97V188cM6xjTnpdfg4u5lLOuBl397aFrRT0GtkQuyYSJ61qO/QTYbnVZec3U15BuwCDG8IXSD5/HUJUMODH+9AcvhX62sidwATm4+VYt7oWl1HyNegZoWBzOLmjYdXQXz/u8YSyL3S7oL0FhXGUGAGSr8JbbGfP1wJAjhDLz4atV4b2BNdK/pDxbo/28t1iGccjUTzfo+gXTG8wHmt5/+HPEg0EZXAXQA4JuVGzBx1gfIyMxjmK9ruyZY/c08qNkaW/TZFdJicGE65uYX8HgFWuNVKuZaVFnXfGc/JW1PP6/ehrEvvs2soHRwrVsrCu/Nfxbd2tsJs5x9XmVd5y6AwNkweNQdzUxZsLoXPAMg+EcyYTJBVEEqyALSzsOSn8k4EkjoyR2F3qy98zVomt55LUDYSTwIfyfgaArnQXDeoE9V4xYExUtl28SsmuH8WYrYhIMti2381qhLFrOoBC5aR6I18lEJ7HG2E3wIILQJx4SONSo49Zx9o3PXuRMgZOfkIa7rI8jIymNm45aN67LgQcoAKF5ulgWBvuLHy1Zh2uKvkJ6ZxRjXXhh3H6ZOGMmqSJHRT778Dv78ew/7Tl3aNcX65QuKCR4717f/hqvkwmyYd38N464vgfx061LgLPB1rYV2YhUA/tHQD5oDVe1OQH4GTDs/Z0JMsrUONN9ZzA8BgBrNIPqEQjYXwnL5BJCTanVLKGwm7qovfx4Rcu9VNcB83QgcEWvZIaEgIMZPizf61kSnKB+nTq6u9dCNvZpO+Xc+OhO7mCsNqB0TwYjASLzItVTjovWmTXTM5Dew/NdNMBkt8PDSsYMCxSOVVBxdDLTyuirWxE6uTuCZT1eswfHTJFImoE5sBNNjcfnULwO5+fl4fs7HTONF2ZU+WTwRw4f0qjIU7O4CCPS9bC4FtRZiRGOoGg+Eqn5fiH502LUiZYrNKMxiqql00JDi97GfK1ro3bqBM6BueS/TZCliQThwOY9RLe9JyrWCA9cgAq8cHzmOGlVcyMkhZ8Em2KSkMxJaYmcra/uKe9CVv3G+Ph5qFca2CsNLXa+N4q1oJ1bkfncChO9++RuPTHqdCRyRVYa4CT5cML7EgKGbBRCorxKSU9Fv+Es4cyEZoiijc9smWPPNa2xyr/xzG15e8ClzL1AU9Q8fTcftvbg/nBcXjiwV+TA34F7ZVMDJTDa/Czn94jVzpTxVUECAPcCRz72irGu8F0W9H9N7VzfsD5Bl4MD3MO37DlJ2stUvrqRHOUpKWeez4pdmmUrOz8PibVLcCsp3pXoeF2Pwmm44tqnoROhYe4FxojQN88SsblFoTyDBmZ2pPB1ZSfc4jl4Kzvvkuz8xafaHzN9ObSXOknEP3g5Pj/LTwVNqMFkS9x7min/BAb74+4fFqF+75Ayu4jwIRI/8ajnEmkrtMlnG2JffwWffrmYLf9vm9fHGjMfRvqVrMU9sV5AkrNm0D3eOnmk7uL41cxyzwOidlMeupM/LVyizEYUfDmaKixUuSjagSg0xtj20vSYwy5+cdRkSETGJxHTamkuyp1+E4BsB5F2FadeXTLNBLsio0IGY+ptnLD0IqPVFAQJRLE/flAAiTOJLc/kXgms7yqpRpxgIHBZ/tiwxbneFf8uRhaE8dRAYbfNjrUJZmmNV2mIqAhBs8EkGklLS8cBTr2LX/pMszyPAxwuTx92L50uIP6CuvhkAgW1TMslTy3jw2dfwy9rtzP9K1MnfvvsKGtePxey3vsabH/0EypUODfHH6a2fQ19F850rNPklC6QLu2BYtwDS5eNFxFcq8lx7ABOfQxTxLHgGsngDOT+DVlfrTLP6Mj0CoO3+FFTN7wLll5n/+R2mbR9AzkrmgMWK5CsCAkprj+JNVY4RiUIIAwdr1G2YJaGkQi7ITlG+eLlrJFqEe1VoAaxIX7vjXlI2HDx6JpJT0tgi17pZHGM0bRQXWy4rAs2nhUtX4M2Pf0RWdh6z4fbv0QYrPpgKneZaRkJqQ/mJklzrATrxk2uASliIP2ZOfBCjh5FsuxPmB9sOxEX6tu0mxtgXbBV4axYHCJQSfbMLaZgUfD4cctq5io9NBSB4BUM3ZAHjIzCf3QrL0d8hpZyGEBgN/d1vQTblw/jrVIixbRjgp73BuOF1WI6vYXwJ5Z2/ND81fSYzgCBoPIoChFNpBZi5KRF/nSdThXvhgc39UAQg8E9LvyLfFMUd+OhU8NKoWLzCxcxCJOWWL2KahKIeaRGCub1ibvb4KfL+igAE5UGUizx/6XK899XvKMg3MHMfuRe+XPIC4mqVnNZ5MwACry+HZ2s27sOwcXORX2iEj5cezzzyf/auAryKa1v/M3M0npBgISkORVqkLVqKlZbS9tb11v3W5XIrt+7ubq/u7a0jxaFQ2kKR4haSkBAS4jk6M+9ba5/JORHIsRic/d4tkMzs2Xtt+/eSf53CXAe3P/o2vvppMc+BS885Di8+fL3Pbtqmhi2sxtQCU3Io2rMJru/vhpq3sjYkKdhtsqkDl3+vmGEedjbkrKFMtUzAgKhf1ZzlULcuAdzVfmNffBrMR54P05EXAIqFNxXP3GegV+5hu2c0PaLrtN1nTjT2llIk4zHbefjONApu7DtfCsmJfJsm9UzGnWMy0adDaGmJwxq8ZnqJzAyPv/wpXnjnO6iayol5rrnwRDxw24XBhQrWtkvMrjlL/sIdj74DSiNN2gOaXL988jjGjRwU0IP9+CBEkO55//MSyNtVhIETrxREaYqEi844Fg/edjE6pqcEmXhN9NHp9uDV97/D7Q+/zWuH/BneeeZWnHXiOGaPbb0i2qcVb2W6cr10Z+QAgVefDFPfCbCc8Ty0XWvgnvUItIJ1DN6V3kfDdtbL0Mpy4XxlGnR7EszDzoF59KXMtuie+Qiv+3D3lv0ChO1lLty/MBc/by6Nqszp8B/VLREJZhlpdhMSLAo6xJlAnAkUjphOCZxMCiwmCWZZ4mRN1MEXlxfgy/XhZcgilPrPwel4YnJ3VlO2lRIpQCgqKcML73yLdz6dgZJSyrqpI95uw303X4DrLz1ln3ba1gYI5ZU16Hf0pSgpr+A89ScfOxpnTBvL6taColJO4jLn8ydYFdmGhivyaUMhvTUlcH1zK7StS0XIFndQhCpFWthzwJbMUQhy5uGQ4gNSantd0Kv2QMtdKWhYy3cJTyHa1+JSYBp2NswjL2Y+BHXnn3B/Ox1ahfA3CPcG0iSY8ZEhuWDG49bz8ZlpApwS5SIwwOS+a6D8LP/ol4Y7xmaic0LbZNVrajyJxOjX3//Gjfe+CqJJp8mQkhSPu24418eJEPysWLsxh1O4E4WxxysiS8jD/9l7r4HZbNrn/GopDQKFLo499RasWLOJNRsEDO6/9QKcd+ok2KzBj9/u4jKcfMk9+GutUOEP6t8TLz98HUYO69+UuFvk98Rk6PrqZugVpIWLsBCIlmVYJv0bpiPOhee3/4NnwUuALzujadA0pjyn1OuOjy7jMWaK9Cn/4YRmzk+uhJb/FztzhlP2CxAKq9x4YGEevt6wlzWNgYr+cD5mvEMoefVVh3HaZ1kWdkVSGxJxEtkUyX4eqHWiT1e5VNy3IBcfrSn2OS+EptEgwZ3avwMem5yNZKuRLSySXkTnXQYINz+FzTn5fHuYOGYIfv7g4SYrpzAf4nJ/9b3vsXTFeuZEp0KGm2mTjsD7z09HQvy+yUoaZHPsko4PXpiOUUcMispB1VQH6GD89yNv4YW3vuFH+/Xohv59svDd7GWMjHt3z8SsTx5rlDu+qbrb4u8N7QHd6txf3Qbv+p9rPY39njbhtbzWrEDwUDLBesH/wdT9KPZmdi95C1r+akhxyVD6T4HSbyITJ+mVu+F4dRrzIcg+TlLJEgflsFNhPvpqjlzwrvsZrq9v5fEIl8t9/wCBthQZkDW8ZDkNr5r/AQeM0Od9v2mYI2ii2hTgosM64d9jMlnL2B6Ly+XF25/+hHuf+QBlFdVsWElKisdFZ0zBg/++sElGQjLHLftzPe595kP8tnI9yLeBZDOgVzZ+/vgRTvu+v9JSAIHW/E9zf2fNodsjvOy7dU7HnTecx5TrdLFpqng9Ki665Un2VfJoIiLi+ov/gbtuOA9pKYlNvd4iv/dumAn3j/cBVX4m1PA/TKZCmdkMTZ0HwDXnCU6aJs5iHeaRl8Iy+Tb2ZXJ9dZsA87YEWCZNh2n4OZw0yrt5fi1raqjtoJVP4IR9ECz1TAzlLhUPL8rD+6v3cHtCO5L33RRaABuvHYokmwKXV0dRtQclDm/tn3uqPFAlHQMy4jCmWwK2lrrw+JICzNtRziZUus0YBBHBdViEbU3ukYRHJ2UjK6kuc19wdTTPUwQQLr7lKWzdsYujNw7tm4V/X9kwPTMf/pLE9KZETbrkj7+ZppScmwzbPt0ejxzaB7989CjsTSy2+kyKaakJuOqfJ6Jv9/05cfq2Zt+lxoiIpalqsZpwxOC+6JndkOu9UcnpwJYdeRgwkWigdQZHtKlRMhcqz9x7NS47Zyrstta3KUYy8oaMDDurd94zcC181ZcLIZKa675rOCFaxlzFORVIpo4Xp0CvLua1yxqAlK6wnvwYlB6joG5ZANdHlzEhE88t/i/5LChQBk6Fefi5cH16NeCs8OVEiVakgr/dQi+h43vT0Zhu+xdCNR4aMqUekPPx9Ue2LY6T4EdXR43DjQee+wivvP89nC6XSEmgyDgkMwN3XHseTpx8FNLTkutUSXNr3abteP3jGfjgy18E4yCZrySga+cO+O6tBzB4QI8mAX9LAQRqfFl5Fe547B28+6k/AkE2KRg/4jBce/FJOG7CETAr9c1LOiprnPhx1jLc8/QHzO0gAuA0plp+4r9XYPTwASH4MgQ/MsE+GejX5l3+Ptzzno9KFAGtT7o0W859HUrHvnDPegzquhm1Z7Fl/I0wj70K7uUf8O8I7MOeIhwLh50J5weXQNv2K4uLfxdGMdcChLi6PgguVceji3Lx2p9Fvu0jPDVFY23qFG9FjUdFlUcwJgoVps+n2ccQZaIDM8OOxydlI86i4MEFuZiXUwFNl3xEScG3hzbAEZmJeHBCNg7rFAQNaBiCDOcVAggXGgChNilqMDeh2jspZ38jquRzT56A5+69ijiWm9wUGiRr8uVh8HuVB9sbRmzokJKEp/57Bc4/bVKwL8Kjauh79MXIL9hbe0Ol7yclx+P7dx7EqGH9aiUSdKVt8EGWqaZCXfst3P+7A5pO2dUijXSve9Dyv2QT7Be+Bzn7CDjfOgPeXWt92gEJSOoCy3F3wHzo8dB2rYbzo8ugqyosIy+B+9c3Aa/IqseZ42oJrX2kwMRzELQjWfADQEaV3+RDcZV9OqokawQu0DJkqHj5hD44uR9xJASvlg++tc37JM0Rh9OJB5/7EO99PgclZcJcSKc9aW/i4uw4tHcWunXNgMVkQkWVA5u252Fbzm4fzBL7Ae0FA3pn48WHrsOIoZSngLSl+y8tCRCoJTl5uzlSibSFLpfQdggQK8NmVXDYgN6sOSTTI2lK8wtKsHlHPqqZclmDrEmQTTL6dO/KmoOzTjqmVcGBkK6QP/2XEqJ5f3uXsy5GpcgKzJP/A/PwczgJk3vuc5BUkpsOy3F3QTnyn/DMeRqepW9xNIPSbSjMU+7gMEjXp/+Cd9easMEBtd98/H9ZG0GaxzphjvTLp5buwrPLCkXO8giWcENB0SFIG6U4DI1ALEPURjomMkMc2zMZT0/pzkRJjy/JZ01DaPoMYbLo18GO+4/JwvjuSVEZt2hUEuiDwH3XNWaN3FfhmwV5lppNSEiwIyU5AYf174FLzj4OE8ccBos5OFteLUD44Ef+VK2vaCh7a0CoaofUJOaS/2cIAIG++/ZHP+Oa/77o+76AJ5RL/sUHr0XPHpn78GOPhuRbqA6DJ337Uji/uQ1aNYEhsZlEatf3my18g2aywHbB/0HJGoKahwdDZxWsxJnfKFLBNPQMTvfs/upWaHu3i/TOR14Az/xn4f7tw1qQXhtYKBKh8OSItK3+dW3MNQmr5Z64wX4D8kBESKGkXms4dpKkQIGGt07uhck9U9h3qT0W0gh+9M1c1iSQVpFyFBDtvIjsCtiCaV6RKZYxhA6LYkZGegrGjzoMN195Ogb36x70oRmYi4Fk9q+LTuJUzQnxUXT+FFhH+LtI5LC4B69+8D2+nrGEAYDTtS/9kTEHxd5AmsaMtCQMGdQbt1x+GsaPPjzofrbUfHB9/1+oq74W2RYjLOLaLMPUYwRs57wGrTQXngUvQt32K3RXNaynPgnToBPh/vEeeFd9Bym1GydRMw07C96/f+JIBr2yIGwfBGo+ESWZGiNKol++uWI3nvx1F8jcEF2AEJzkaGH0TrPivmOykJloxW2/7MCfBdU+Pu5g6xDbcdckK+eFIMemtlBIHbhhSy4efelT5BWS82WgNTpQO2JsdjqH8VCSoy4d05iH/IjD+3ISo2Dsd4F9rq5x4s1PfsZ3M5f6DoHA3cf/vdoTgv9St018aPD/S0hOjMM1F52EKeOGhSRauk2QiYXdUMknBTqbOk4+bmSbTecaUgeJEjx/FWjT0Is2Rm0NiY3Dz1PA57hihvWC9yBlDYXj4UEMEGR7Msxjr4Z55CWcwZFyJ2h5f3EXLBNvYX8DlcDL+xdGBQTsTzaB2qkNcjb+a70Mfyl9xBzyZ/gNSby1DzO5GtAxzoynpnTHpO5J7MvU3ooB+rbnFuLTbxdg8e9rkF9YjOKSctYakO2ezHBmkwKb3YyUxCR0zkhG355Z+MeU0ZgwZgivxVAKsRsed/4dtXvqKcePYedGu615TLHGXZt8L5atXI+vf1rMOSMKd5egtKIaNdUOOF0e9owxm0zMCZGUaEfHDinontUZU8YNxSlTj0ZqksGuGkpvm/lZzQvX59dD3TSnNqQ4ki8aAEG2JcJy7HSmPCYyM/cvT8K7fiZsZzwPue9kqEvfhlpRCFPf8ZxHRdu7E55fnuCQSHJojATgmwmEDDyR95cGGoQv1pXgkUX5KKiiDFF+M0AknQ7+XaGIzUo0c8zzqKwk3DhjOxbuJLto8B4RtHXQ/1HI5F1HZ+KiwzOCb0IzP0nIuai43Od1XN9dLdCyJQ7oxDg7aw5o0Qhecz4aQm4lZUykqIeKSuHc6K8i8Jv1v2+AhAAAwU2WICsyE7IkJgR36xDe+xI0VcWO3N0B+7yEjh2SkRBMNriQe93CLxA4KNoI9+zH+RAWCzUaxWeQI2a1uDQfsRElzTLBeuH7ULKPgOPds5n10DLqUliOvgpa8Q4RF719CaAKD3fJnoy46X9A3b4MzvcviGgTCaZXBkDYImfiCeu5WKAcDi+HMwa/lvf1HdnIfOnTFD4wvhvGZSc3h2UkmK5G5xldQ2FxOdZu3I4t23dh955SELAnrgNKe5yUGI9uXTIwoHcW+vbOQlxYB7oOcvvZvrPA54gOpCTGIy01qYWYKnV4PRpy8nfj7805rE3YU1KGisoaBgh2qxWpKQno0jEV/XpmYVD/HpyELkoLKTrjFFCLXlEI51c3Q9spmGCjUUiDwOs1LQvmkRfB1HuiiGb442OhMcw+stYESFoFilrwrvgC6qZ5IDK2QPN9OO2xnvUKlP6TG6Z7psp+2V6O+xfkYXOxQxCvtGgRB/uQTnF4ZFI2OieYceOMHVhEACGkTUXcLshcceuoLrh+RJd2q4I0bF1RGQYOTWH9ceuWxnBI67Yo8q8TgC3LhXvRq/Cu/bF2oUZL1JpkgumQI6EMOB7e5R9w7DXZH62nPAHTwGlQd62Gd9M8WEdfAb16D9xzn4F341xfeJQQuNJzDG8wBBBc7wuq6+Ys9NWdUme8ZD0VP5lGwQHDHBYZQKgrUxmKrGN4lwTceXQ3jMhMaPXp3ZwyjUbdwrwboMIxsmxHo/Io1xFJsqcoN6XR6mgtuX++LzosioaWkEMdhbaWsq0ScyKxJpK5kNKzS6ndOR8KkZvRhUTNXQltz2ZO+8zAIhLXAFmB9dw3ofQeJ+oKTNZEPyB1PuVjWFlAdMvRAghCnc19lgXtsij+k8JmEkRJ/dLicPagNEzrk8pZJe+csxOrdtf4CFyCH3KDrPmcgekcN90pob16x0f7NI12fcGPyYH8pO4og/f3DznHAf3dKOEABH/iViNJGdkHEhB38QeQ0rrDs/QduImuWdegZB4O69mvQU7MEN/1upn0yLP2B+hel8/3QYNkjoPtss8hpWbBs/gNeBa9EtlGsp/BNDQHxVIS3jCfjM8tE1CJuFqug0DjVjhzoq5xTGyHRKR0zCGJuH1sJgZmxNX62IQj/3DaFHvn4JSAd+WX8Mx7DnplYVQEwFEMPj+TWp8jv8cYlLRDmBSND1FHGbRattQopXu2JsJ69isc+dQoQMgpc2H6LzlYmCO8aqMBESg8Kc1mwtjsJCZKSrUpnM2xg93MpEnpcSYmRyJHIzILdIozc4DGS78Xsk9EBftD0FIPJWxDmCtGdYvHgxOyMLhjG7RfRWVKxSppdQl43cwh4J71KPOiR1p0X4IyAaGFY5qc2AH2W3/lm4R79hNQN8wWn5FkmI44D5bj/yuyvJXlwfPDPfBuXeTzDpQgJWbAetydHM6oFW2B471/cqKo5jg8eb/QJdRIVnxsmYxXzKegXKK1F3p+2GDlKPohcRbYqb1T8J8x3dCdUss3RweDbVTsuYNCAuRA6Pn1LWYqjUYRJxylTRPmfXHsG75HPuhd6/0ZjS/WrUNKzoT19GchZwnfsgYahEq3iptn5OCHzZRpLhrwQMQnjMhMwvun9hZkSSJpnPg7iYO8c9kCJbNSIb/SjXdWFuGzdSXY6/CyzUzy5WoIRiTCUCH0E1lJFjxxbHdMaEORDMH0IfZMO5EAmRZ2rYbj48s590E0zqQ6mwJPZB1I6gz7zYuhbZoL5+fXsjrRuKnLJiuDBAp1YtVjVTG8O5ZD370BUlJHKL2PAVKyIakuON44FXrx9mZkS6T2yphtHo5brdeiWrIFBFEKyBPtYqx1+tOiKDh/cAdMH52JVPu+6Zuj3YZYfQehBFQ3XD/eD+/Kz2uDHiNd/3wZGH42pLgObFLQCtcyBbo4BH06dz4PQ7ksBz82Usd+zNQodxWptBsABPohaRA+WrMHXh+JTfDV7/vJvh3isOCigahxq9hV7UaZU8XuSjf2OLwodarIr3ChzOnF9lIXtux1we1jzTIELnFQUyh56AVMIBLF547vzqyKsRKTQLQloFUVw/nK8dApP3uk9r+AxrHmgAhTTriPnVM9C19B3E3z4V39Ldzf3uGLHxMvCPIjDXLWcFhPfAhKRi+fE5NYPXwXKd4O53vnQqvay5wiIv4s+kXXZeQonTAp7lkfmbT4DrXQuBNF+6tGRIywXYprzV1jM3HNEV1YMxkrMQk0hwS0PVvg/vkhaNuWRG896TKsF/8f5O6jxWVD80KvLIKWvxJq3ipouX9BK1wHeMnfwAAJ0VvLxKlimfYA5I599w0QnltWgJf/INU+eT9H/nGK8zeRskSW4FbFIm7JctXwTrhpRBek2durH0JLSiv2rWAlQOFHzo+ugLZrFWu/SC0YkYOQ78OGNVHpMhCWU5+GnNET3q2/wtRzBLzrZsH15Y31oIT4J68qayIneiEbopTcFVJNKTzbljBdq+T1RbAE28EgnjNWsghYBfKVdEyxPQ2HRGstVLNgEB8M8hH68vNTe+H0/imgxG18++IooBhgCFKEsceakABFDbhmPcZZHI0VGOnsIgYM68mPsIpftiYBJiskYpokvwNZZOek9NIo3gK1YD203euhFfwtnJbJHyHEs1Wcxv69S+53LCxEupQmkhw2qkH4ev1ePLQoj1X9oX6wMZnS7d8wVwhLZMsChKMyE/D0sT3QN43skpEOYWzdHOwSYOehmlK4ZjwEdfV3vmgfwxIe+dwWPuaCJ4LIjkxH/wtyClFi6/BuWwr3lzdBc5QFEB35AYJwbDLmuEHIHL221R97scGIL26Xu+BK223YJnfhtpOSIjI6pHBmmn99017zzsm9MaVXisj3Ek51sXdiEmhMAqTV++NjkQWV6Ml93gLREBbTZBE7bkoW5Iw+fJunPxnwJ3aAnNiZs7ByxlYfDHcvfg3eha/UMqQG2w4/QBBeQkS4ZB5/E/st7RMgLM+vwq2zcrBpL904It/w6tK7hBawGGxH9/ccOUO+fXIvjMxMjOGDaAj0IK9Dd1VBXfoOXItfB1QRKUCrRNyhIy9+f2QRkqoMOhmWMVdC7tQXenUJPL++De8fH0Nnx6jAmAde0nUaYDDZCVq75rBbir5vlbvifuul+E0ZAEPvGGm0QjiSDIQHJAtK6PTS1B4MEtohj1I4Ioi90wIS0F2VnGWRopaEaSs62Vmp6caKFoe/AQEkTsAmZw6Bqd8kKIcexzwoRIZGtOmeVd9AXftDeCDYR35HL5vHXgPz2CsgOdZujgAAIABJREFUUcr4xjQI1BzK6njJt1uxsrAqiqKue6sRFUtItinom2ZHz1QrRzgQ0nd5NdZerN5dg12VbvbPiARWUPKLu8dl4ZIhGaCUsbESk0DYElA98Kz8DJ55L0CvoXBGOnQjp1EObI8/W6MBz2WYeo2BacwVbDrQirfDs/g1qOtnAq5qtn/6WRaNmnzrjfeXQN7bsHte50UBhQQEyJE74wXL6ZhpGsFcB35tYTSuF6G31++0KGTQPcWGhyZkY1KPpNgFIXRxxt5oRALa7g1wz3yUEyNF059HGOXEftIwcNEHFkw2mEdcyKnaPWu/h7rqW+jlu6A7QneS9l9pROQA5XowH3meMGfsy8RAzokX/28L5uwoB+Uvj2YxlJ02RcaY7CQc3zsZgzLikJ1sQ4qNSE8kuFQNhVUeBgifrd2DRbmVcHtJcOHdgMjuOCYrCa9P64H0uJgfQjTH82Coy8DwhFQpbbNn7tNQ9+aKDHzNciuvK1XeKCQFcuYgmMddB1PvY6CVbIP3t/fhXfM94KpgR8Vws7eFM4aGt0WRlIq3zCfiS8t4VEhxIVGih/PdcN5RJBlDOsfhzrHdMCY7sTY/QDh1xd6JSYAkoG6ez3TqiBL/QTBSDQTlsCXDdvYrkFOz4Z77NDsvh2PmMDwC2QBHHAjT7mN659prRn2iJOMX98/PxburiuDwhnco76/DyVYTzhiQjgsPy0CvNCvzH+x1eLCjzI0ar4YEs4weqVbmSNhU7MDd8/OxNK/Cl0AqGFHWfYY6T7wL/zu7H6eUjpWYBEKXgA51x+9wz3kSWv5qn1oxOk6JwbSFv6SYoGT043SvyoDjQDSvZGogZkXKJOdXSQZTY2TPUHuI3+BT0yS8ZZmGvVJSrSNgZDVH+22hMbQoEsZmJ2D6mK4Y2jEhxpEQbTEfTPV5XcL/YPbjPqbSlus8RQmxxpDysEy8lamYPX99Dc+MhwBP6NkkA0EHgQ3zCffyBaRJgPDlur24a14Ohx5GsxDj2an90jjXQsd4MzaVOPHeqj34Na8cNR6d/C6YF+GQFCuuGd4J4w5JxPycClz743aUcVRFOIW4FyTccFQnTB/TDbHIp3BkeHC/oxZtYc2BtnkBdE69amSqi66GrXEpGyRDMnvhSyndYB5/A0yDTwSclfD+/j5c818BNMoMGn1AX79N1GM3zPjJNBIPWS9AKYEDLkY7W0Imwc5HES4q6ZQISMIJfdIwfVRXNmnGSkwCoUqAZ3ZZHlwzHoa20UdWFmolYT5fx9tIscI87l+wjLsW6oZZcP90H4dDhld8PlQU4kiEaj4OBF7RDTUIYnGvLnLgn19vxu7qyFNYUn2CPhLolWbDQ+OzOQXzjK3leHRxHraVOeHh8Ed/oQOdKFMfn5yNwzvF4+TP1uPPXeGxVRke4d2TrFh86UAGCLFwp/Cm0sH0lhEWR74GnGNh+fuQNMF33pqFw5LiUzkcifIwEKr2/P0TXP/7T7OYGfyRCkT9LEOTdKxQ+uNy+60oR/tiKLXIMi48PAM3jeqMDHtwqdJbc6xj325bEqA9Qd+1Bs7P/hUd8wLn9BZeM+xHrJghpx0CrWoPUykH+iEYJyQf57IZ5oFTIR92KlC8Fe4FLwJOwcUSShF1ijBHcnw0T7kdckq32ioaDXOk3zq9Gia+txbby1wg6ledwwPDvZ0I+yg5X0zonoz3/9ET28pcuGPOTizNq9yP77eEB8ZncTbGp34txIu/54fS90affeek3pjWN6WBt3fEFccqOHAkUOt0AM5noK7+Fs7v/ytIT5uRZCgYAQqjhi9kz2SFderdUAadCM/vH8Hzy+PheTEH8WHDVkmPFkoZOMn+KPbK7QscGP5PJKS7j+6GS4Z0gt0cC38MYvhjjxgSUN3wrvpG+B9EgRit1iFZkqEMmArzcXdCTuzIXAfajmV88FP6eN53OCMRHeYiYsIfohiZqVP4OEkwHXUBLJNug2T2Z+jdhwZBLKUrftiK7zeVRsXxSJIUmCQNp/VPwwtTe+LjNSV4bEm+T0OxL5WkhAsOS8d/xmRi9tYy3DxrR1gTlaPKCfnJMoZ0isf35/SHWQmrqthLB4EEavGBrkLdvACuz6+F7vWZt6QoJUWJQI7GYc24X5KgHHk+tOWfQIPXlyg2gsr38Sp7VusS9kgpOCf+v9ghZwo/DB8BUfS/2Dw1CjggtldiWD3t0A6wxOIfm0fYB2CtevVeuL+5DerWhVHpnXGDV/qOh2XqvZCTuzCvgi4pkGwJ0PLXsH+BmveXiG8w2QCvy8cm5M/ZIMBK6MXQDsrmOFjGXw/T6MvrVLJfgPDuX0W4a+7OiMMMReMpQgE4uW8qXpnWE++sKMITv+ajjBMx+QO7RIhULdbH5cM64paRmZy06dll+b7fGnx1wdo6jdwMOud/+PyMfhibnVi7wYUn2tAHI/ZG+5EAzSw1dwVcn13bIAFTNNgSI5FELf2RL2mLkdBJXGmCXRPBtcCojf7MkzvhP9arsUwZUEuPRHea9lYM86JJAl6b1gtT+6TwvhArMQk0JQG18G+43rsAurMyaqypxDlgPvEBmA49Hmrun9AoMim+A0wDjoOc3gvuRa/Bu+gVQFZgGjgV6p7t0Av/hqaTPsEfDhnOvmQ4KcopWTAf+2+YBkxtCiD4f79uTw2mfLAOXhIFeQ9GUIwjf1x2El4/sSeW5VfhgYV52Fbq9MEBzgXNrHS8gHWd0z8/MvEQ9le4+NstIAInAymJ1oS3GU7pmYo3TuoBuymmRohgSA/oV9XdG+H5+lZouzc1E8FQ2xVfw1UlIVfKwNPWc/CjeRTquQu13Y400TLakxLMCp4/oQemMpFSDCS028Fs5obzmtA1uH95El7K3hhF5kS5+0iYKRurNQGuT66CVrQZuqzA3HciLKc8ziGMnl+e5FTttnNehe52wDP7MXi3LIwKSKGuyd2GwTL1HshdBwUPENyqhpFvr0F+JTlmhXcYiwNdMMKRg0fPFBvuH5+FQR3j8NjifHy3qRQujw5NEvQQBgCgvAlnDuiAK4d3Qo1HxVfrSvDl+r3IrXSxKwQBiXBLqs2MF47vzuxqsRKTQH0J6OWFcP98H9SNvwjP2gjmWnuUrj/0SbS+RErGS5ZT8IV5IhywsiX0QCgGvVX3FCseHJ+FY3umxIiUDoSBbYY+sCq+ugTON08HyvOiui8oQ06HeeItUDfOgWfW49A8gsFY6TIItjNfhLplAdxznoKU0hWWydOh9DwaWtEGOD+4BKgpibi3pIE09T8WlpMehhSXGjxAoAP9hhk78Pk6akT4B3Kt3U/SYZUlnNKf0rF2RbHDgw9W78Gc7ZUoqHQygs9MtOKwTnZM7JHCDo1dEs2ocKnMlfDQwjzmZiDTZyT5HEyyjGN7JOPFqT2RaI0xK0Y8ww6gCnRHBROPqCu/qE2pHI7qrj2LxB+1AE7X/I75BLxrPh7lUqLv3nSAAASfxoDMCxQpdefYrhiTZdCxx7QJ7XkOR7vttCa8S96A+5enap31ozVDlKFnwTzhZqiLX4H7z88BVUQO0m3edtbLUClCae4zgKbyz6xnvsQHufuza6BuXRR5V002mI48n8EHmTECyz6jGIyHvt24F1f9uC3CxCvCmcKAGKk2E07pn8pESUlWEwqrPah2q6w/IHKk9HgTOsVZYCUjIYByp4oNxQ58uGYPvlhXEgBVwgUtEjrHWzgl7FkDO8RcECKfYgdGDUSjvOR1eJa+A3ACFgGLo7URtGUhiX6SRZPVc9xp4jr4zDwBL1lOxR4p2efa1xoZFppHcoHxC5QWenRWIm4fk8msi7HYhuaReXutVXfVwPnq8dDKd9V2Idx9wa+ho7BhCcqhU2A5djo8f3wCz+8fQvI6GYjL2cNgO+tVkXvl1zdF1IIE2M99E3KPkfD8cDe8q76OSKS87hM7c/SC6fBTGtTVJEAocXgw7PXVnKY5/MxsQplHvgWd4804smsCEyBN6J6CLomWOklUqMFOj4b1xQ78vqsKf+6qwoYSBypcGircXlS7fdz3xCYVNg20DMIe47sn4/HJhyAzyRyjX41omh0AL+savCu/4AQsxFAYicasPUqDQpnZ9cfn9EQb1EzTkXjIeiEKpbQI9IftRxpE4nZC71QGCT1SBJES+0QdFBCx/YxTa7TUs+g1JkqLxr5gXGtrkxgmdoLtH49B01W4v7yFyc80kwnmQSfCMuFmodFkKmXyBQTsl3wEucsguP53m8jHEmGRO/UXaeU79QsdINAhfMpnm9ipMFwehKm9U0HOiSOzEtEzxcoewxRZRIyJzK6gadhQ7MTivEoszqnEisIaVLi8UHVh7ST/SKF/8Dswhqs7CJQAUT7fMrIrrj6iU4Qijr3eriVAaYm3/wr3rEdBzonRzMzWXuRC/tDUb5kchQGsVPrgZtu1yJU7RmTOay/9Fwm2xb508RCKnOqMtDjfxYE6Ee51sb0IINbOfUpAry6G860zoJblRSWMWJxkMiSTFebDToIy6nLmPqAQRveS1+Gd/xKgKDCNuAjK4H/APesRTgrFU9CeBPt1s/ldx5unQi/eGtHIUTvkXkfDdt4bkOqZF3ja7ysXg4DPYNa0l34rwCOLCqCHSeM64/wBzD/goWQ3ms7JmHaWubA0vwrL8yqxNL8aex1uEFcCdAp7NFZkXepWg42RFnL42gyq2/A70DC8SwIeOCYLw7rGMwVFbCOIaL61w5d1aMXb2DuZnIREeuRowM/2JgpaEyp0XcE2pStus12DVXIvn+agNeWxP5NG4O+iY/owcMD0MVm4YmgHJFjNsS2hvU3laLZXU+EiHoIVn9X6BkSjejYhdD2MkyNJXQbyLZjPP0nizIyeDXOg2BMgdRkE9+zH4d26GBJlWxx1Oczjr4O6ezNcb/4j8qZY4jm3i/nofzVaV5MmBnprVWE1Tvx0AyiqIZxy3RFdMblXElYWVGNFYRX+KqxGQaWH+RUEmmq9DYgcFq8c1gk3jOgM8o2IlYNFAmLO6VUlcC96GSolPDqYiy/E2GHvjBtwEeYpQwI4R4ThoaWLQQQlLg0NnYlpwxQ+E8aFQtxqAv1G+O+MHXzjHWQnaF94YEI2zh3YAXHmmCNzkGI74B7Tti+F8/u7oJXmsodONIqhQTBlDYPlhHsAt4OzsyK9F+TETpDsyZAscZx+mfK+qJvmQf37R0hJnWAefQWkuDS4vr0d6upvwm6O4QchJ6TDetZLkLOGhwcQaF1RkqQzv9iENUXh5UKwm2TOCllrcwlYwq2x8QRKgtrUKd6Me8Z1w0n90jjrW6wcJBJwV8O9/AN45j0HSQs3EdiBISu2tCdkoHz0TThxTX/kV5IntZ9grKXXKTFEpllMSI1T4FJ1eFUdTq8Oj6bB5RWJ30nRw1T2AQDBaCevYp+zpRghAyAEv8nHm4mHJQtnDshgkrdYORgkIIiHeFpVFsE98xF4N8wEVGYDiooADGJkyZ4Kpeco6DV7oe38E6A8DJ0HwtT9KEjdhkJO7gqJTA+2RAYLPIuJ3XXrEriJwM1L4ZDhFaZslsCJmawXfViHXrnO+bhfE4PvSYdHwzPLCvDCcr8HZzjNEiaCugdwS288DdstJsNRXRPwyKRsTgcdY14NZ3Tb2Tu6Ds/KL+GZ+TB0dw0brQ7motuTYR5/I+QjLsRHq/fg+eUF2FXp9h3CrbFKJaZlP7V/GircGlweDaUuLzswl7tUOFUNDo/KTsuqpqPKozNwoHTxLq/KuWSq3BprKavchtkyFG2l2BfS7SY8Oqk7pvVNjhEpHUwLxOOA589P4Vn8BvTqPT6wHD2AUF+UBHY1X9ZRtnRbEyB1HQSly0DInQ6FRGBBMUEr3grP4tehl2wPezRqyeIlGeZx18Iy/oZ91hWUiYGcBefvqMCl325hNG8g8uDFJWB+oDewgdNaY+tpMDiQ2HHy7EHpuO+YbkiyxhgWw5597eRFdctCOH+4GxKHLbGrbDtpefSaSZELvBlRHPTRV8My5kq+xdCBSvwkr/y+G8XVHvbkD36tR6t9El49gXIlpDdaIfkyEYFapVuFVwMqCTQQQPBocHpV1Hh1VLo0qLqGCqf4WaVHQ43by7+rcKrsE1Xu9MDhBaoZbBDw0OHwGGTWotfZSRY8OCELx/VKjREpRWt423I9ug6VEiXNfhxawd+12qdwdcuBYY1GHpDGnd2MfSjQn0aGFJfC2gQQQCjZATgoa2P4K7JWl69YYL/8S8idiTq98RIUQKBXt5Y6cc2P27Bmd02r+w1Ec24J32UhblIp3n1MFi4+vPFNKZrfjdXVehJQC9fB9c10oGhjrcU6WurD1utVaF+u3bSI0nXkZTCNvRKyPbm2klKnB2+t2MM5UCrc5LxIvwp/UwqtdfS0hF8vGYxeadbIySh0wK2RiUJoF+iS4/DqrHkgkEEKBnKcpt8TaCCwQUCj3ElgQuOIqq6JVlw6pCMSrUrMaTH0wWxXb5A/gOeXp6FumgtEIb27PwOrCNFn050sA2Y7dBeZ7Q2vGeGdEC4QCVbI/AUdULKGwnbxxww8IgYIZU4vnl9eiFd/FzHiLblVBNvxcJ7zkzuLt4/KTMC3Z/cT+SBi5YCRQO0SrCyCk3Is7FgWQN5leMccMN1tsiMGQDANOwuWcdezA1T96/FehwdPL92FD1YX8wHLECFs7pEmm1TvARmbrxsSfW0eZXXlLxHvg9/e7P+4DlWXGDyQUzb9SeBB0yV0sJuY0bXZd/BQRRV7PmoS0GvKWIXv/fNj6O7qqAy1mG8ijJgOZyWlGyxTbgfi0qAXroNn7fdCU6GpIpohar3Zd0UU3kgRFKYjztvv14LWINC+MGNrKW74eRur6sgB6MCBCYaMZPTrYMPCiwfWboQxoNACs7WlPuF1Ce/fdTMBze3LrS483OmwOKgKMbj1mwzLsf+G1KFHA3BgyKLU6cV/5uTih40l0EKMBIhEnsQwt+PG4bCZm3u7pFtdPQ9ERpMBsRAEjuT6RtJIehd7t61JgICvpLrgWfElPHOeZHAgYGR0imG0otqspz0DZcAJgtZY9QDOMmjbl7HDtJ6/OiDUPzrfrl8LG/stCbDfvACSLSk6AIFq2VTiwr3zd2LeDrKBHEh6BL+MiOXx+3MPFYdGjBeheWZoa9RK8cxzn4b3948ATw0RgLRGK1r1m+S5rOgaO/crmYfBfNx/IWcNa7JN5BR4wdebsXxXVYteCnbePBxWWWaw7lfoCWNQSBs3Ma35vMCb7GzsgYNSAhwdsGke3F/eCHhdUZWBYTigmatk9IH16u8BVxW0nN8hd+wHKS1LnKeaDnXbYngXvAgtb6WY5YoFyqATIcV3gGfVV0B1SWhz39cTv+FC7HukObSe9EiT/Qxag0A1VXs1NjE8u6wAXu3AdOo6JjsZn5/Zt0nBxR5oRxJQvZwy1b3geWjlBb6sAwfm/G1qVJg5Lb0HrJNug9x/su/xpo/b3Ao3LvpmM9YVE09888uOWpR/y3AojR3squpLwS3XTS4TcPMPtOoaPkZN97Ip6cV+f0BKQPNC3fEbnJ9fB8lVGfUuBjopWk64H6bBJ0Nd/T+4fr4fFOpoOvQ4PrCR3gOyJZ61eeqO5fAue5fBinn8DZBSusH11c3QdvwWsi+Q/yrECQ+YpdF+0UdQgrgchAQQSHJzt5fjnvl52LxXpKQ80Aplmnz9hJ4hXlEONCkcOP3hm0HO75xPXctfVeuQejAeFrw5JHaEZfyNYkMS7O5BgARx3P5VWIWrf9yG7WXRvWE1NttS7Sasv2aIzxeors7Au2E24HVDN1mhJKQDson/Jylm6KS2NVkEKx05X5ksgKTw7/i5mG/RgbO4o9ATCnHWti6G87s7AGd5WLfzppoR6HYopfeEuf+xUDfNgbdoi89lkewOiVD6HwvT4JMgp/dk/gPySdCcFWwGUDfMgpsyOpbmhXzuBp7S7APRcwysZ74AuQnzAu8PwfAgBApgd5UHDy7Kxdfr93KM8YFmaLhkSGc8NkmofGKlnUuAcnlQ3PCcp+BlGmVx0IjovgMP3NYfrbo9lABLHCzjroWZwhmNQjJhtBQcZJqbU4675uzEtlJXLdiK3kXB7zJ8bM9UfHBqrwYTUPe64Py/86Dlr/Y1W+LNFZZ4ZqCjPlIqXMlsh2RPAuxpgNnGoWKSNQmSyQyYbKy6JT57WOyQCDiYbb6fmwVpzH48u9v5qog134gbqCmFZ90MeBe+BK1yd0A8W5RFRP565ObCDrJM6B9wyPvD/3m9mu0w9RoL04DjIXUdDLlDd16bauF6qGu+g5azHNqerT4HyuD2sEANAs17y4kPwTz4RA5pbqqEDBDoY0Sk8uSSXdhdQ+xzrUPD2lTHwv39nUd3w41HdQn39dh7rSqBgJsmLcbqPcyS6Fn5lc87OLgF1apdiOLH/apN8sNTYB53HQMEIisLDg40bAzV+d2GvXh08S7sKHf6trrI5WpAA2ME7xjbDTeO6Fy7lRrt1Utz4fzkSuh7NocsKdqcaQNmZjqzHbIlAXpcMmTSMtiSmJyGwQNR3RJIIGBBhDX0J4EJeoYocOkZepZ+R1qLoOFVyE2OvRAVCfgNToyHKcqvvADeVf+D54+PoTM4iHwO77OpBBCMiBm6nNDeRIiBHWEbhjXyT+xJsIy+EuYxVzCRGzs00lwr+Bvq1kVwz38Jkh48+6vROzlzCKynPgmZHJODKCEDBKpzR5kL/56Vg0W5Fb7FceDEMzw7pTvOG5zRQHTE0vZHQTUGZdiRHMvZEMTUauVHvE54FrwMz7J3QbfOlogvbuUeN7xt809E3LV5zOWwTLyV1e0CHYR/rFHq96/W7cUTv+ahoModla3VrzsQHgNfntkPY7MTuZmBjMlMYPPtHdDLckMWdx3ARBszb9yB5DQ+bwVuDIEJmwARZiuTScGWKIADA4R4AR5IA5GQAbnLQChZR4qNPFz0FXKPYi8EJ4EAWj46nIs2wbv8Q6gbZkOrKaldJcHVFcZTPM+M94x1J+ZafWAi5iiRI6XCcsrjULoO4lTPek0p5N7jIHc9HFrOb3B9fCUQEkCg9MkmTh9tOuqfAugGUcICCBQb/Nqfu/Hi8gKUOiluM7LcikG0s8Ue+eS0vpjYw08YY3y4sMqNu+flIsEi45ZRXZCVZGuxNsU+FLoEPH9+Avecp+uwjh1s+7ax2ZiGnwPrhJuAuNSo2eBr3Co+WlvMFOzElxCd4tdsrLhqMLomWBtU6131FTy/PAW9iuhvQy/ivkZXSGFaEQpe8VM/jY0/cwNv1rXJ5o3bniCa4ZdkhTdbYrqTe46BeezVvLnHShuUgK5BzV8Nz9xnoeX9Bd3jzy3UnHuDZE2E1HscExNJSV2gOyuhl+6EmrMc+q41daImeFqRY25SV9jOegm6oxyun+4DSMuRdgjkroOgF2+DmrsyaHp4Q3ugdB4Aywn3Qu42LOh9ICyAQENPWoRLv9uCdXscAcurDU6KEJs0+/yBGNzZzhtAIAfC+mIHbpqxHRtKHKxFuOeYQzAiMz7E2mOPt4QE1Nw/4PzsWugcElTXDY/Ve5wFkBTOdVL7+G4SYjn579fieOCjy1hpPnUh/TNaGd6iJReiTzZu3LTpmQZNg2nCzZBTs4PeFIJtC1Eyv/5nEV78vYBZCJm62cezGmwd9Z8TNcjYeO1hSLE1tJF6lrwBz+LXAGdFWJ/YlyLZaDlVGvj3ff3bmCP+P2VIFhuU/sfBMuEGyCkxP6awBqgZX9KriuD64R5om+Zx0iNjbJvtk7Qe0nuw9s7Uaxz7wUCx8c1fdzs4SZNODtTL34e6e6OP/8C3Y5mskNJ6ALIMrWgzwMnkdEiKhc2lukbJo/Zf/Boz4vFQOBOkaexVkMlnJ8gSNkDQNQ1PLSvAK8uLUENhR1FRNAbZ6ig+Vmvb9NW5+soh6JRIG1NdFexfBTW4dXYO1u6pAWVqSI8346YRnXHhkAyYQnDyimLTY1U1JgF3DZzf3AaNkHlVsSAikeh2KG6CYkOnRehjLPPZB2spUH1P0GFHAFGoBslm6NccC5RPgEFtcpG29CAFWjSVQ46CZcp/IHcZ1Gw8AKRJeGhhHt5bvYedliPXJYpx2nL9MNbW1S+u7++C96+vIUWBAjdaYyMsyaKtsqwITcLkW6F06h/zToiWkKNQj1a8BY43T4XkDj8LYijNkJIzOQEa8RgQ94q69geRSyEhHeZDj4XUoRd0zcMaATdFWW1dDE2jnUqEEfOcIp8FjS41jZsk9tUesd8R/4fCPCI0F81T7oDSY1QoPsmhRzEENqiwyoOTPtmAnRXCWak9FnEzpMMAiLfKWHrpIGTE1b250AYwY0sZHliQi61lbhY8id9qknH2wHT8Z0wmUu0xjva2Mv51oJ2nBlrlHuiOMqCiAJKrCmrlHmiVhZDcNdArCqGRyq9iN3Rnea0yWSZkwHii3pFnsC4yk2jL0KKGJFef+kDu0BPm4+6A0md8SK8H+7BO5EO8e0mocntxw4ztmLGlwse2GL7DFwEvSZOw/aZhsAnkXae4/zedOS0InLWVYmzG7KHu85mgNLpEpyuTWpmiJGKlVSVAa1XbsgjOjy5vXodEo5eKBabh58J87HQGBe4f/gs9fxU0Xjcy5I592IRALKacybEsF66vb4KWt7qOXjMQFhimsGAFabhAUt4H85HnwzJpuojWCaGErUEwvvH2iiLcPX8nKONjeyx+DYKEjnFmzLtoINLjxILmHvGBIOHLdXvxyJI87KogpyxxBEmQYZZ1HJ2dgJtGdsXhneIZNMRKG5BALUrYvzMe/7Z27uqAowx6ZTE0Tw3b/VSPE1JVMZsrNKJfrS5h9bZWWcTaCYlUf5pXUHMzl7pay6lO/25xB0myXyZ2gWX89TANPaPZB8KQLjkr3vBzDpbklvv2gvqK+qabwt4BOmBSZGy/cRhMjeRdd34zHerDbsjyAAAgAElEQVSabyG1IYAgYKTfmGU4P5LN2DLhFih9xnCIZay0ogQ0D7yrvoX7u9ubvRFseuzYH5Zp90FOOwSunx+Aun42mxYkil6w2mAecw3MY6+AVrhe6DQ79Ye6fhZcP94DySmc//0BkIaZM7RETmJOUlv6wXrcnZB7jg6575EBBF1HhUfFaZ9uYtV7rVqefYDaC2DwOUZJQJ9UO749px/S7A0R/1srdrNDVkmAQ5awLIj3+6XZcPnwTpjSM4U1EDE+lpDnYvt7weuE7qiAXl0MjcBC9V7orkr2OIbHwVoL4nYnApZmi6Iw3KN9KkjEdYB57JUwj7qkxdXb6/c4cMusHVixuwoU+B2a87LhoKjjsI4J+Pn8/lAaAQiur29hVS3ZYdtD0c1xsIy6FPKQ0yGnCr+EpmzH7aFfba2Ngo57P5JV3fAseQueec+0QNMlyD3HwnrWi9A2zYd7zlPQyvP5wCfzgZx9JKxnvwa9shDuWY/ypcI85U4o6b3gePcc6LtWR9xGA7jrZhssQ8+EefJ/QtYe8FwNlSjJ33LRBLpNz9pajmt/3I4qj/BFaC/QQPRFTCqaW4M6xuOLM/ogtZEwxscW5+G1FbvhoERVdYowTxAeSrGZcHr/NJwxIA1DuyQEEGLEtoSIZ3ybraCxjIDUWLE+ap4dB71il0/j1EwrQ5c5zpri9U2jLod5/PXCE7oVytK8Ctw5dyfWFztFiGLQu4FvHULHeYPT8eSx3aHU2fCFPF1f3gT17x/blc8TmR6UfhNhPuJ8KN2PAohTIVaiLwGPEzoxDxK7Zv35T4nafrof3pWfNz9AkxQohx7HbIUUZu2Z/0JtWmfi4LCe+SLkrofBs/wDeBa9yppIy9S7WePnnvEg1D8/jVg2wk9KBjL6wHbSI5C7HR5WnREABPE9aohH1XDb7Bx8vrakFh4HvzGE1e6ovWRsS1Th6KwkvHNyL6TYyA2xbrlr7k68u6qI0782LOL2QwjRJOkY3jUepx+ajml9UnzmihhAiNqAtaeKdKD64QGQVHfztZo1CMKZ0jz6MljG38AkQK1ZKJnbffPzsHGvE8JXIfhC6vkHJ2bjsqEd0YgCAa4vboC67qfgK2wDT7KqmJxc0w6BafhZfHjIadkxXULUxkaHXrYL3nU/C2/9oy6sm6ODvuNxwklzZ/Pc5gcIBAj7TmAg4F0/gzUIRMxEJ4R51GWwTLoNat5KuL67g8Md6XZpPvoamEZfAe+vb8O76OWoSIa0B/y9cdcFxZrY2EcjBggGSFi9uxr/+nEbtpYKnvb2AhAMREP3rSm9UvDi1B4NctATMcz02Tn49O/iJvplAAWdtQnH9kzB6Yem4ejspEbtqVGZBQdgJftSFxI0o5TDRPNb7vSyCjrBoiDOLCPerLDXO9mt9+91sH+BGXox8VRowK7Bd3UdNQ8PhO4VkRTRYGsT8NTfrlpgeuR5TILCdMOtXAgSzNhcigcW5GF7OVEyi1YGsyfQs1+f1R+jsgwNnL8zZL5xfXVrC23yURaiEX5qTYDSczRMh53CfxJFdKyELwGd8hVsnA3Pqm+h5a6AMuA4WKc90LBCjwOODy6BvvNPH4Nh+N8M5k3SEFhPeZzZNl0zH4W2YRakTv1gO/d1wJIAN0XjEKDxUTtaptwB8/Bz4Zr1MNQ/PgnmEw2fCQhx5k2wc3/YznkVckq38OqLzMRQ95sUB/3B6mI8tCgPLi9tBaHdHMLuQcQvChMBCZQYFB8Yn9UgvKrSpeL2X3Lw1Ya9QW1yxhauyAp6plowuWcKzhvUAX3S6t3sDN7PiPtw4FegahpmbavA/zbuRU6ZG26vyuNmUSR2ajPLEiyKjESLDLtZRsc4C8wK0CHOzD9LsSqItyhItspItVtgNUmNRqv4j18/VNgf5DB8bRqzf9Lm5Xh4MHRNaBBCgxuNj6kfIPj9m+VBJ8Ey5U7IiQ0ZQFtrZhCo/nbjXjy4IB9FNYJISQCE/ZlZCB5ImHvRAAxIb6gF0fbmwP3dnVBzfouKLFtDNtx72Qw5uQuUfpNgOuJ8oU0IUIk3aU9vjYa3wW9qRZvg+e09qNuXQivNh2y2wjTyYlgm3tKgtURX7HzrDOjEKcAUx81cbEkwjbwEysCp8Mx+Etr2X2E+5QmYDz0enlVfw/3TfZA8IvpPpoiX4++B3PlQON45E3rhujAbZ+wwIt7BdvpTUAaeGBH/SVQ0CL7Vjx3lLjy4MBc/bi4L+iANUxJRey0wiuHmEV1w48gusNeLRCip8eKOOTn4bhMBhOCKsX3ThhdnltC3gx3/HJyBk/qlItna0IQRXK0H31Nk0aEsgm+uKMKyvErscXjhUQMPGr9zGx3BpJaWGSxQ2KnGGgWTJPGf9HMThfxIGij0xyqLscmIt7BZKckiIy3OgiSLgowEC+yKjo7xVqTYFSRaCVyY6hxMfo1BIJgIGCPVA8cjQ6Bq7qgTKlFoHR22pkOO5OQrHC4l1BRtpjhUDZ+sEZeGGvJPYp+E/RUxlgsvHsjrpX6hrJzunx+Avps8v9tfEbNW9l1IdDYFKSmZUIadDfOwcwBLaCFo7U8C0WkxOQFTqKvnr6+gF2/nzJ506Mv2VJjH/YtBQv2iu6rheGkKULU7Oo3YTy08xyWJybKklExouzexD4p18r8BWzIcr5wArWQr5VWE1Lkf50gx9TkG3rU/sg8Cwkw5LRJBCU2d0n8KbKc/I2jBIyjRAwgcEahjXk457pyTi+1l7YMbQRDe8Iji7nGZuHxox3qhijpyK9zcp1nbykJ2jjJ8HOgzZkXCUV0TccNRnTE6KzFmdtjPxKWw2Z1lLrz2x278uKUUe51eaJpBemucgn4tlR8mcJBRbdRA3WA7v7KbbmxkH6clJWzdpEnSibiMeTFkcvrzESIRsKA5okjgPBzkxJoWpyA7OQ4TDknE8b0phK2Rk9nrRNWjw2pZ0KLFumgEO1EIlfXUpyBnHu67FbWOY2LDYRSx3lRcqoYXlhfg+WWF8BLhyz4ggghxFLkRllwyEL3SGm5s6prv4ZrzNPTyvLaEg4Lefg1YG3h54HmnmCBl9IZ58r9h6jnaT5ATdM0Hx4O66mZtgXfRq1B3rWWKYiMygFayktSZuSeUgSc0BAjOSjieGQMQSVILaBDEGhVgkFI3W854Hkq3oQwciBdB270eki1FkGnZk6BS1tlvboN393rIYUcA+nYYazzsV30POTV804IhwKgCBKqUTA3k7f/CskJxa2jzugS/9/SbJ/XE1N5pDQ7urXtduGtuDubnEJFO5EWRZEzrm4ybR3VDr2QLq8mFw3a9QyYSY3rkzWyBGup2kP7lUnXsrXbjzZVF+HhNCcpdnqjIvLk6k2AxY86FA9A92dLwEx4Xqh4/HLKqssEtXIAgtAUGGBLgR07sCOuJD7EzVFsvFPlz7/xcfLx2D4MEigXXpIYmSOFuKeHXywehR3JDgECUtO4FLwE1e9slQGhqnPiw6z4SlqOv4cNEJ7pdRqwHWwnQzWkaJNXFfAHuxa9D27IQmkYMpnUTHfEbaT1gPeFeKL3GNgQI1XvheOqo2si7lla0yb2PgZlojrsMZOIswXFAFw8v51Vwz32a2V+lEJ16AzsqIhdMME/5D8wjLooKe2p0AQKziOkoqPTgwYV5+GFTKbzEG9PIZtCWpjxFp1L5/Mw+GJuV1MB7et2eGk7UtCS3Mipwx5icZDs/o38azh6Ujj5pNqRYTQKctPTsbeXBoEOjzKkir8KFL9eV4MO1JXD4wGUrN63Jz9tMMp6adAjOHJTe8Fl3DWoePwLQRMbDcIeVckeQqUW8r4tMb5NuhTL0DMiUnbFNFwGpi2u8uGtuLn7aUgryTxChwQ3hdsd4M2acPwCZiQ0Bl2fuM3D/+jagkuPjgVcEECQXBRvkXmM57E3pMhCwp0KilNQHfDHmA3Gje5lHRC/ZAc/yD+HdMBvwRQM15uxLspMz+sB6ymMgFsv6Rdv5BxzvnlurAW7J+RPoWEx+BnKXweyDQhoRvWAtAwTmTwlIHBbOUHM4bc/RsJ32FBDfyH4URqXRBQgBDViaV4mHFuZjZWE11AhQURh9CukVH47jmOsfz+uHwzsnNHh/0c4K3Ds/D3/XkkGF9Il9PiyUBhLbvCf1SMbxvVIwqGMcMpPIiY6U3wduIVVzjUfDrkoPKBHWzK1lmLmlFJQASPj7+5npgvF+by1JxZkUvD6tF471mRnqjJmzEjVPjeAoBgpDDF+DIO7W/L49BabRl8E88tJ2dmjoHOF015w8LNxZDk2jy0RDLcLRhyTh1RN6IyOuIfDxzHkanqVvifwaB2ARd2LDAAFI1ngo2UdCGTAVSudDgdRsSBT1cABvDLqnBnr5Lmi7N0JdPxPejXN9bKR+I6IBlAOnAAPwzoNgPeM5yB26NxCRd9WXcP3vjuYjLNvPfKzDf0jOqKRF4zwJhh7EeKJ+jFKIkzw5E9YTH2SSpmhpnpoNIFA42lfr9+KxxbuQX+kSdp8mnZRCFEgUHjcMDOQ4+NVZ/fiArl/o8Lp/QR62lpJfRTSMDOILfvu4aAV52B/RJQHjDknC4Z3j2ZObbN4HUqFL4+5qNzYUO0GhsYtzKxhEUqRIICjgxeO7NbdlgJBgMeG7s/thYEd7ADWqGDFK60oAgXgQItEgGJSpkiUBpiPPgWXMNWy3bF9FSOCvwhrcuzAXv+VSNka/T4mxFq4c1gnTR3dlp9D6hRLaeJa+zbfLA/GM5GOCxRS4x0jQFRNrEpSeYznxltyxtwhdazTHQyQzLfozqvHW1HPv1TToNSXQ9mxmNbu6bQnUvFUAUZvXuSj4R70+SGDzTNfBsJ71Mt/O6xfPghfhmv+C8CuK4h4etMQ4R4ogVRN7v9+x2X8aCMAczNyufwpRSmniPDCNuBBExhRcLU23vtkAAn3a4VXx5oo9eHbpLv67cFyKPN9b090K/gljuDonWPDJaX1waEZD72lSez+4MB+F1RSuFj2A0FgrCSdbFRl9OtgwrEs8hnZOwNDOceiZaofFt2e2rS1gX7I2Win+JABAmoKVhTVYvbsSq3bXIKfc5YtIaG6pBj8fQn2SAAI51dH8qV9IRVr91GjIvjDHUOs2nudNRTbBPOQ0mMbfADmxU7hVtYn3/iyoxt1zd/JcMPKaGAfj01O6MxMprYEGAGH24wwQIrHTtgkBRNAIncIjOw+C0mUAJAINnQdASsioRwzU2jtEXQBQ/9AzdlDdWQW9eBO0/LXQCtYyOND35kCv1RAFn3uAnlS6DYH13DfYBFe/ECmRZ+WXtTqaCIagTbzqP4UIeCgw9ZsM86RbIKf39Kc8iEJLmw8g+OZImdOLZ5YW4I0V/vCStnYjJJDQK9WOd//RG3071HeO0vHuX0V4ZNEuVLrpltu8AEEsJoFz6djMiDejd6qN2zWsSwKGd4lHVrIlYANt7c3APwsDW0J/JzIjBgUFNVhdVI1tpU5sL3Whgs0IBm5uCYlGYaXso4okq4KN1w6F3AgPPGWKrH5+ogAIvhtEOC0h26Kp/xT20EZqt6BuGOF8p+Xe0bEstwp3zMvB+iKfdtG3rX14Sh9M6pncKIuie9Zj8Cx9R6hnD8aiS9D4IkohURZQOmHyVCdPeKnrYGF7T8msczsN5jYafVH6Lwf+hEPiK7qjHFrRRmi7VkPNXwu9NAd6aR7gMDKpGnCirhNiU22kL5I5xnrBe42a3pwfXgp166Law7NVtAhNdSLE31Of2e+gU39mZ5R7jY565tDmAwgBStXiGg/unpeHbzYQE6FfsR6iPJrtcWrRgAw73jixN3o3El710vICPLo4n7PUNT88MJRDQk5iqclM+pNmN6NjnIJeqTYM65qAI7smYFCGHeZGblvNJqz9VawDuypdfDOkW+LaohrsqnKjpMaDMp8JgZPscO4A3i6aXSPT3HJIsZmx8dohjX5G3fknnP93vsjuGAGTopR9FGynPAEptVtEpormlkXw9Wscsjo/pwK3zt7BTs3GtvDp6X1xzCFJjSY7I0Y67zICCC2xCoPvTUs8WXvrJme8+tcUs51vzXJcBwYIpuyhkDodCrnToZDiUlqieY1+g9tMGU337mBAoOWvgUpERZVF0CgShdKrs6OqX93uJyULXntgXDWU3uNgPf+tRtXrjjdOYS2FUVoHOEV3KFi+8emwjLkCpiPOY16NyHhkG7avGQFC3Y/RQXHrjB2Yl1PlPxTIJhN2zGe0hC2myqjMBDx/fA8cklI3kQrlmXh6aQGe+01wabfO1mSAKvEnsQYSW2CC2YREi4ThXZNwRNd4TjfdM9XK1MNGCWRlE38XOSOaWiDB6CUIMO2qdGNdUQ2WF1RjZUEVdpZ7UOPxwuHR4VQ19r73GxAC+xH482iNZcvXk2634O9/NZ4IRd26GI6PL+eU0CJeO7jZI7ZMn2Nihx6wnf8m5FTi7j+wCkWv/LS5FP+enYNyBpDAF6f3BTkqNlDIuKrgnvkwZ8ckvormLsZFpnYcFAuk7GGcMVDbvowpv6nwmDLa1TmCK9BmHs021jXYiZrrS4HXtKRAt8RDooRQtkQmYpLJDNGpHwMGcuCDYuZ91x9aHcxqr/vNxvcPHXrNXmhFm6Hu2QJt1zrohWs5LFUn1kDKcEqkRr6WN3VVbGqPqiNf2QwTMYqe+kSjYne8MBF6aW4jPh7RHKWWqIvyQdIs0wDFxpwPlMq5uYBgiwEEEt2OMhdunrkDv+ZV8EITfoutdej6B5OyXk3skYwnJmWjW1JdWzLFcD+1tAAv/S4AQlsqJENdJz4ucogVC55s4hQy2T/dhkPT7eiXHodDki3olkTAZ18bgcb17C9dan65B7lVLmze68D2vS5sKHFi7e4aJjAib0LaL8m7pG15mDT/aKXHWfD3NQQQjLnh39Y8K76A64e7OdZZDsHEYLDtcTjjRR9CyejT/B1ppS9Q8rMP1xTjnvm5TKr0xRn9cHQ2OVnVLeTZ7p75CLzrZ7awBoG2YglKUidYL/sC5AzmXfwa3Eve5DS9rO6XaN5LguCmBcBLU0NlAEy+JtAeIfkjonRJgZzcGVJ6b2b5I2dHMlXAnszcGpRpUk5Mh65YG1wiKFMiheNp1WWQPVXQSvOgVRSyiUAt3ckhiXCUso8IHWKKpkHjfd5vUmyq7WH/3hwHxZeszPArC6yr+omjAMfeZgNwYbc7xBc5nJPmG5G5deoP23mvQ07qHDWnxPrNaVGAIGhzqzlkkGzSImdDW1AzSzjz0DTcc0w3dIyvCxDIh+KJX/Pxzso9viOg7YAEmaEBkfAYwZp0PBt/F7I1UDolNuoUJyiFO8SZkGxTOLSTNBGpVjODA6dX5QOfbhcVTg1lLi/2OjzIr3QzwY3hZCoIPmjj8QVm6YK8hzYD2iT5p7xRth1ZhbgOg348M8GGFVc1jLumCtyLXoV37vPQ4PVFuAdXLcO4uDRYT3kKSu+xUSE8Ce7LrfGUDpdXxXO/FfIae//UPhiR2TDUWM1fDQ8lstm5ouVC1cjmLyugOxtl2rNMvg1qwVp4ydmNPO9lE6vO6WDUXFUMlCW+mbfuvDf4FALbYoAGI26EWf58O0fd1goiK0iNQ33eX3xJgUguBD5omdO3jCAMce3zcTq0lL+INZGTlZEXf4N7kK6h+v7+/v2qNaZ5FL7J48QMsIAcnwrb2a9C6jZ0vxe7SD/bogCBGkud3FnmxCdrS7AopwJlbpXTRXs0gBLyuDUdqgY+kDyaxn/3Z1iu68EgDj//f436/QGE9ZVUjS1coW6/5ojOuHFEZ87CGFgo0cxji/Pw0ZoS349bd/Hvf8D9pgMjZLChfkaortlWxWQ1dMkgYhKfH51PgRXYS7EhNOYY1rh8xU/9IT2RTtK2/H7XBCtWMkBoqBClNK/eJW+A/C6aUuLWUSHHpfFhRBn/oBwMBDlAqdOLL/8uxcQeSeiVRn2uK091269sYtCLNrbYdNB1osrVICV1hvXaGZAtCYDqhe6uYts6cxKYrVB3/Abv/Gfhzf0LTPAQAIyNXjQ1/tHuFGkE2e/Ft5ANnx9D4yH2TZqX4iDnXcFHdGc41Nb3AqgdEd4zAmasqFwUju2nogntCv+sBfZMeyos0+6HaeBUoyG1TaKUyo4XJvsSCPr5VaIt8+asT0jQd9ZZk2CZejdMh5/a5L4SaZtaHCAENrjU4cWeGg9KHF5UujRUuunGqqLaraLc5WW7ZJVbg9NDAEJndj2y/Tm9BB50ZmQjh3iXqoJUlQ6vxo6EQjNhRAP4JqdxGPoDq3zRqELot4/OxBXDO3L64MBCNvaHF+fhq3Wknmo9L4RIBzr2fvNIICvJij+uEACh/iHg/OJGqOtnMMIljcr+fBAMvxAyK5hGXATTURdAsiU1+wbQPFIJr9Yajy6yczbCLuz9+yc2MaCSoqFa4MDhiAHhN2I56WGYhp0FuGtYg0HZJMmuLmf0htJrDKvrUV0C5xc3QN35e+1GXgty6EDlfB4HafRFeNMhpLf0hAzYz3wRcvYRDd6j/A2u9y8McIUMqepWe9g/y31Ai8zA1jiYRl0Gy7hrKStds7etVQFCU70zNlynqsPpUVHmUBkYUJgc5Xyo9mggH4FKl5fBAnnKkzaCYu6J058AA4EF4mBwktOcV4NTpXcF2Ah85uGJWTh3UDqnDA4sFJpHtNE/byn3wYMW2JyaEkzs921GAtnJNvx+eeMmBufHV0DdvIDPs6YAAsNZawKUIafDPOYKTvASLbKTNiOsJhtSR49S52nvH5/ANfNhSF5XiwEEShylZA6G7eKPeSy8636GZ8FLUPfm1PpBKH3Gw3rqk4AtCerWJXB/ejVgsggIQ055tXkDROzBwRiB0eSwR+EBPbET7Oe9yQ6Z9QvxH7i/u11k0mxHY2BoDWqdyk0WmIedBcvE2wAr8fWE5MYZlpTbNEAIrUdiczEs7x6vhhofQKCkUQQKyMZe49XhZnDhAwgeAhEae06Tc1/9eHaK46dEMwtzKtqcD0Jo8ok93RwS6JFix7LLBjVatePVadCLNvHvjNm5rzaQU5h5wHEwj78RUtohAe80R6vbep0NFfKePz6Ge8bDnIeBSnNvjaxelxRYz3kVpr4ToJcXgAAfxfD7i9A+2q+bBblDD+hVxfD88Ylw9iNVe9Ue5tlXdyxjYNPUHGjro9Km25fYGbaLPhRRGvUKJULyLHq13QEEY9/gy4NsgjL4RJgn3AwpqUvjyf2aYYAOIIDQDNIB8MeuKtw1ZydWFRmsb83znVit7VMCfdLsWHTxwABHIf/h5nh+giCBacQGG6g+ZLfSHiNgPeF+HxNa+5RFc7bas/wjuGY9zLTVzQEQjPHwJwSXRAjZtAcAilxY9BLcC17mFOHGM9wOWYH9xnm8abO2wFHBSXhgT+TAVq1sF9RNs+CZ/yKH+MU0CM0zSygSw375V0BCwyRFrv9Nh3fV134bfvM0ITq1+hxAAxLTMxo29TuWLw9yxz4t6rQcAwhNDOvinRW4/ZccbCklPn3hCxwrMQkYEjisYxxmXzDQF1cecK/VVDhenAy9LLdRYRmziJnQkrvAcuEHUNIOPK6DaM0U7/IP4CIfBM7DEP016HcC87XYZIX17Fc5O57udsL58iToVYajsv9uZxp+HsehkzOpd+tCeH/7P+jVpWwiMg09E0TeQzwY7r++gmfmQ8LbP1aiLgEppRvs//oZMBtMuP616Pz0amgbf4n6N5ujQsMMwqGpvogwmoPmiTdB6TKoHqV2c7Sgbp0xgNCEjGduLcdts3eguFok3Ikt7+aflO3pC6f1T8cr03o0VHlrXjhePHa/AIFti9YE2K/+EXJK1/bU7RZvq+e3/4N7xiO17JvNYWLwgwSJHUXZESwuBZ4vb4b77x8hQWQaNcL4JJMN9os+gpw5GKjeA8frJ0OrLhWRDLLM2Rgtpz8HU6+xnIGy5rlx7MwYK80ggbQebOqpz+VCIdvOd8+FnvtHM3w0+lVS5IyIGJM5ZFzuOhDmKXew8yVpq1q6xABCExL/buNe3DRzB/ssxEpMAvUlcNaADLx4fHefGSHg2FLdcLw0BXpZ3j41CHzAXPE10LFvs9vU2/vIeZZ/wGGORE7EfANR7hCDA0EzCtmeDMspT0DpMwFaZREcz48HNE9tJj4DJFgn3ATzyEsASxycb58Fb95fvvBhETJFmg7zuOtgHnMlYI5DzUuTgb07Gml5YDBklDt2UFQnQe41FtZ/vtso1bDj5eOgF29tN5JgpkQKsU3vAeu0+6H0GNlqbW9zAIEiD/4mDv9KD+xmCYkWBelxJlhNCkyysMxQoAH9TaHQMULq/DPf7yjxHYUn+f4MpGxt6Pq0f7nT85//XYwbZ9Cibn3Gx1abJbEP71MC/z06C9cfRUxmdQtRyzpfOb4WIAQeQHwW2VNg+cdjMPUZ3+Jqw/Y4nN7N8+Ca9ShQLA5YsZYFv0S0gr2MGAPzqEthGXfd/7f3HeBxlNfa75SdLepWs2xLLrg3XLFpNgbTTQvGhlDSLpDAD+GSwoXcS2i5kJAQuEkowSEQQkkcQigBY4MN2AaDMQbjhtwtF0lWW0nbd2b+55xvZ3cluanYWq1mnseWZe2OZs58+33vd8573pd1DoLPX8ckQ0svIC6CnV0C5zd+DWXgVBhVXyP4x0tgGC27FChN7KIMwqhz+Ir9j5zKGQQeC7JDSCEXDGEZZEl1w/TuhU7CS4FGSCGfUCjlhAWpnHauRTLZZph2qXyQxkNPHAxtrlmCMmEunJc8mCQOl9CE8T9yGtBUmZJ3akl5M72eAarQplD6DISDdB2GnNKt151yAIHaFZfu8OKhlXtRXhtgSUlL/YtUDhUJrAToVmVWA8zSVGRqEnJcKlyqjD5OFW5NRo5TRbYmw+WQGTxQfzUBB02W+HvyMyDA4VDE9/RzUhak760PjT9iYMHn1WzUJLoj7AJDt76QWA4AACAASURBVI7WFPzlD545EN+dSC2JrQFCCMHHz22RQRAlKglSRj6cM26GOuEbAInt2MeRI2DqiFInw/InYTYdiNvGdxU4sEAHwQ510pVwTLuOF+zQqz+BEaAW59iaSkJisgOOmTdz9kCSFPj/NA9m1aYWCn5sP1w0jFsgqfVO37wUwYU3CQ6FwwN54FRo066DPGg6yxvHD389y0lH1y5k4IFIUCwcSfmLIwcr8YrkGUtSnFz+MMwowyuh6p8GhyTDcdoP4DjzP9veTDQE/6+nAaR0mYJHy42DaISV84fAecHdkAefckxVEo8mHCkHEIjDQ2qKS7Z78dtV+7DpQID3CSz/SUt0zBvlYESlg3VRk6+8xyGxQqJGAMKlQFMUBg8eTeYMRYamMNgg0EH2vfRVliXU+qNYuLEGq/YkBpcNEo5mWPWe1yyYMxQXjbAc8ywNSUAK+xB4/AJeZBKHBLhzoU79JhwnXcdAwT7aEYFoEJHVLyDy0QImDIoMQtcp41kcBPJmkUsnwGys4vZGUnIl/oH1u+SSsXCedxfksqmIfvUmQm/8jM2IkuckKh9p5/wUysT5QMSPwIIr2NUQqgvq8DOhzfx/kIqGcWukWbMdpq9GKDP2GQipTym3x0aWPYbo1hWQuLWzY5uTeDFGcUAddS4kzQO9fBn05poepQlw2FEiydAuvA/q5CvjcbK0A4zqcgQXzOVnkIpHfMzRxVHmu2QsHLN/AmXwySlxuSkHEKyokDbB4u1ePLpqPzbV+KHHHNMSKTGBthL5BbEHSP4+WXi4pUiztRvgp5KkbyDOnumQoCgyIiS2RBrQsUM8zI59UI/F0+6freGyEfksCPWntaQw1/1HgcfBglPkYbGyogkkNJVuhzWuaAQuunoMJvYl0ZLEWOJRFPKBdBAM756Ed6YzE+r4S+A45Xo2ykm01qVbhI7h/URDrDUQ/vAPbAxkeQokdyF0qssh7swoniczyWM7eP7e4WZOAf0xgw0IvfwD6Hu/SpoXxJXQBK8Ruax4FAOa8LJHIOkRyIXDoF3yS8j9x8Oo2ca+DrRgkxwwgUe5dDIck+dBGXIqhP/EgzD2rI2lnsX8xPcXGzzJ18bzH2+gEo2Y1vdyZgHX6OXiEQg9dw0iOz+Nz3wiQyuxMqTkzoFxYCvg93ZeIjkm9yw2bontW4JB0jkuiQUCyIDKdeUTUIbPajPw9G3LEfrbTSxalUpHy/EqPBakwacwcFTKJietON1bBEpZgMBzbNTAezu8bLW8vjrAjoPkmyZIQr3NN7Dt8D6lNAv/mDsCNYEoxj/5RbePf3oqowo9WHbdGGyrD+K+D/dg0VaaxNPnEFNvTOTeNLHqe+MwKNfZRhLZDDYj+OTFML1EUpRgqhoL7rDQSf7gbk8d9ugnEg1zX3toyUOQQrQztOaCpAX0GNwgO6eWTYZG6d++oxFZ+TTCK54Egt54WZInflc2tJm3QJ16NWcgQtRmR4uuwwXnGbdCnf49mE2VCK98Cvq61wC+h1h2VFGhDpoG7fy7IfcZiPD7j0Ff9SxMUmWECXXCFbzTNCo3wty/Ie5FI5ZfAjTkoGgpBiZZM/UdBeflj0EuGITAHy+DsX9DXFiOR7TDA+3sn3JHBrWTmrvWdBggxPkOMbCSgM7iocRLbZ1QNWzRlkpaFCSSdBCZ5ciXryL85v9AigZjmKrrMk4dHWItrp1OQiJII89mBVWFlCC7oVvhUPeS0gCBLpo4CZ/t9+HuZbuxnsWKaNweyjyoo4+sZ77PBgjH/7klZw9oYq344WQ4VOGyEMf69E3QK9revPuFtXnZZDjnPGALIXXVI4tGEN22AuHX74Tpr0nyPzg2Kou86JHFbtFQOE67EXJeKcKLfwVjL+3uEx1O9OiVoTMTC/y7v0Lk079yiptKSp4bXgOy+yL61esIv/OgKC0kGScx6dLpgePk78Ex4xZEN7+DyOKHYlwWE64b3+DW2MgX/4RevhTKoGkg/w4j7INZWQ5950dAJMwERKvbghdoVy7kkjGQckoQ3fwuEGxIclwE6zZocx+FUjYFwZeuh1G+rMNPKpE2p+2cACvJh5xVDGXUOVyiibz1c5h+4XPTniNxRmKjq3B//3XOzrQ+SKAqtOJJyHqYy9OM7bs5CywAkmhjhOaCOvZCEDEW+UMhHQd/hfbEOeUBAt2MbgJb6wL4r/d24+OKxtjAt7IJ7bnd9HqtDRC653kKyhjYbHvfj6Ye9CKIexB85irojZWQ8wbCdc3TkPu0lYHtnjtIk99q6jC2fYzA63fETJyOXQYhviDJKltxE5eApJQRbck9ICU/zh5MvhL6vvXMTyB5ZipV0ALtvv5fMJqrEVn6GKJfvMI8inhGNN4DL8Ex7hI4L3mI3xt+/S7olRt51GXcuY4zCcaedZCziwHisSgqu0uSmZTRWIXQ2/cC+9YJq1aymxLdm4KYKCswWWwq8X/8k5wSuL7xCOSyySwpHd3y/mHNxY5mBLHmpKwKYJJXBpNIl0YU2qwfQh58MiRXDoLPzIOxt+PZTz12T+5bl0HOKWlzWfqGtxD67EWgZgfgqxGCZilAzmSnUHcWHBMuhzr9u5CySZ67Kym3R/OEjvyaHgEQ6DZogDcEddz3QQVeXE8sZsHDtRJWqcMMOHLQO/oKa/c6e0gORuS7MTDHhatPLEAgrOORVfv5Q/9llR8rdjVxetAiVBLTusit4MqxBZjaP5MdK/c1hrF8dyPe2FKP5jCxmmO2z6L7ic2FyLjqrCHZmDUoDyfkakzy3OMN47P9TXh3eyN2eYNCc94ERhd4cNaQHBR6FNwwqRh1QR3vbW9AeW0QO71hLN3ZwC6d6XRQfCpus+qF1igVi5S+ew1Cf78ZZsgHz03/hpRbdmy2tukU0I7ci2mIWL/2X6KOH+MNGLGdYldXcFvPM9b5WdrGlCGTZPa833MtP/LOLxBZ/RJMI8ypf/WU66GdfQeMXZ/y9Rr1u9u0GVpwgay+tUsf5nuLvHUPjOrNkAecCPf3Fgpfdj0CvWYrjPKl/G/lhNOZ12AqGsy63Qg+Ox9mE2VWxKEMmAgprxSIhqF/vYQlo9ld0uGB5Mll51DnhfdDLp2I4Is3MECgw3IgTdx3rICQW8ppcYVaND15MAMNfK2UeTCaD8RKHwYkclmc/zik/EGIfvIc4MqFOuUqUEcFZU9C//wR9B0r41yS9g4BylBQq7v7x59wzNsihAhLXHOWR4/A9NfztZqN+2H66mBS2ymRUf21MP1emI37REZDF50egn7SmodGpRyL6xGbZbnbThxC6Cj273hmUUAyq11WdmczF8kx9WrAmdne2z5ur+8xAMGKCLUePrWmCo99so8NmMTjSQCF4xa5bvpFNMwePW8w5o7O5wFpYU5apGlSfHpNFe79wJL3lVkr4vKRBfjVOWVwKhK7YdLAp3ZR0opYVx3AjW9ux676ANcu+ZBMjMx34p6ZZWxiRSHmt9HwlgBFkrGjIYh7PtjDQIEsuK8YnY9Hzyvj8g91gNDL+T0mta024sfv7kRls9DR78mHqPMKAOVQVFTcNvGgt0O2wMHXfgLXvMd5Em3RA9eTA5CC186zQMUahBb9guvyNPDIqpl2il0NEA55+9RllZkH57k/gzLuYuhbPkR4yYMwDmyJLwra6T/g3XN064cIv/pjINDQ4nTx1HNGHuvuO6ZcBf2rNxB+7xEmu1JGQZ0wFyCi5rrXWDiKOBgWUdEx7dvQzrkLph5ibkR0+RNCsMkE1LNu59ZN6mLwPzgJRriZU+2k0eC8+EHmTbRY1EzKUqxF8JX/hOndJ+JIf6luqKd/XxBtFcX6kMd2vxIM7z6E374PRA4Ee1L0gYvEfsacD5N28YoDkqoxyZRcFk09kpRFOfr0v1XyIawkKwo8/73pMCNTKBPyDEbxSBbHafGu2OuImBpqgtlYCaO5hq296d9mUxUM0qeor2CQAQJCsfZJZntwxsaMt+azjgVPp3ReQQRVZBlmZgEcZ98Jx9gLU/DT1PKSehxAoMsnd8Y3yhvwu08qsbMhhCiLS/SOHALd/8Uj8kAeAP2ynbh0ZB5bYT+zVqD2T/c2493tNPGYvJB/c1wfPHz2YNQFoli6sxFvlNfxTn5S3wxcPCIfIwpd2NcUxvkvbOK2TpoDcpwK/ntGf1w7voiBwItf1eLzyibouonxxRm4dGQ+JhR78HmlH3cu3YV1VT6cWJSBi0bkoY9bxdVjC9l6e+XuJmxrCGJ7XRBvbqlDU9pkECh3JSNDk7D1ltYAIVbo9NVD9+4R+umHnJBSfn7oURfIrP9lj8IgYSOdjJESifRjfSM8+7jzoJ16A5QRZyGy5mXoq5+HqZPyo9j0a1OuhOOCe2EQmHn9Lpi1O1rUw3k3THnRsinQrngUckY+wkt/iyiRFKNBuG58HUrxKC47hJ7/Fgyf4F4k9wJk3L4cUkYB9M2LEVx4i0VdZAIikyYVJ/wPjGJ/CBbkGTYDjrPvgJzRh1P+VK4wSfchGoXp3Y3QP26HYbXqOjPhPP9urpmzTFX9bug7VzOfgcpn8oAJnDGghTH86u0Ib3wHMpEuyaL4vLvFTjzQgNAbdzN/AiapU1oKD4metKN5VgminwmpYCg8Ny86NHZL5gcdxckPDyJanoDIowh4YZCEtq8ORqgREgGHYBPgb+BnZISaOXMhO1yQB0xk4EfeES14S0dxXd3xkh4JEChQtBNevsvL2YRP9/rY2jmxS0tXsCDaOq2yyikDsrFw3jAc8Os4Md7FEGPZw8TYQg9enjsC2ZqEh1buxxOfWWpiAk6NL/bg4dkDcWJxBl5cX4PbFwufe/r/+84YgKn9s3DDm9u5E4HDyxkECdP7Z+GemQNQlOHA7Ut2coZA0G6AkfEuhgDu/2AvFm0T7VICXafLIWJMcd1yy6SjuqmeMBkc1Y2k+Iuo752sfXUy5yGRoQ4KDLX7Npk4TTrNDrFIGhGxw0zKYVBXgvv7b8CkDMDKp4WxU5Q0DkSeg8aImtMP6mk/gDp5PoyGvQgvuh/6lvchKQ64fvg+ZHcuop/8BaEl5EuRlB+JDTAPOUtmCRJk6LU74ouQdt7/wDF5PsywH76HT4oBB5MJj1J2X8gl4+CYcROXAri1kmzKIyHo+76K8yyUKVdDO+NW9qfQN76D8KIHYDZXi+uQFSgnzIB2xi3c4UE77+CCy2E2VUMZeBJc1zzDnTzEu4gsfYT/ny5O4lKoSE+0hzzYIq5DToP72j+3+5G19w0d/wx3/J3tvcaufn2PBQj8gTJNbKwJ4M9fVOPN8gZ4g4SKRTKnNxyHIymSKuT9s8pwzfgClNcEcO4Lmzjlb0VGNEDJmD+mD4ME4gzMem4D6xdM6JuB+2aVYlJJBh5cvhcvrK9BQ4CEYsTHMsMhY9qALOZBvLOtnlsaxUe8t7Q5iijmuhRsvvnoAEJvGI+pco9mw15EPv4Tp+cN1koQZSExSI//3CCY/AYkZxa0i3/BgkWkkkj6CPrOT0SboyuTd+HK2DlwUBnBiCCy+q+IrHiKd6ikvOj65tOcjQpS9qDi83i4rV247MqB57b3Od0ffu83iHz6XFwZhjpo1AmXQ6/cjNCCy+LtkRbIkEsnsbU1yT6HnpkPveLzlgs2tW6SGNGYCziDEXzuupgORTLZUYI6/mJos38KZBYivPghRFf9CXK/E+EiHkJ2MSIf/I7vG2Ffp4eLBRKUSfPhuuiBFudrTxag0xeSxifo0QDBei5VzRG8urkWL6yrxZZ60QrZG47DAQRSiHxl3giML3Zj4cZ6/PGzhJBSTL+E41TgVvHnS07gKeyGf2/H4m0N/H8/PbUfvjmuENW+CIOALyv92FwbxK6GAOqDFgmndQrX7BU6CNZ+IN+tYsNNE3rDUOtx90gp3ui6fyH60QKuizMu6AZwINwZBB8CksJ8FPXsO6AOOhlGQwUv9GawkTMDct+RQOFwJtSZO1YhvPQR6PvXc2peO/dncEy9lksN/v87C5I/4QppOUA4iE8w9/+AYBOCz18L3ZJ/hiT4C+MvZfIh6TJYPBpLbIhIjNqc+yAXj2SdBHM/iT8lDnngSXwNUskYRBbdj+gnz7P+BG/U4i+TmHDnuuopKGVTYdRuYzVRkg4mcShlwHhQ2yGBty4FCAOnQhl8KiRXJqC5BfHSmcW6E+SoCWcWC1yRqRarVcZLfjGOgJWJoSynXQ5s8dzTAiDQHQWjBksiL1hbxV4OelqltA8+Px8OIAzIcuKFbwzDyHwXtjeEUO0TnQrJOQT6joyviI9AIjBPfV6JBz6ogCRLnEW4flIRzh6SiwxNxgFfBLu8YeYrkDriZ/t8WLPPh/pQomWKpsLeIJRkAYQRBS588K2xPW7x7A0XLPCADv3rZYisegbGrtWi7e+4sRZFlAVNMgYQ6KuiQuo7mn04lBGzIWeRj4cw6eE2t2gQ0U2LEV39AvQ9X8Y1FlzXPsvqjEbNDgSenAOJShhJn2hixVB2Qpk4l2vh7GAYIAEnkfdzXvYbKOMuQnT18wi/fX+SlowIiDLsDAYAcv4goQBaXd4ig6CMuwTa7J9wOSL4/LdhbKfOAwENEnwAcS7n5Y9AHX0e/8T/yynsN6LNuo25CFRaicTEpTo7Di11XMqEcvHV6Ra+FqoLEgEF+qq6GDTwV4cTcGRAcnqYlMnlFQIN1LbqzGDwQCZq3FVAoELVOnuJPf79aQMQ6EkQKCDS4j831WLB2mpui6SDa1vcjkcD2PJ07/HPDocDCINynPjLpcMwosCNvY0heJkgGNvxJ5UaxORFsTOweFsjHv5I2BNTiaJftoaRBW5M65+FScUejCnOQJZTYfnpKl8Yy3c14ck1ldhRH4rvktIfIFB0ZO7moK4Nsnu2jxSOACkL7t+IyCfPccmB+vB5UeuEAVJ77vag2UxSOszoA7lgGOR+47juT4sRtdzpuz4TKomN+2M6BqRy6Ibru3+DVDwS0RVPMnGxbS+/DOd3X4ZSOglGxVoE/nwVtzKKur4J59zfQR1zPiLv/Vos0DHoIBZXk0sHVBogCfDgExciWr2lhZmTMuEKOM66HXJmIYLPXs2tmsm5gwRIAJxz7udyBh3+X09nLggTFc+/m8mT4SUPwajfE+cgtCeeB3utBRSS85nJOg9xaWqrFYN0IxSN/xBgIyBB3RWiw8LJraLE+SC3TYn/ZAvfFGcWZOr2II4J/ZvaKj15AozweDrO6LOzgTuK96cRQEgQQRpDOpbvJh+HSnxVbWlwW+mk9GEoHA4gFHpU/O3y4RhTmIF7P6zA6+WkVmZ9bIRfPQ1qkWoUfA5/BKgPUttRIhtL2YRMhwy3gwytJEwuycLlo/Jx8oAMJoo+8VkVnlxzAN4g7WjSMYOQ0E7kSSC2CT1tYDYWzBnCLqL2kdoRMEwdclM1ImtfQeSTZ9mdUUzn3VyMlGSYKu10NSb/UsufEQ606Luna6T0PrtCZvdFYMFcFmBKdmLkBVLzMAFSzitDdPH/IvjxswmvBU+uyCAMnYHgwlthbFgkCJXxFnFAYYDwE8gMEOYgWl3eEiCMPh+O2XdAzhuA0Es3ILJlmVACjB3JZQbSb3CMncPzSuDhaczoV0afK9opfXUIvfoj6HvWJv321Bk/yUCHP++yyn9I8Cn+PYEKyvbw/ysCWHgI8A2BRo6Snry0AQtpBBBokJH4h8zrIPXm72oIs4/Dv76u5RIE7fwU9mVLD8GewwEETZbx6pUjMLkkEws31OLWRdvjjOr4xCjJcMoKxvcVdrNb60JoCES5pEDulxQz+j4SmwhoqaSJLM+t4LaT+uH6ydQGGcC3X9uOzTX+tCYpJht/zRiYjd+cPQil2c503DSkzmzd1VdiGIiWL0Vk6W/YG6HbAULS4hoX2YnlPJM7G5yzfwzHSddwbZ2ti30E9pMWZ0mCOvIcaHMe4MUp+Pj5MA6UU6Oz0ErJ6cccBHnwdARevB7mlmUsgZxcHFDHnAdt9h3cfucnm/LqHZCSBH/kouHQLrgHctlJiH70FJMgkwWEGA1wZgZwX/MMGw+ZJDdOGQSD5KdPh3POfazYSAJi4a+XQjZJBzF1DovsKa4pMToIS/HWSpYgGUJ7R3RfWOUjE1K/MXBd+gjMgiGcXUyXI80AQtvHQoZP/9hYi9+vrkRFUxgRPU080IEWJYYTn/wyqXtDjNAbJxXhzlMHcHlh5rPrQZmVOL0w5jc0pSQTL88bjrBuYMYzG1Djj+La8QV46KyB2FIbwM2LtmMDGWXFsgysXykBN0wuxr0zS1HhDePaV7diU60FENxs1kQ8BTJreruHmjW1TlfSdOF2qOxUeetJJSjOdKTLHNDr7sOo2ozIkl9CJ15CzMSnNd32eMzxyaZGJOwkeh0sWmOi/Y/UFx3jL4YZjcD32CzO+iUv3vQAtQvvFUZOssogIsE/MLn33nnBz9lKOPjc1YjuXM0KiVxyZRBAJlBzoc36EUv++h89A2CTsSQYIin8OxwT58LUowg8fj77Q1gcB15SJRnK6POhnXsnpKxihD98HJFlv+WdN5kQOUhEauBUhN68G/oXr8Agd8sUkD1u/QFo6TYZyzVxgjrJXpykkikD68yAPOFSOGbcDJkzB3JaaaKlPUCwHv6mmgCXHFZWNOIA5dKT+m57atFhWv9M/GveSBYluuIf5dyi2BQy4A0JZF7kceDvVwzjdsS3t3rx4IoK1AV0NsByyBJKslQ8NHsgtzO+s9WL7722jaHy9AGZeGBWKYblu/CrlfvxRnk9n1s3DKiKhOIMDTdOLubFkiy573pvF/Y0hXmCGJmvMUCobI7gD6srWQeBhJzq6P09iDgqMk0x8ThZwqBcDd+Z2BdXjsnnNk/76IkRSCopRMIIr3gC+pevxYSALJFjcV+pkF2wFiruNMguhuzO486EtuURCc75f4Ay/CzotTsQepwIgomDrKNpcaYsQHDB3Lj3gVVkoPOxOdRpN0Hy5DAHwajdKSymDdHeTIc67mI4z7wdUk5/6LtWIbTofwGSLCY1RFWDVDQCTvJZKJ0E01eP4NOXwmiq4vNQCl6bdTvUKVcisvwPiKygVsemlB5EyQWoFqCBgIHDw4DLMe1bkIfOgORwpfS9dPTieg1AoAAFdROvbKjFSxsOYNOBAHwRSzWhm2uRHXx6g3JceOeaUchxqtjbHGay4Jvl9XjuS9HSSHuS84bm4K7TSzEkz8k//3hPI7cu5rlVzCzLRmmOxi6Z3//3Duz2CtEWWgC/M7EA359cwqqKq/c1cZujN2yAWvsm9s3A+CI3dnvD+PkHFfhgpxcUSirZ9c104O+XD8fQPk5UNUexyxvCp/uaWaSJ1Bx7wiEkWwSnhfgXp5fl4D8mFeK0soQcbU+4D/sajxwBfecqRFb8Eea+dTADjQn/km7mJ7RoHYzdhgVaEmyr2A9kFY5z74Iy6GREPn8J+id/id84vVYdezG0s34EKbcfAmRBTu2PVnYgVpJVT7yM6+fUpUAqkOa+9TCCjdA3LxGiT5RzUFRop9/E/gHsv9CwF/rWD4ToUU4/KIOnQ84tZYJleNljIKtliyRJNXtSEFSmXgtjy/us72AG6lOqxHCw0dL6OZhkzZw/GMrwWVAnXgGpz8C0tm7vVQDBGgBb64J4aX0N3t3uBf2bpJp74qHKMm49qS9O6pfFCznxZl7dXIc/rqmKK6gRZ2DmoGzMG52PYXkuFGU64FRl5hdUNoXxVbUff113AF9UJetHmCj0OHDJiD44a3AOynI0ZDsdcKkSmsJR1Pp1FkeizAKBA1+EdhliWXUqKs49IZu9GYjH4FAkrN7XjN+u2o/aQKI1K5XjLUzAgMG5DpaVvmpMIcpy7ZanVH5mR39tonacKCGYLIMbXfMyohvehlG9Jd5a2J1ZhBZkuZgccaJzoZXqIH3wKcPQZzCMA9uA5iTNE0hQx10Ex/TvQMosQvDZq2KmVskMBEDOH8xdDPKwmYLBT4yuA1vZspw9FWJLvezKYqdKZfiZkAtPgOTKi3Vp6qwcyUqW69+EseEtVomkWFMZgb/mD4aU049LE6QSSa6SlhnU0T+/4/dKCxyI8pPMoIiInuq4OZAHndwr2iB7JUCgIUaL2kcVTfj3lga8t6OBd9WJnaPYfRO7JtVzC1QqIFdHyggQN4BS+5QJiA/uWHGVPBKoZbFflgaXKiMQ1bGnMcz8AvJmSHg/ig8gvY1aHYfkuTAw18mLvVuVuXxBmgjbG4IcM6oaWLttoaouMSgoyXSwLwM5HpLCJWkxEM8htQ6LjmRVUsXi4WIXy1zMGy0AEt2PfaRrBMR+3IwE2SNBX/8mouXvs9Ngor6eLOx7fONgtfBZHUiHHYkxomBrQSgiHkqFw7jvX9+yDIgZDMWzCDHARFwF8oEgd0f+fWEfQh8+nsgCWH1QksIWzkrRCCCrQLQGBpthNlVySyl5NJD9tBU/Kx+XYPQmciDdCcJaP8lkUNaCW6E6IQ85hYmgCgEoanPsJUevBQj0fKn3n9Lgq/Y04R+b6vDx7ib4dV10BhMq7zUmUL1ktLe6TcmUud3L2k/SpDCywINrxhXgzCE5GJSjpXX6sHc+9cPcNbnvNVWzE2F07UL2IZDIIpjbgVMN3Hb902MwIiuQyDKatBpkBUawKe4UkbyYWwx+sZNQIUVFm3NPPlpnbSgWpFNB3AtlyCncxtjb2pZ6NUAQg9nkzob9zVG8t70Rz647gPIaSrezobzwTbePNIwAPWGFzFkZIBCP46IRuZg/pgDjijzQVMEqFz+3SYlpOAAOfUvRMNfXoxvfQvjT5wFfbUqQFo/1M4gvkLzBTy7EWD0ebXUPrFelUiagM3HiW5cUSH3KWOyJFCZJXdJUXL1ShdkGCEmjiVoiawI6Fm6oxp/WHkC1n0h1PRsVd+bDku7vJaEXSZbZzfK26SU4ZUAmMhwKZFlMd5zObcMIS/eo2PcX+fPSHgAACnNJREFUf+gRP8zGaoQ//L1QYTTTQz/lcE/Y5PY9S08mubOj7TwooHWbfXePHUB8J+5caMSxOPFyyDklQp455amUxy7kNkA4SGxpoFQ3R/Doqr34+6Y6+CKJLIKQa7azCsduSHb1mS2L7ISOpMWZyHHJuOOU/rh2fCE0m2fQ1YFPn/ORXPO+9Qi/92tQ1wMDCAKXZPEsy+z5YB+pHQHRryYL3QW25hbo3yqVyIoKZeI8OE79D1aT7M2gIPlJ2gDhMOOa+va/rgliwefVWLqzgdv0SF6YJgdC2maS0lhqfzx6+9WJFClBBSJNEjCYPzofN0zphyKP0tuDY9//UUbADPugf70EkdUvQiczo3DABgdHGbvufBmpRnInhaSwpDwdjA+IfOjJhUwqlKfdACmzmIFDTBPSBglcabIi1p1PMKV+dyynbKWWTRNR08SXVX4s3FiHjyoamf0vNBTsTEJKPbpWFyNIiNTBbXDpoCRLw2llObjuxHwmI9q9Can89FLx2mIdD7461geIbniD2yJJFKiteVIqXn/vvaY4LCDypTsHcl4p5BNOhzrhMqHdQP/fe8NzyDu3AcJRDQoxMegm8GWVD2+VN+DTfU3YWhdAbYDSi63lNJIbpBKp7aP6VfaL2hGBlv3sImkoDusn2U4Fw/u4ML00CxcOzcWYQo8oJ9i+7+2Is/1SKx2dvIiYjVWIblkKndoiq7+G0bAvNgLb1usTOSyb03SsRpOlxcLn5zJCYjYwFQeUnP6QikewbbZK7Yo5/ePzAO+TqVvFph21eDw2QOjAaKUqw5a6AJbvasSqvc1YV+XD3sYIZxp4AuFRZnEVxJCzp4UOBPoIbxHsgkSXNQee7SlN9HE7MLlfBltVzyjLxsgCF5cX7MOOQFdHwKSMwo6Poe/8GHrFWpi1OwC9pShYYuGxZ4Kujr91PuIYtCSVmyxuJBeNZDMlpWwqlAEThHWzfRxVBGyAcFRhOviLiKNAwkQkQ0xqgR/taQJ5PrAgECHYWAudDRA6EeQjgYSYBTO9jFQjh/Vx4eQBmZg6IAMTizMxKNeVVu5qxy6S9pk7HYFQI/S962HsWQt9xyoY+9fDDDXH1ARZUSzho97pX2afIDkCAnbFAILihFwwGHLZJKj9xkPqOwpy4VBAsdVQ2ztqbIDQ3oi1ej0PTBPwhqLY6Q2xMiFlFj7c1cgGRSKdkPqKjJ0MQ7e83dJBzHWrmFqSgVmDcjCuKAOD85woYPKhXVXslgfTi38pzwdhP8z6CpYdNnZ8hOjWD2E2HSDClw0QjtXYYLnp/uwWqZIaZPFwSHmlnEFgDXr76FAEbIDQobAd+k3klFgfiKLaH8GK3Y3s97Cm0seOhvEjqc2GLEMFsbatGEkXX1qPOV3rOmCy77poTDKhyirGFrlxzpAcnFqWhdJsJ0s7k4y0fdgRSIkI6FGYQS9MXy30nZ9CL38Xxo6PWYa4pXiz4DhZxbJ0Ex9q17Ow5kbCUjwtijysNUMm2F1i40WdB2rZZMjDZ0HuOwZSRh4kVw6g2tmCdsX9EC+2AUJXRPEg56D+hoiug/yJdjYEsWR7AxZtbUB5bQARI6E7ZjnAW5mGY3Q5Peq07LMenyhEBzPVFxXJ5AzBeUNz2SNhYI4TTpVaFyUuL9iHHYGUjYAegRENQWqsRGTzu9A3/BtG9ddJJXOxDIq/40LGKXs7x+LCEnctnGEEQFBY5joh2SSxToEy+FQow2dCGjAJMlktk6CRrDD/yM4YdN3TsQFC18XyiGcyTBObavx4a4sX72z1YnOtDwa14sEAER8tDm1vpzSStDHxCWnNz9RkTC7JwHlD8jB7SC7bSTMWiLehUtjj240jPgP7BXYEUiECJOFu1mxHdNNi6JsXw6zeCoMEl0ja3RQwIV3ki9sfb+pAiKkRkDGUrEDpPx7y0BnspiiTSRSBgYMctvBp+6N9uHfYAKFr4xk/W9uBaun3JXa6u71BLN3ZxGZR1AnRFDLYZTEQNcA8Rz5b8kpovbfF6phUa0+09bRk81oraudvNpEIPdg5k6/P+l3Jr2v7HsoWkCMlWUmTDbVbkTGiwI0p/TIxpSSTfRFyXEkCJ1ySMRMmSsm33Pnbs89gR+C4RsAay2bdDkR3fQZj+0ro+9ZDCvlgRgNAJAgYxGVKbuFtKwDfOn/Wuleis+17yedrg8+TCqStP/WHmiVazmqSIBCqTpEJUF3sfyD1nwBH6QTOEkiurOP6XOxfJiJgA4QUGAn0YWkIRpng+EWVH+urfdjTGIE3qKMxHBHAIZKoW1pQg3IPcQGQeCNlAprEZF04Pd81ok6WbLFIAIodTsLsGTFhIitFmnxtIl1IYEBkBbI0BZmawjbSg3M1jMx3Y2ShB2ML3MjzCD96+7Aj0PsiYALBJuj7N8DYvwH6/o2Adw/MgBcG2TQHmyFFAkx7TlTmYx0S9JkkAB0jRSeDhkRPVcesq8UnPVH+sGSLWXqef1HydkbME/FrjKX8RPZfhaS6AM0DyekBtExI7mwo+YOAgmGQi4ZBLhwGePrYUiUpMPhtgJACD+Fgl1Djj2J7fZD/7PCGUOENMfmxLqDDG9IZUDSGdFCrpTURiI9vokDBH1MTMOKCIV1ws8wPaA1CxASRPGU5FAmZjhgIcCvIc6nI1hQUZWpso1yW68TAbA2lOU4GCvZhR8COwMEjQCRH0lbQ63bxV7NxP6s3MgEy0AgEvDDDzUA0Gi9LkEhQsh9jQuipYwBBfMJjaf8YpTLelREnXVtAQWJegKllAM4sBgKSMxtwZUP25EHKLISU2w9S7gAoOf1g5vZn4GAfqRcBGyCkwjM5aOEsUZKgH4d0Ewd8EVQ2hdllstoX5u+plbIhSIBBZ8DQGBLAwRcmgqQJK+/QNbyGhPEREQNJvtjjkJDtVJHtlDkbQOUA+prnUlisiIBBYYaKkkwNBW4FmU57IkiFIWdfQ0+LQNIkYURgNFbBbK6F2VwNs7kG8NfB9DcADBq8MENNMMJ+brlEqAkgC2v6txHpcPMvAwSHW2QBnJmiJMCZgExImhvQMiC5YkDAnQPTnctthhJ9zSyARFkBKhXYbYc9ZvDZACHFH9WRSDdNDAp0NIV1NIcNNEcscEB8BhMNwQiiuomGkM5GUwQciBEcCBsIEdHhoOx/UZTI0BTmB5D9Me3+KStAX4kvkOVU4XGIfxNQyHTK/DPKBmQ5FbjtdsMUH1n25fXcCBxsVjBhEl+ByhAkzhT2wQzHOAwRH0xSdmQ+gw4j2AiJeA2UCYwEYOrhBI8pZmbEi7grE5KkiDnC4WZAwOUBWRbAgHgDBBg0D+BwQaLXEEgg8HAIEmHPjXnvvHIbIKT5cw9GTRiGgZBhMvExagjRpohO38ekiQ8SA0omEiCQyexISrQSOhUJtParNEnYhx0BOwI9LgJmNMytg1x2IKBgkEZLazqhxFoCorOKSISqvej3uCfd+Qu2AULnY9gDzmCAyEREYGrvEWcbt+gcEMYm9mFHwI5AT45AcibiSLnKnnyf9rV3NAI2QOho5Hrp++xppJc+ePu20zcCR/hQt2grTt8o2Hd2kAj8fxftBpKJjI5gAAAAAElFTkSuQmCC;" vertex="1" parent="1">
          <mxGeometry x="160" y="90" width="520" height="244" as="geometry" />
        </mxCell>
        <mxCell id="q1pJfg4_mO1esPuGB9fL-4" value="" style="shape=image;verticalLabelPosition=bottom;labelBackgroundColor=#ffffff;verticalAlign=top;aspect=fixed;imageAspect=0;image=data:image/png,iVBORw0KGgoAAAANSUhEUgAAACwAAAAsCAYAAAAehFoBAAAH80lEQVRYCe2Y/XNU1RnH/VNqyN59zb6EQSxtMFkDRhF5iTYWMtIGFE2yGxBB29JQnQwytGqrQKsFSt5wIqhYSsZOxaKOFGxLBx0cXyJ0d5PNyybZJMvuZvc+53475969m93cu7u3Cb84Y2bO3M3e8zznc7/n+zwnubfhW/ZzWyleKZ2CJKZLTVvYfUmCNJsEGDMcXxRYSiYw3fsabva/CUjGkxpdXRwOIXrkAGY/u2I0BEWBU19eQ7ihGqM7G0Fjw4aTGp0Ye/dNhO51YfJ3zwKQDIUVBY6d7UOwWsDgQ1VIXrloKKHRSdxqky+2I1BtwnDT/WAzU4ZCCwJL6TTGf9WGQFUZgqsdmO7+PUCioaRGJonBbzDyeD0Cd5UjdK8byUsXjIQVtgSNhjG4bjmCXjMCd5kw9rPtYJMThpIamZT44K8I3edB0GtBYOUSTB7qMBJWGDjWfxrBahOCd1tl4PDmWsxe/cRQ0lKTpFQSk0cOyHaT81ctwcgTD4Iio6VCCwOP7dkqbxdPyFUI1tow03esZEIjE2hkUAbkO5fNv9qBxMfnS4brejj93wEM/WhlVmFF5XJE2n1gsemSSUtNSFx8X7FbtaAA812sKkP08P5SofoKx86cRLDWrijLFZZVNmPowR8i/c0XJZMWncAYon84qNiB75yav0bAcNNasOlo0XCNwlIyjvGOXbJvs8nUpF4LYmd6iyYsdZPGRzHq3yQXWl5+r0UuwkSJbqEBTt/4GuFH7kEgZ7vUxLwFje1tAYhKcRW8P3v1crY7qHnVa8BrQfTI8wVj+Q0NcOzcabkv8namJlKvvEiGHq5BemDhtpg69lutuuoOVpsw0rYJYmSkIHQ+MBHGO57K966ajF+556rNiP359YIJi92QRBHDTQ9k25kqRPZaY8bghhVIXPqgYJo8YIoEEN3biMimZYg03qk7xhoqMX2gFYkL/Yi/z8c5Y+Pv/Uic68X4T6oQ2bxcN3dk8x2IbFmBxNk/ApK+7fKA2cBboEMrQE/aQD4zyK83BKTanAivcyNwt03uz7xHlxqBWjumt1WC7bAUyGtW1tznAOvfBsT1bTEHLMbBLreDOi2gAy6QzwLyCfrDL2Bi81LFItwmpUaNGUP3O5FsdoD5Tfo5WwXQ03bQq3bQWyshhT/StcUc8NQA6C/rQV1lEE/YQftcoBb+1DrQfgE3t3sQXGXXFGbWjzneD3itGH3IDbHNDvLpAHNYvquvuEE9ZlCPFdLVl4sDSzfeAfUtBXUtAfUIoGNO0DNOEE+mA51qsWN4fWXhAs0B5g823VSpWEEnl2y9Fz0yKHULoM4ysPNbgcSYBlpRmKXBPnkW1GUCdfMhKNCH3aBddlCrVhXRb8XEJjcCNZmTMBcw97PXiqE6B5ItLpBf5+FbBFCHG9RlV9bka3eVg06tgDT67wLA0zfA+utBnbcrsDxIHmbQC25Qm1Wrsl/AzFY3QnXO4ipzOzQsRdrHC3keMN+9vS7QccccrLyuIpx0TdstZIWl4UugU99X7JCFzUB32hQF/POK0C9gtrkC4QcqwD2q513lOxumtrhB8+M57G476IgT1GueJ1TGFh8/DaTjeSorloiFQBdalCDu4Vxo7uejDtDeCo1CaZ8VkR97EOTtLdcG6mduhzUuxLc7tXbYYQW95AJ1W/LX42tzhlN3Qvr6lKYfz3WJmQDYPztAfctAnfOhzYoSexz5Reg3Y6bJjdBq/W4hd4d6F9I+R/7DcrWfdym+zRVHraH+jZCunwWY9vXCHDAXPj0D6auToHfukStVKULVzxbQS24QV0b1ol9A8gkHwmu5j7W2CK2yY7Jxnh24FX5ZATpeke9bXmg9FtCHO4DxqwVfK+QDc2j+/iHyH7D3fqpUq2oRbo0uG2i/ew7YJ0D02zHW4NYCe60YrHMg/hgHzvTzFhNoDz8cXKBeVQgTqPN7oL47wD49DCQn8zw7/xctsDpjNgp25Teg1z2K2nzregSIf7KD2t1z1vCbMbXFhdBqR76PeXfY4EKq2T7n3x02iK/wfqsWGYe9Hax/g3KyGXhZUxiYg7O07CX2dk2m5fFtEyAedYF2V4B4D/ULSDR7EF5ToVF5otEzd7q1miEe9IB6bUqv7yqTLcA+bANmbqgylbwWB86ES5FPwc5vA/XYlArm23nIA9rJe6sJYqsVY/XuvG4RqnMgts0Jxg8L7tvn+OHgAHWXZw8G9tmrct2UpMyZYAhYnh8fBbvya9Aby0HdvItYQAf5ocL/+rIguoX/bZFpb14rhtc5kfJljvafVyhHPYfldni3AVLobwULK4dP89E4MA+lJHD9bdDZNYrSx62g51xgfjPijzkxdJ/aLWwYfzjTHZ6ygQ7xFlYu24FdfAaIfqkBMfrF/wesZp34HPTRTtBJO+g1G+gXDqRaHRipd8mnXmiVDbFHPaAnraAXXKBOE+hMLdjnJ4D0TTXLgq4LA+ZLJSfkNkSnfwB62Q7a7cBkowcBrw3htS6kWpxgHQ7QCSvovUcgDV8EpMW/m1s4MIfmXSR0HnRuI+igDfHWpXLhRRrcELlvO5eBXd4H3BxckJp6QYsDzmSUZq6DXdgFcf9yhNdXYvpxD1hvHaSBPoBm9dZd8He3BFhePR0F+9dRxNo3ItXVDGnkHwuGKhZ464D5KhKBDV0DYvr/QBYDMXrv1gIbXXUR874DXoR4hkK/U9iQTIuY9K1T+H9nMioq2qI18wAAAABJRU5ErkJggg==;" vertex="1" parent="1">
          <mxGeometry x="200" y="20" width="60" height="60" as="geometry" />
        </mxCell>
        <mxCell id="q1pJfg4_mO1esPuGB9fL-5" value="" style="shape=image;verticalLabelPosition=bottom;labelBackgroundColor=#ffffff;verticalAlign=top;aspect=fixed;imageAspect=0;image=data:image/png,iVBORw0KGgoAAAANSUhEUgAAAKsAAABFCAYAAAA1phbrAAAXOklEQVR4Ae2deVxU1fvHW75t3197fdus3LXMXFJTc+mbVqbfSAVxAwV3QsDdcAWXFEPLXUsrzVJDTVPT1NIsU0EEJXcEZB/2AYZ7//z8Xp8znPHOMMAMywzU/HFf596Zu5zlfZ/znOd5zrl3qKoK1+aqg/rAwB31IZOuPLpeJjLggtXVs9SbntUFqwtWF6yurtvVddc0Ay7J6pKsLsla02+V634uSV0nJGtskgEbjhtwMVmFocTVKK4X0zoDToVVUVTE3tTDb2s+ei43IOB7FVGJLmBdsNYxWIsNCuKSCjHm8wy0XlCIZiEK2i1VMSlCRVSCC1gXsGWBdYpk1RcpiI4vxNg1CWg4XYem80vQPFRFs1AV7cOMwJ5LVGAoUeqN8l8TcCmKAn1hEXS6bOTk5qHYYIDiGgCaGHA4rAT13A09RqxKwoPDL6DJ3GIBKmE1AbtUFSpBXIqCEqXsG1YTYNS1exToC3HleiJ+PPw71n+9G1t3HsSJP88jLUMHg6HE1GB1Ld+OzI9DYS0sVnA+vgBjV9/EA56ReDIgRXT/ElSZUsJSJQjYqeJGplrvgDUYDEJCEkDtVlhYBOrplg1MGC9eugG/6Z/gle5eaPa6J1p2GYIu/SZg7Ze7kJquK3ON5T3+CccOg5VdemyCHhPWxuPegWdw96AoNJxVgOahiplklcAybbNExYTvVKRk1y9gk1MzcPLP8zj8y2nT9vPxMzh77iKKiw1lwNPpcrDqiwg07TRIgEpY5da57zghbf8JMFZWRofB+hcHU6vice+AM7ij/2n8a1AUms4zlAuqhPblhSpGblGRnqtalUqVFdAZ//946CTe9ghEow4epq15lyEY4R+KrOzcMrBGX7gCrw9DTIBKUGW6adu+Mtc4o1zOfqZDYI25qYf3iht4aHAk7ux/GncOOIP7hsaiWYhRT5VglpcS2HHfqoivJyoBYX3XM8gMvpffGAafgIVWYY2MjoPHqFlm50tQm3byxMYtP4CDL2fD4uzn1zqsMYlF8P40Ho97RwlIKVXvHHgW/x7xV6VSVQtv68Uq/HeouJRa91UCwtrHc5IZfC93GwbfcmC9eiMJQbM/taoGtOg6FF/vOPiPB5UvSq3C+tetQvisTsQzY2Jxz6AoAakWVg6ktEBWts9BV2CEiospdRtYe2HNyy/Ajh+O4tU3R6BJR6PeSv2VaoSXfyiiYi67YK0tWDnivZZmwLiNqWjgdwn3D4/FPYOjcbdHJO4aeLZUDYixagmoDNgOYSqCIlREJ9VdYO2FlV18SlomNn+3HyMnLkTfoVPQf+RHmBqyGif+jEZObr4L1tqAtbjECOrEr3R43v86HvS5LLr8+4aZA/svz3NoPLfILskqQX4tTMVkeroS6yaw9sLKLo7A5uYVCCl65PhZnDgVjRsJydDrC12gljpGalQNKDKouJxiwNRtWXguIAmPjo3HQ75XrQJLWBtMz66SdBWerqUqpu5SEXur7gFbFVidPXipD8+vMVgLDSr+SinBzB05aBCYiic+vIXH/ZLwiAD2ihFY7zhICUu14LEJCWhW6mqVUtPWlMBSJZi2W8XltLoF7D8BVvYEJSUlYnOUpaJGYKVEvZSqYGZEERpN1+GZSZl4KsAI7GMTEvHImBt4yPcK/m/kJfy7FNh7h5wHt8ZzCit0DFQEL4GlSjBll4qburpjh60KrPRiUQ3Izskz26w5EbRSkLEE1Gm11xUUFJYxdRGo/AI90jN0uJmUimvxt0ArxK2UjDLnau8v9wkmB4LUra/fvCU8bucvXsX5C1cRdzke8QkpwjXMZ1jCyxgHXqvNY25ePoqKi+1ScaoNK+NPr6YrmLe3CM1m5aLBtGw8O8UKsKOv40ErwD4dlGGTc6AiaNsuMeqwqTl1Q8JWBVbGAOw+cBxbdh40267FJ5VpfAkQ0zNRF7F998+maxhT8OvvUaBrl/8TnIICPZKS03Hw6CksXP4lhvsvQL/h0/HesGmYuXg9iqx41eQzSkqMkMcnJGPvT79h+oI1+J/XdPTsPxE93PzF1ssjCIPHzcOC8M3CY0f3cFHRbRCTUzOx79BJbNlxwJjPHQcQ8eMvAnr5HFvSasHKiKAEnYr5+0rQYn4RGs7S48WP8q0CK1UCDri0g677vS7gxeD8KumuWoBbLVLh913d8HTZCyutJ6cjL6JL3/EmjxfNVg1f88Du/cdBYKw1JkGcFroarXt6376u4yCMmbwUmbocASql9bcRh/HekClo0WUIGncchKal7lwejwxYhEINWNrn8P6UxLz+/eHThB24cQcPM/uxdF4wbdJpEFp1H47hfiH440yMiBrj/X75PQrveE4W5TGWyx2d+44XwGqfV9l+tWBNzlYRcsDow2eX3GReCRoGWwM2TeiwQiWghLUA9uHR1/FicEG1gaWni8EviU5WCaoEa1QcurlNMAOhSSdP7DlwokJYp4euQZu3RmquG4xxU8OQqcsW0jQgeDladB0mQNWCxf2KYCWo7OYDZ3+KV3p4oUWXwZpn3I5dsLwnj1t2HYoO74zG19sPiO6fsPYZMgX0xvF/2pC7vT8Bu/f/avUlLA/aKsNKIObvV9HpExUtFpSG94WUAmtVwmqAHXNd6LBSwj41+gLcV+rQLbz8oBatFK1o/9XFxkHX1XTnqQRVhbW7m58ZELbC2tYS1ilhOBd7BcGL1wvQJCSWYFUE64W/rsNvxifiesvrbDlu3nkwOr47Bjt/OIq9h04KyS7z4VBYk7MUzPtRRefw26BKgOjvFxKWwM7Ms1AJJLAJeGT0NSFhnxgVh8URaYi+WYx1J1S8tdIYhC3vV5W0/VIVM/aouOQkK4GzYR0yfj7WbN6Fdr18TV0+u+jn27ujUcdBoOuXqgMlpo8VNYD687SQ1UJiS8C0gLIrJ+hd+o3Hu4Mnod+wqejlHoh2vUcJVYDPkue/4zkJn27cid7ugY6VrNRR03MIqmIVVAmWSSWYpccL5QD7+IQEPDn+GhZGZCIhoxjFJQqoVmz4TUXvVdUDls/vuEzFzD1G16y1GNLyupqa+N3ZsDKs8J1BkwQ41E95PHbKUoSt3oYtO38SejAHPLv2HxeDMa1OzJH76s0RAkQJHFPeh4B2e98PwYvWi0HdsZOROBV5QQzyfj8Tg/0//yHAHDRmDpp1NqoNL70xVHjk2vX2dRysjNhPzVaw6KAiQJBdvwTUMq0I2GcC09B8WjLm7MzELZ3BbEbrrSwV639T0WulfXED1p7/+icqgveqiLnlWLOWc2H1BLtggtXmzREYOyVMDGTYrWdkZomgcJrJaIpiyk37gl6/mQy3ETPQsusQk3QkrIxbGDYhBBH7fkFCUqqwNlCv1V7Le1FXPnn6PGYv2YhX3/QWeaEOyzxJ+GtVDaALNUGnIOywcVJfZaBKcIzAGoSVQErY56fq0GZOJuZEZCM1q8RqjKoE9r+fVR9Y6tQElsEvjpKwzoaVUFCP9Z8ZjpiL1yo0fWlho4RdsykCHd8dbQKL9+LsBZqm6AK2hFt7vdznOTSVUWfmCyMhlWmtwUpQ4zMVLDusgGF6EkRbU62EbRSchw4LcjA3IhfJWeZvtCyoTDk7YN0JBd2W2/9Mbd6kSkBgr2Y4Blhnw0qp6uY9A4yTlfVZWUopSaM9dUxKQgkWJeLbHkHYtf9Xu152gk8JTP35le7DTffjfWsN1uRsBeFHFLT5uOp6JIHhrICOSwoRsq8Yt7LMu4/yKjI9V8Ha48aBXMtSi4MWRFv3JbBz9qnQ5ZedA1Xe86v6u7NhpVSdv2yTzRKV5aQ0jI69gja9fISuK2F9tac3Zn+8UYBsb33wBaBeTDOVvF+twUo99VCccbDCBrcVDmvntflYwdx9CpJ09sGSXaBg5a9GW661+9rzW/flKvbH2vd8exuI5zsbVk6p+eHgCZulKvNMt+3n3+y1sNl6ord7gN3Ge22d0T07wCdY6NAS2FqRrPT5fx9Vfdtn0xAV7l+o+OWy/bZPunOTdCV46zMV1ZGuhLrTMhUrj/39YfX2X4DE5HS7YM3JLcCYSUvKdNnjp4bh2o0ku+6lhZWxDXRcaG3BtQIrByRn4hW4rVfEAhT2SDHLczko8/1GRXSibSoAC0xQr2eoGLCuWERn2Tpny/LZ8vid1caQQm1l1sa+cyXrYIybQg9Wjs2AsZ1pKWjz35Fmo3bqvqHhm6HXG+MMqlpXX24/gG5uH5pUgVqBlZnLL1Jx7JKKPmuqDywHaKMIbJIxwKKiwnNgF5OkwHNjIZrNLhAWBTobqqKO8Jp3V6s4EKuCvUVFz62J/5wO69QwcHq3rWUpURQhiR9v3d9MX325uxdWbNxZrrvX1vvTg0WnQK2qAcwMHQE5ehXHLqvou1apdlfMtQB8tqq4cKt8aOggiLpRBK91WWj6URZemJErAmQYKCOAtXFWLCUqVZA+a1TsjlaRW1j+M22teFvOq2+wGkpKRLjgE23MYW395khs2LrXZujLq5ujv0Wiz+DJjnEKEFg29NFLJei3VsXLi6o52FpilLDWlrg0UPW4VgTfDTo0mZaOZybr8NwUnRmwjSlhbQCWoP5vnYqIKMdYAWRj1TdY6bW6cOk6nm070EyytiKs31R/zQIGsjDqS7pua00NkA1AYPXFCg7EKnDboOKVKthcpe7IlCrB6G1G7xJnGfA51FFPXSmEz4YMNJp8C/+ZmIKnA9NFMPdzU7PwfKmEbTRLDwJLGLX31O7zv/fXK0ZQ8xwjUWVd1TtYiw2IibuG59oNNJsOTljXb62HsMqGKDIo2BOtYsDnRuC0gNi7z0HXh9tVnEtUkatX8MflfHivTkYD/xt4ZFy8CCssD1iqBOUBSx2VoO6MVKBzMKisp/oGK9fmirsSj6faDDCXrD1HYH0NqAFODREsLDbqgDUBLMHiIsI7/tTDc3kCnh53SUx/eXjUNTD+lXO5KgNWO+jiPnXUiCjFIQ4A+RJr0/oGK+MEOJP2sVfNddZWPb2xavMuu5wL2nqQ+z8dOy0CaxymBsgHy1RfCmz/jdVXCWg/bTVHhyfGXMb9XhfF1G3Guj48+hoeG59wG9igjDIqgWnQVbq+a89PHa+jyjqRaXmwjg5abNUTRNPR6ag41Fg8q53WAHqaktMy8exrHia9kiP3l7sPR/jab00R/7J89qbbIn5Gd0eYrirKmAT2gw1KtQddTecbxBKYD3jHmQH7yOjr5hK2HGC5IHGHZSp2RBqtFxXlu7b/++HgcbztHmAy1bDhOd2DUfvZuXllRtfOhpX1QVNXDzc/M08T4wIYjMKYgarWGd24H3+2xSw4ptYHWOVlloOjfTE0a1Xfw9R4diEeGXcT9w6NsQ3YKTox6GoUnI/2iwqw5ZSCgiLHDqas1cumb/ehk0XkUuseXlgYvhl5eQVlGr4uwJqXp0fQnBVgPqU9lKm3fyhiLl4tk2dr5bb2my4rVyyBxIBveV+nwcoMUsL+FFczUf6cGfuA919lgKVaYE2H5fmvLcjB1lMloCPBWoU5+jcGkWij5dlI9A59v/eY8MFb5qcuwMpJgzv2HEXbXj4mqJhvTmL8ohrmqxN/nEPPD/zN1AunwirtsAx6qe60lMZzi/HohERwxZb7hsbgAa+LYsBFWIVKoNVhA9PReVEWNp00IM9BBn9L0CyP2Z1OmP4JGne8PQuUA4u2b/mIufYceVteUxdg5SDr6o1EtOnla/aiMdLfb9oysb6AZb4rOmaZ8vL1GD9tGRi5JaUqU6fCykwzc9l6FYfjVHCQY2uAtqW5q1mogqeD0sVCbhUB+/iERHQOScPnxwudNuq3bCx6glZ+EYHX+4w1kyRsoI59xgmpynqyvK4uwMo8FOj1GOg7S8zR0sLFuVarNkWgsPD2WgCWZdAe815c1GL5uu1o//Yos3iDOgErM8tM0jVLCctpKS8tLN9obwmp9phrYN0//ALuco8sK2F9r4iZse2DE7D2SC7ScmwPjNFWqD37XHHkj7OxIvqIjWDt2puJKaJB3+w/UXwPQNvYcmIe68fatfzdmdYAmSdaBbbvPiLmbEkzE8vR8o2h6OURiC+37xdfkZHnW0vlLIEV67eL+zAYhpJUWx9Ol6wy40ZPl4q9MUZ7Z1Vcsw2DC/DwqKtiaUwukamVsFx+qO2M61j1UxaSdGW7VJmPmkwPHPkDvoEfiwUhOOtz0Yqv8NnGneKrKiu/+B4Lwr/EqKCPReO8pImyN0oRTzH57qdjp6yCynzWFViZF34PwXPsXLz0xu0BEcvBARJfxOBF63D41zNiuSAuOZ9fUCiWJeKMWC43/03EIfh/FI4ufceZAO3m5ifmcMnFNeoMrBISWgkiztGTpIKrpWglZ2X7tAo8Ou6m+PYAFx+WwHJtrLbTr2LlwSwkZjruG1Gc0mEcJAwSXRrNUByIcF58+96+oiE5oJKNoZUirXt4i0l7+fn6egErdVfO9X9rIE1vtyf5yTIR2ve9piNg1grMWfo5QsK/Qmj4V5ixcJ14mXt84G9m/uJsWE4e5O9SWtc5WAktgaXd0229fY6DJnOK8LhfoglWI7CRaDHxIlbu1yFZ5zhQWQ7CSqkiG8zWlNLpgxEzcfjX0+WCyvvXJcnK/OTk5GHZmm/NpKO2zISNyxA17OCBF15zx4uvuYvli+Sq3Ty3OSct9vLBstXbxIxYhwaysBBV2RgP+32UKoJfbJWwjecUCTMVIRXLuvc/jQajohG+Jx3JumKHf3VPwmpNcmobUe6zMamnUgJt33OkUndlXYOV7czJfguXf4Wu/cYLSWlr2VkH1FNff28sZi5ci+SUDDBEsF7AyoJLYPuts23Q1YjOgbHxAtS7B5zBU95RWBKRiowcx0pU+XJS3yR4nFbMr6606DxYdPns+uXGRuKsUM6V79RnLHwDF+PQL6etfvdK3lemhPVMVBx6uH0o1Ax6jsQ8+86DsedgxWtdEYh2vXxM1xEUmovsCb6W+bBMk1LSxUfjensECjuxHCzJ7vz2y0lzlCdadB0i5nBxNizdtHQIMLCbqxr2HTrVlEeWje7XPQeO2yUAq7zWlWXBKjuWwNJKUNlcKi47RLvqXQR1RBTCdqUit6DE4RJVliktXYcde45gyrxV6D9ypoCKs0Cbd/MybTTRvDdkMibN/Qx7D/0GXiOvrywlrJxZ6j5qlmkZSbmcJD/8pl0xRXsvjt7DVm0VUkue3/ODifho0TrorHxvS3utrftcJv5sdBxmLV4vVKFWPYzLDnEtAeru7EFa9fBC6zdHoLdHEOaFfYGomEtiEQ35DK7aMiJgoals3d384T5qtlgeU55jS+owWJmZgmKja/aN5RVP66ZX6h7PaDztew5Ld6WDX9C2pTCOOIezQOWCvDSiy43dJgdRBKgq+eDEOkoiy027zqm1+3Lx3qzsPLPruMxlVfNh7Rn8jSap9EwdTkdeEKsDhq/7Dos//Rqffb4T3+3+WfzO1VisXc9Fg7Nz8s3yyDyzLq2dX95vDoWVZi3aYQ9eUMXiFdrQPmkh4Kfcn5yYjEbjY7Bsdzpy8iteDKO8gtXW75SC7NrE8jtcgqd043F1AeH1lltl5bA8Xx5Xdl1V/me5+VLxe7R8SeihYkro+DufXd59Zb7MU/vGQQ6FlQVhY2cVqPgxVgUlrKWn6/npuWg9NR6LI1KQlu0cHbW8Cnf9bh9cNV1fDodVAptdoOIAJewKFS1LPV1ctaVTSCbC9mQgMdP6F6RrugJc93MugPbUv1NglcBy0EXHAYNfWoYq6BGWjxUHcxCf7gLVnkb8p5zrNFhlBTP+9LtIFaO2FGPtUT3i04uFqiD/d6X1R/LVdls5HVYWkMCeTzSIoBQOwmq70K771886rhOwuuCpn/A4ut1csLokeb3pyVywumB1weroLsL1vL+/KuGSrC7J6pKsLkn395d0jm5jl2R1SdZ6I1n/H4OVseoLDfzvAAAAAElFTkSuQmCC;" vertex="1" parent="1">
          <mxGeometry x="350" y="11" width="171" height="69" as="geometry" />
        </mxCell>
        <mxCell id="q1pJfg4_mO1esPuGB9fL-6" value="" style="shape=image;verticalLabelPosition=bottom;labelBackgroundColor=#ffffff;verticalAlign=top;aspect=fixed;imageAspect=0;image=data:image/png,iVBORw0KGgoAAAANSUhEUgAAAPwAAACjCAYAAACuc3NFAAAgAElEQVR4Ae2d53sTR9f/n//g9+a5nvvOnRBweqEaQguQAinclBQSWgoJYAjBkBAIEBISQknAprcY22BjwMam2oCpNsXY0soNbMu9F5CRZDq8/P6uM6sVa2nVbFVrXsw1q93Z3dHMfM45c6bs/zy+pQYPvAx4GwiONvA/vKKDo6J5PfN6pjbAgecWDrfwgqgNcOCDqLK5ludangPPgecaPojaAAc+iCqba3iu4f0b+DYNHrdp8KDqoqiF6LdeLQYOKtfMvA243Ab8C3iC2QT545sq3D6XjOblf6Dq/clo/GERjMf3toefV7jLFc61fHBref8AXoK8TYO7V4/iZuRaVH04BaU934T25UEoeX4AtC8NgrbHAFQMHoOW3/9g8JNQMAsIDj+H39NtQLIuDbJ2J2u75raodI7u9XT+nHi+b4CXCo4K5pYad3NPQrdtA6pGT0VpnxEo6RbKIC8JMcXPDxB/P9cfJRSe6ceEQdU7n6PljxW4m30UHH7/aFD+0Kjdmge51XlLjdaqbFy/dAbp8UeRsC4RO5cl4u/vYrA6LNocNv6wj51P2ZKMy4dTUaW5AENtltgVlYSBjwSAd4GXCu+WGg+qL6I1bicavpuP8t4fQNu9P0qefwMMcoJaglwpll/vForSvm+h/pu50K1fh3u5J0VJKhWsE1LPrQ2Ev88vNFmn6pTaqUmLE6jCqZP459ck/DEtDtOHbsDkl9dhSq8ITOkdgcm9IzCp5zoW07H4W4yn9onE1N6R+LJvJOZ/+A/WzIpGytZkVGsuPFFQXgbf88BLkJPzrfoijKkJaPxpMSr6jBZN9pcGoSTEpLmV4HZ0juAPCYX2pYEofW0IKnp/iPpv5+LWvijcLz3/xOT3csF2qsFxoeEboSG11VtqFF06g6jfkhA+ajsmvbwWk3tHiqFPJCYR5NJvKe4TiclSkM71prRimNI3UhQMPSMw5dV1WDopBid2p6K1OvtJG/VCvXsOeJOGJcjv5hxD46IlqBw+DqXPD0LJM6Ei5I5g7sj1kP5if/+5N1DRdzQaZoTDmJbAhA3z8Ju6ERxI3gUwtwEJ9JsqXDmShl8mxzIop/SOxMSeBDdpbBnQEtiuxmYBID6Tnv9lz0jsWp6E6twMr4DvPuClQiOgbqoY5C0rV6J67Bco6/cWtK8MRslzA0TQSaN3BGZX7qF3mOAvfWEQqkdNYkLHmLZPNKdImnL4faNJvaDJzDA7epepDQjpp7BsSiy+YBrcQou7CrYz6WXwE/hfh1qA7yGLtHPAU6Yk0G+pcS/vFG7t/QfV475C2YB3Ufr6UGhfMPXLXYHV3WkJfPIPdOuPsr4jUP3BFOg2ReL2hZQnfSkOf3DBb2q3t6pzsHXhfnzVTzTZzaa6M9C6KY1k9lN/f+awjTgZlyrWhQfapOvAW0BO/WT9gV1oCJuHitAx0D4/CNoXBorON3eAGxKKhvAFKHv97c4/k2n9UAa/NkQ0+WvGf83gJ2HVztNP/9ORduDXA7OMTLBnHU3D9EEbQBrWF6Cb+/wmwUF5+Pz1dfiidyRWzoxHTZ7JzHdjO3MeeFMhEQTUL9cfiEbT4l9Q+cZYlL44GNqXB7vfXA8JRXm/0XhQkYG6b+Z0Hni5AJJM/hcGQvvcQJQPGoWGsPm4lRCFe/mnnkhYDn5gQm0LkjYNDA1ZiFlxEFNfX4fPXlsnwu4mbW0Jscu/JVO/ZwTCRmxE1rE0sevppnboGHh6kVH0sN/OSMGN1atQ9c4nzDTWdvdsn7z4/3rhZuQ6PDYKaDt1AKXdh7kXekkASJr/5cFMeFUMGIvG8J9gPLlf9PQbxfkCXOMHuNVj1MBQd5Vpz8k9IzGxl5uccR4QFpLFMfX1CKTHp7ltSrl94Al2nQq6XVtQ8/E0lA94F9qQgSbnmwc97QQiafc+H4rj6m0aPGrMQu2Eb0BCwKMOP0nzP9sfpa++iZrRU9H0y69PvPy2NAc/79+WgEGFWzU5+HVyDCb1Ep1yLmtfD4DtKA8klKa8FoGDGw+6pXztA0+N+KYKdV/MRslTfUXtSkBImtGDMYHdGL4Qj24JonQzCri1dydKuvfzjJa3/C8S+C8MRGmvYbirOSnmg4PtlobnVWvJqMGtmmysDtuLmW9u8y8T3gkhQtBTv373nwc7rekdA28UUD8zHMX/29MroDNhEhKK0m5DQV0I89CZXo2HtZdRPmicd4CXBEBIKHMYPmq6GngNnQsn1h011l/F6ll78f2oHZgzcgdmjdj2ZJKME8A50sLeuE5zASa+tA7HokxMdLBP7xj4Ng2aFi7xKvCk3eu+nI1HN7Lba1WjgJvrIzxv1kuwUxwSiooh45+M3XOIAkfwERR6NXYs3o9ZI7Yz4Al6CoEIvWjer8P5xNQnitDF9ugU8DfW/uU94GnBTPd+YBNkLJ1lejXuXTvN5t6zOfdyMD11HBKKmo+m4XErX4fvVTPcxYasmLc2DVI2J2POOzsw510RdAl4isNGbA04TU8z/6YNWA/t1XPMelH833bKzingW6O2eA140u7VY6fiUYNpdZFl5vUCmpcs85pZT/mhLo2rBcvT+9ijb9Qg71w6wt/fqQi7BH4gQk9DiYvG7wJ1VdjEN0tG7Px2Cnhj6j6vAU/avXX3djYUpwiNXsDdnOMo7f6mV6An38WNv1a7XLCKebdTETy9GwWEXs1gWDY1FrPfbm/KS6Cb45GBp+lpyG7CS+uwZ1WybU5stDXHwBsE3CtI9w7wNBQ3cCwe1lzCY71gU6s+0mWjYfZ8r/TlCXh9YrTLBcsBdiPANhqvzTI2CkjelIyw4dvx/UhrU94Mu6k/T2kCTdOzBT2vrIM2m0x726xYlpFj4PVqNtNN222oxzUqmc83/v7L8R8wCjCe2Aev5Ol/e6Lt5IEOO0ksC5z/9rAgMAoozT6Pue9us2vKdwXoJ7yyFqtnxeOxznn/kmPgaSptZSbK+4z2LPCk3Xu/j7tCKh4bHEgsg4BHTVmo+fhrz2p5WmffbSjuXDzEgXdVy/oiPfPKC4j+PQmz39rWzitvBbik3eVxgGl6Ztq/sBaqtBOOlaSpPpwC/lFLNmrGfe1R4Em7Ny9aikfkDbdsLEpjjkaBLdph8wMst8Jyl8eexuBfewd3VR0fBrH6L5b/jf+2ru+OlolBhdLscwh/b6dTpvx3726HPDCh0EnoJ/ZcB3vBcszeXlpb1+TPIC2/9LNdYhdYiROLsnQMPD2kVY36GeEo/peHprUyTToEd64eVdSkD2svsSm+7eDRC6yvX/3BJM8JIhqD7/df3C+94NjqsCjYdnnl19wHtb2ybBMQ80eSQ0cdQf7XnIPQ5jewkHuxAgvGRzP4zdAPVx6yEy6UoUiow8qwRAa2BN/4bmtwdPcVdo2u2wthw7fi0xfXOp1e/qzTBzWgd0nvZSvsXomA+uRJp7S8Y+CpgI0Cbqxe7THHHQmS2slheKRTtXfWmSRW0/ylzHFo5ZwwCNCtjxCB94SWZ5NuPsIjXQ730tsDzR+uGQXUFWY6pd2/e2c71i84jEcPH7Fw/94DXDiaj+mDNj/pBpCmV4DeqL/L7tn48xGQdpXAG/fUauRllZufeef2fdgK9P6Pn/sbF9MKFNNI+VK6vyCnEvQu6b0Uf/rSWkSEx4pKyYGWdw74Ng10nhqLN2l35gm3XPBvFHDn8mFoQwaz95un2UoNjEYQ8k+hvM8HntHyNOlm/NdOSU6u0RW6YlI9eSNu0yA9PhUzhjruu0vAP378GFJoM9xF5A+HMHOY7H4F6AlCumfj4iOYQHvdmabmEoQEI10TLpXh5wlxWPFNkmL4ov96tlLv50/jra7v+jPdnKcNC49YXf9lUgImvh5hfi+9n027fXktE3hWStGi7J0GXn8wFiXP9nX/fHoG1Vd4WGcxFEeSSi+gaekyZllUj/sSD+suW2la6vM3L/0Vxf/q7ZG8UVfGStBYFCKH3cewm9rKim/jMPstB+Puo3ZADvzduw9Qdq2eQVZTdgPfv7/ziWlPDj0L6J0BPjO1QDS7ZZtZSptgTu233gwrO5almfh6JBZP3G0Gft6YqCebZ5rSye+XhA3FH/X4iwk8R23VaeDbTu73yGQXArU1eou1FjUKeFB+ARWDxzJBo315CFsTbyXB2jSs71/68nD3a/mQULQs/50D7+8CjhZ4FWZi9lsioI488nLgCeCtv6Ti3t0HePjwEY7FZ7XX8ibovx28hYHqLPAEIPWvLYMcUlE7P0nz+WvrsPDTGDPw4aP/YTvgyJ9heb/0+7NX12HN7BiHzjungb+TfQyl3d0MFQ3FhX6Ie4Wn2/fdqYG1adAau01clvv8AKbBG+f9JI45yhugXmB9//owciq6WcuHhEK3cxMHXl7e/njcpgFtV+WMOU/CQA48Qf7j+GgcirrCQNPr2rAqLKm9lqd73t2BmcO3sj63I5OeNDz10SUYnY1peysl4J25n4TCl6GR0Nfa9zc5B7xBYDu/lL36jlu1KAHasnKV8lCcTs02wzR3I57ti7LeI0ThYDmzqE3DtL/2mSHuy19IKBMgbWeSOPD+CLk8T20a7Fqe6JQ5bwk8wbvg42iEvx+F8usNDPrC7ComFMib385aGLnDb4EnofDJ838j/1y6tbUsKyvngNer8ehmDircuRad1ry/NBz3i89ZD3kZBdw+dxBkxstXxZGAuLnub2sATRNxaj+f0S59pzbqYKv2QsXRAUcTgWQFyvvzXu7PU/9dp8ayKbsZpO0AlU+qkR3LNTwBT1qVlsuum5fCTHsy7/dvyrQ27Uc9AX79T4dtOu1Iw4/+fyvZ0BsNv8kDja3b0tid0fD0TLIqUrYlW/Mha5/OAU836NVunXxD8DbOX2gNu8kBQ9esTPRn+6Jq1CRF5x317elrM0xAuGOIjgRSjzfxoDzDylHIofYy1LIGa1X2BhUMNdmY6+RkGyUNT8CTEJj99g6c2KdiWl7XbMCyKXutTHtzH56G5Wx46cuuNSDmzzPYtzHDKvw9NxnU31aCvrPA0/DctsX73Qd83XQ39ZOZdh+GttMK5rJRwL3rpjXvlqMC7EOS/WFI2WNtttBEnMpMVH0w0T1anvwLA8ayacVWjcxeA+TXvDPJRipno8C2c243nCbT5koaX0nD0zkKC8bForxINO2FC6VWWl4CfsfyVEx7Y7MZXPmw3N3b93GzSQ/dDYNVOHlAzUxvTwBPy2YXjIuy67hzXsMbBTT/9rt7Jt+EhKJ++lw8bKEdbSzmzdOY/45NKPlXX/FLsZbTZJ/ti5rPpls776gB0EScHRvdBnzNuK/wqDnbuw1Yasg8dq7cjWoI6SeddtjZ0/B0jYb1In88xEx7AvefFSfEVXcmISIB/88fJ1jamcNE770c+IqiRpxKFBTDlqXH8dmrT8bv5eB3VsPT/VP7RqKtwfY6eeeBN4HY6b3tnusPbY+hMByJszY9aGVeZSaqR0+1PeZPE3VeG4Y7WUettbw0EWfAaGVhYSk87Pym7gRZNHynGz8y35WEoFFAZspxtwFPe97NfmcHLhzLY6Z9bfkN/DB2F+aYHHhy4MkioPQEvRz4K+nX8XXPTZhN3QSL8O2QzeK36hT20uss8DQB57NX1qK1yk3AG4/u7bSGL/53b9SM+cJ6og1VplFg5rq22wDbwD7XH/SM5t+WK5ouND2XPpBBaTrjtCPBxt5hOSKg1Oj4Oee0sSfKqU2DE7uPuA14yQJYPCEONxr1bGw+PUnA9MHitFtL4Ck9QT/hpbXmmXbktBv39BrTV2bFD0cSjFKQa3X5cWeBp2eRp15XabEXpKzcXdLwtzNTUNI9tOMgUR+8W19mdltNoKFM6dQgTzuzIiitrdCtL/us1YNKBYeaQQCbM/DiMNtCw45ml4QE5UG3dYO1FSIrPN639wPt36bB8V2H3Qq8ZNrHrj7NtLyh9TY2/HSEmfZKwFP6r/ptaAe8t8fhJcFBgsZtwN9VHWfmOAPRCWgkeMwxOcL6f4gHFRes++5GAfevn0HFmx+jrO/7LB2ltR3GKDvvbqnZRJzGuT92Tst364vW6K0ceH8XcB4CnrQ2jc0LmWUM+oqiJswfuwu6JgP7TX14MukJdgrfDNjkH8A/tdpNwFP/mHaM7T+mw04xMrNbVqyw7ntToyIve8MVtKUfcDqQgLBy+tGzzBNx6BPVHfhwhsmyoC6Mo7nJXMv7WMs7AJ763rTVldQHJzgJVFotR2Pw0ji8HF4JYnLg/f71frS2GJlpfzjmMhqqdH4N/Efd/3IT8KQ5G7JAnmv5ZBiz9nak8Z/rj7I+7+Ou2okdbWgTDEeBwFbaLIPOG0ThUfPJNx3T8uQY7DFUdAxaruCj5/PgP2XQpsGZfUcVTXoCPSI8BXFrz+GHcU8cb84CT1qe0iZuyWSQ61r00Lfedgr4cc+swcc9/lIMNHwmmeDy2B19eBqLd49JbwKp7tu5HYaocf4icc27N4ChHXESo6F9pgNanna6eeUd3NeeU7YgvJF//g7nhIpRjStHrJfFkkZfOikeVcVNaK5vxYn9avOYurPAk6Yn6Od9EIVC09JXmntPVoE9k76xRodLx4pshl0rT7Ov1sphp+POAk971k/qFYFb1e7w0lMDbNOg8cfFrnvqTUNxt88nW8+s81TDpi5C1UVUj+rARBzyNQwcC/55qQCwZowCii+fsdLwBPXKmYkMTgKU1qpLi2tcAZ6gnzV8K9bMOYjWG0bz85SAryppYtdJKNgLtNnGJy9YL67pLPB0P+2+e/+m7QU0znvpTcDfWOP6zjfUd6cPUj5qzlKW2mw6rWnnzc4cWwoPmoizOdJ1iyQkFNVjv+Rj8Jbl6Y+/jWo0l1zBLIt18KSZfxgbjcQtF3HuUC4ifjhkTkPXfv58D7tG12kZKp2T+u6WMV2jsHP5CfM9v0yJb3cPCYUdv6WZr9Nz5SF2zWlIYfWsJJA2ttTwNGxHc/qldF8P2mhzzN7yXvpNY/CrZsQp+8hMdecy8Lqdm13T8KTdnxkEQ3KszYw8rL+Mzgb6rLXVVzj0Ah6UnENZ7/dcct4xAfXtXGXh5I+NPpjzRJ8fa8pp10eXgCVIfxwbDRpTn0tfoJFBTb/pGgUpvb2Y7g3/4Mk9dL88veV16dlS/N27OzFt0EYWvh64wQp2CeAv+q03p5POORuT1bAvQvYBVoV24TLwhiPxrgEfEoqqkRMZ0FbbT9O8+YJTbBENLZbpcJjzI/S2BAp9mmrZcpccjTQGz0YTFAqMO+z80MzXC/hrdny7YTIJRgKRTHjptzymaxTk5+wdS+lt3SO/bnlMeZg+1PYsOznUjiboyNPKj2nsP+Og/R2WXQPeIOCukOY88DS8ZW8TCb0A3cYIaEMGofS1YR0O2mcHovbjb5S99jQR5+oxlPUe6bSWJ+Bv7f3HpkXCofcz6Ns0OLLjEMLk+9E5WEBjD2zLa+QAlAfL687+JiEw401x7r0cVHcc05dlaVPNmryLdv1krgFPH6UovwDt04Ocg4dp90/xgLZ5tlwkQ997r7+MymGfsNl3NmfV2ZptJz//bD9ouw8UPxihMBWWpts2znF+Ig4BT+vx+Ri8n4Fty+LSCyjMOG12yjkLoKN0BDkN7f0yOR5r5yazQMeO7rN33VPQU//9h7Fbce+Gym5X1GXgyXNd3suJXWJN2v3GqlXWsFPF0eeijieg5N/9nBMeDsb5CdLmxb+I7yLHn7xxtGlgTE1wTlCRz+HpQeyDlRx4i3KUl6mfHRsacvDTePostLL5bg9CpWtMo4/cgYQN53Ep7RqOx2ezQMc/ysb0le51dM4T0FP/PW5NokOr1GXgH99UiavZHG0yQWPZvUbiXt4pZROjVY3G8IWidncAs1OTe2h+ff8xuF+i8HE9GqJrvIK6SWGOPfZsDP5tcSstvtNNe8HpZ5BbCvU9qw64zayn7sGhXVnIOlOIDQuOY+WMgyzQseTVlywAsgIsZ/NJv6WYhEC79MO2YbobzXua6KO96viDKa4BT5qzVY26b75H8VP2V6PR9aZFJo1r2VBMzjr6qkuHZu0pCQg21j+QbXypqJnbNNAnRYv+B7I+lJ5B52gM/o2xrOti5fW3/B/8t/8IBL0AbdYF89CbIy1r7zqBSVNqq7XNWBeewp753dvbIQW6N2zEdvw58wCSt1/GyQSBxfSbQT1iO3b9eRp/z0lm52l9/cyhW9g6eyn95iXHmHCa/uaTTTQ62pen3W6XfBKFezqLvSUU2qdrwNMDaCOMX36z77h7rj9Knx8KWl1n5Zln4+zi+Li7zHkzvCGhqP18Oh42ZCkO0T2syEDVu5/YF1Y0Bj/mSzxqvOo/jVmh4tppN36d1RU1+D+/2dNps560+8Htl1CQU8FAJRNcLiAI6iWfxyE/uxIpUZcRvSqdxfSbZvd9O3Azrgs1yDlXgv2bMrBqViJWhyVByCjF7r/PYN+GDPaVmoh5KWwEobPQj392DVKjDzvlc3IdeNoIY+sGu8CTdq+bGoZHLQrQ0CYX1aatqJ7pY1vT2tLA9s6Tln9+CG5fSFHuy5hGBUrovba0fEgo6iaHKfsdOFj+LQTbNDi99xjChsu+HtMBbz3NyDt/JB+XThZg+uCt7WBn2n34NhzccQm5Vyqw6KNYhH/4D4uL86oZ4LRyrr7yJmgd/U/jY9mXbHPOlrDfS6fEgULG8XykH1SxvJJAoSG7jmh48s5/M2gzWkovWStXhfbaIeBpjjqDRgk+5vQaCH3KblHiyB1odEybXByJh/bFDsxxV3qf5bln+qB54VLrd9Ofp+22r59BWb/3bXYlSFg1hv/klLTkWtbPnHok0Kuv4vcvd2PWiI477wj41IRsCJmlTFvLtTsd03W6dnD7RYQN28rG8kkwnNifzQTFlN6RDPhty46zfNC1phod1BlaHI7JYuHyqWs4fyTPPLLQUejpgxf7I5OVFZy7gDem7YO2xxBlLWmalsq++Grp9DL5AJizzpHTzxJkZ3/TByBDx+B+2XnlQqCJOEuW2Tbrn+mDlt//4MArNJaAEHBtGmQkOf9RCkuY6TcJC+pj06KbJZ/uYr/JjJcCAX/1bBHS9uVgxpAt7DyZ8WcPC0xQfNl3PQN+w6IjzGSna7SsNm2vCiunJyFi7iGs+S4Zq2YcbPelW1ehp777nHc2obnEOe1O9dchDX/nyhHbX6ExAa9bvw6KIXItyt94X1lYOAu1vXQm513jjz+zST1WedgYgab5i1DSrZ91d4K2z3qqN9/pJlBhN1lx+vpsRIYndFjLE3jz/xuN7LNFUJ8vZo67+WOjsHRiHDYvOYp5/43CpsVHoc2vw8oZiex7dBRr82uxNjyZbYZBJj19cJJm2JEVcPqgANU5LX4cF82m6K7+LgnLv9xn5W9wBXoaiju154hTprwkrF0HntaaV11E1VsTRC1p2Rcmh93rI1A+4D2bwexkswduZ651JA+meQPapwcqb58dyBAEW94NAsqyLiB8dJQVUEoaXenc7Le34/dp+3EiQY0LR/OQnijgeHwO0hJyMO+//7B++8Ftl3A2JZelSUvIZg456s9PH7wFqvNa0B70BDxBvGxKAktLzzi06wp7ztLJ7RfgSPlwBvoJL6/D6um7QcLNyjFup75dB54e1qqG8Ugc6r6aibJe76L4PxZOMILHXugMzM7ea+/9dE16jikddVFqPvuKWSUPa+1PT5SkJY/9rA8vb+h6ASlbD3fKgUfQL/5sD9b/eAzblp5k8eqwZObEIyh/Gh9jvkbDdwQ7naf7/p6Twq7TbwKZzi3/KoGlp+fRdcsFOBLwFNuDnpbB0u63pVccj7tbttGOAW+C/o7qOHTbNqBm/FTWp7cCX4LKT2Mpv1WjPsGNFStw+0IyHjYrjCzIGxI/9m9PvVQ/BgE3K7OwacF+NrQmh8mVYwlgAlYK0v2W1yS4JWDlv6Vz0jMolp5jK6b7Lb335JWnL9cc2XEYj2/Zn0ZrCTv97jjwVLBk3jdfZePtN9esQtX7E9prdj8FXbI+KoeORdOihTCeSMCD6ovi2L2lo1FqQDwODNDl9WQQUKG5iN8m07fjHANmCzxfnpdDT7DTtllRyxKgr7O9FbUS6NK5zgFvgp6BX3cZxpP70LxsCSpHfiwOe8lNZ3+An5xy/+mDsr6j0DAnHIaU3bhXfEbsA3HQAw9oOdy2jg0C8tLPYMmE6ICG/tuhmxnsa8Ni0aS97FK/XYK98xpeXsgEjF7NhsOMh+PQ9NMCBpakTc19Zl+AbwK99OU3UTd1OnRRm3E394T4uSoOetcEXd429QKuHDrJFtcEqqanyURrpu9GZW5mh2F3L/BSARNAOjXuFZ3BrT07UD/rexBoUn/Zq+CbQNf2GIzqcZOhW/837mQfxSPqp3PQuz7osjZ576YaGUnHseTTwNP0M9/cik0LElCudt1JJ9fungFeVsjkzacNM3Sb1qH2s6+9B74JdLIuKkd9yhxybWeS8LApi4Mu1U+wxfRdhZtqqI6l47cpsQFh3tNEH7JIdixOQIUm03p9SAfqsPN9eEcvNQhMo96+dAg31qxE5chPQBq3+Gk3z6OXugrkN6DZdoPHoGnxIhhT9+JB7SXukHNUT8Fw3WR9CqfOYP28fQwmgsqXTjlb7ybQ54+JQvzqg6gtdN8wseeBlxqSQWDgGVL3onnRUlQOGydC7y7HHmn1p/ugrM9I1M+aA0NiNO6XnhPNVm6+B4/5LrU3B3GpOhNxqw7i+/d2+pW2JwFEJvyvk2NxOj4VN8qvuNUq9R7wVAEEHjn2tOdgSI5Bw5y5DFCm7TsKvgR6z7dRO3EamxdA3QjyI/B+uh9PjHEApGXf0+2/DQJayq8gLeYY/p4V73NtL5nvpNWjftkHIf0s7rXkuL0Nexd4qZJNptW9a+nQbV2P+mlhKHv9bdc0vgl05pD770ToItfi9pXD3CEnlTGPHcAr08MAAA4nSURBVFs11K9vycH1yxewf20Kln8h9u29beaT+U7j7TT//1RcKhqud84Tb084+gZ4qTGy/n0W7gqp0G2IQM3HXzzp39vS+CbQi//TG5XvfISWX5fDeGo/HjZyh5y9iubX7Fg7BgGtNVehPnUGu/9MYuCHvbmV7XTjKfiZRn9LXIFHoB/dcQzanEzcu9GxCTXO1q9vgbcA/3ZGCvOoV4/+XBl8ySE3cDQaw+fBcCQOD2r4DDlnK5unsw89dQFbyq5AdfIMUjYcZhp3wbgdkMPfUQEgAU5fyKGwfGosti3ah1PRIuh3mlXmLq8n68k/gJeBT5raeGIfmn9eioqh4qepqY/PHHK930XD3HDoE/7B/ZKz3PMulRuPHZvvzpYRdTfpWwZNKpRkZyDjwHHEr0pCZPhe/DY1FvPGRDFgJXCdiQl2uu/PaTHYujABKZuOIOfEGVTlZYrfUvCiU9m/gKdKMTn2HlRcgP7ALjR8H46KIWNQO+Er6DZGsi/VcIecHU3lbMPm6RwLCZOvSVedBW3OBQZpWsxxpGw8gtg/khi8EXMTsGbmbqyZGW8OdI4ExM6l+1m6Q1uO4OzeNOSeEyEnYcLauRdBl6wG/wNeaoimwqZPUen3R+H2xRQ84hNnHDdSqfx47L6yorZoCndbcpj2b9ZeRFVuJoqvZqAg8ywKM8+bA50jAVFXmIHm0su405zzRJP7AHIJdor9F3ipwVIBtfIhNnml8WM/sHBouzaZIFA8ltJQLLVnH8f+D7yPC8hfKornw3+gCeS64MBzgeI32ieQQQqUvHPgOfAc+CBqAxz4IKrsQNFCPJ+e675w4DnwXMMHURvgwAdRZXPN6TnNGShly4HnwHMNH0RtgAMfRJUdKFqI59NzlggHngPPNXwQtQEOfBBVNtecntOcgVK2HHgOPNfwQdQGOPBBVNmBooV4Pj1niXDgOfBcwwdRG+DAB1Flc83pOc0ZKGXLgefAcw0fRG2AAx9ElR0oWojn03OWCAeeA881fBC1AQ58EFW2kua8oxOgLs/DldICxUDXKI3Svfyc5zSxp8qWAx/kwN9oEfB9ehk+OlStGGacKEdTs/jFIE81Qv5c7wkODnwwA69Xg4AflVKN//unCU9FWYchiTWobeTAdxWhxIHnwJuB77arEZaBhAEH3nsa2NOChQPPgefAB1Eb4MAHUWVbaQ8Lk95Su9NvruG7jnan+ufAc+DNGv4/UY2wDMOTeB/eSlAGcJvhwAdw5XW6IerV0DWpMPNUOUYk1iiGyccr0NDEnXadLms/aWcceD+pCFcbFI2N37ppO0hj547S3G6+irTrBTiguaYY6JrhJh+Hd7V+/DU9Bz4Qgderca0mFzvVRYphW04xNFV5uNkiIFq4bjNNprYAbToBKYWFiBWKFENS/jWWxl8bMM+Xaz4GDnwgAm9Q4UBeIZ6LbVAMT0c1MtCFqlz02ltnM82CM2VsyG3M4Sr0iGm0SkfnuNPONaD8XQBx4AMU+L2516zGzCUvO02iIc1OwL+4u0ExHaX5/pQIvDTxRrpfiv8d1eQW4O/qBORX5okz9gKxvLtQnjnwgViZBhVSCgoVQSZY3QU8PavTGl6vRm5VHr44VomIK8Uoq9PgsR99TdXfNbK788eB58Cbh+UkzS6POwu8XidgyQUtyFqgLsj8M2UorMrD3VbuCHQ3zM48jwMfoMAn5hWC+upyOKVjSw2vlM4Zk57u6xTwejXOleTj1bh6cz4J/K+OVyKnPJ9reh+0PQ68DwrdGUlsN41BBerDd49pwAux1oHOxwjXkV+di9576xTTUZofT5eyMfYPU6pspqFrHZ1Lf7dVjR9Ol7EuhiSMKCboZ6SVo7aRm/d269kDbZMD74FC9XglGlTI0OYjLL3cZjhZVIC6JgELzpXaTLNbfR36mwJ+y9TaTEPXaEWdy/1uvRr1TQIGHahlgMuBl44jsopBQsHj5RWIdeyhPHPgPVSwHW7EejXqGgUUVefaDAadgJpGDc5r8xUDmdEV9Rrc1gmK1+k+SkMWAHnQhcpcm+noGqVhearJRZFCKK7JtZ6co1dDVZlns9tB0L+xvxaF1bmuCxN/q7MAyg8H3t8qy6BCtPo6ph2vsBkI1EtleZiRVqEY6N60awUor9dg9slym2l2qq6juVnAioslimno+csytCwNpbWVp7C0ciY82lkBBhX2CNetzHlJu1NMfoQNV4tE4CXPPcVS8Le66QL54cD7WyUaVFh8toyZwdTXVQoZJXlsWE7pGp2zdNoppVNy2imlG3RAXDwzL13siyul6R7dCMrTY4PqiXluUGF1Zold4OlZnx+tRHWDBlWNArS1uSym4/pmAa3SlF5JGPhbXQVgfjjw/lZpJuDlmtDyWALe8rz02xJ46bw8VgJefl06lrz0JIToHum8PKbJPR0Bnp7xfGwDlpzXYuG5UsxMK2cxHf95UYtdwnVkleWjgbbY8rd6CtD8cOD9reK6EPAbs4ptCgm5wKBjS8tBEgbk9FtxUYuCqjzc42P3nRZ8HHg/BV5p7FyCJFA0/KniAvxHYdss6X84E5MgIMti6vGKjo0W+Fv9+jg/HHgfV4CVqWrS8NTICXqlIAGvdI3O0b3yufRK6SiN5Vx6pXRvHRT78JJJr5SGzHIrk16vRkWDBn0T6ux66p2BnvL66dFKthy4nWPQ3+ouAPLDgfe3SjKoEHG5BEMP1NoMOeW5IO1pL01SfiGu12rwXnK1zXQrMkvQ2KDGtBPlNtN8crSSpbGXp7cTa0B5aue006sZoDNPiQ5IZ8BWSkMC5qXdDbhYVsCH79zQVjnwbihEKy3dmWcaVMir0iCtqMBmaGmhcXjB5nW6V1uvYcCdLMq3mY7eY2y6isxS22noGqWxlyd6B+XJrH31auh1ajbx56/LxYqOPiW4Lc8R7N2iGzH/bCkeG2XP70z5Bvm9HHgfNgDafCKvOk8h5CKv2lGg+/wtTR6Eqjxkl+cjPvc6G8MffKC2Q8BLsE9OrYCWr7DrtLNOUkoceF8Br1ez9epvH6xGVwpDE2vQK76ODbeRxv63jaE8S21OvxnkuxpB4/q94+vxZRqHXQLVXTEH3lfAG1SgfjYB0ZWCEsi2zhHYz8U0mMMLuxswMKEO4w5VY0d2MZvh184v4Ku66kLv5cD7qjINKsQKtnetsQVJVzr/XnINyGSnMDW1AosvaBEnXEcJmfBUL3yGndtMeclC4MD7EHgaOutKADv7X57e1YhX99TjfGkBqhsFFmhOPwOcpudy0N0OOgfeV6BL7zWo2Jp1ZyHpSumoCzPjVDketwniUB5fLOMxwCXQpZhreAlAb8cGFfbn2t6XrisBLv8vpN1f2VOP08UF7cftvV3+Qfo+DryvKt6gwpXSvKAz6WnW3Kz0MnElHDfdvabZuYb3FejSe/Vqtl49JEZ5G2m5Vuwqx8+Qdt/dAKHCYlaeVCY89rgA4BreV41Mr0brDQH0sUYCoatAbe9/0P9cnqH1eKOWtBmPrbcP48D7CnjTexeeLXV6Cak9mPz9GsH+fkoVimr5xpW+FEQceF8CT7vPaq7hqSjljSX8HWJn80ew0wKYlHy+AMaXsNO7OfA+Bj67LBevx9V3WbOeYKcZdX9klMDQmMXH2H3Z3jjw1n0cr0pg+j77DQETjlV2SbOeYCfrZUpqhfhdOe6V97n/gmt4H0tcmlVGn2TuimY9/adhibVQWa6V93WZB/H7OfC+rnyTlu/oMlJn+9HeTvdsdCOGHKhFOp9g43OtLrdaOfC+Bp7er1cjMf8aesQ0BHxfnsx4gp124zlUWMj77P7QvmR54MDLCkMuCb16bNLytCX0v1xYP+5tre3ofQQ7bVo5PLGWbcHFF8H42Eek0LY58AqF4lXYpffr1ThVVICeewLTY0+w03ZUHx6qEve34w46vzLlpTbNgZeA85N44+UiZhIzgAJgBp6UT9rIgta0X+MTa/wSdA68nwAuVQSL9Wo2Vk1LR6kfLMHkyJT21XXKH5nwfffWsSmzjU2m5a7+WLY8T0wQcQ3vbw3B1J+ffrIctLDGH6GnPPWIbsCLsQ0YfagK9GlqSWC1E2D+VrY8P3ymnV82UL0aDU0Clp0rwQux4mo6fwCf8vDsLnEfuvdSqrH1ahHLJ993zv+cc7baNdfw/ir1ybxvyMKWq0XoG1/HHGIEnLfBl97ZI7qRCR8abvvrohaFNabvunPnnF/32S3B58D7K/CULxNMV8ty8c2Jcry8uwG0Ywz12T0FvgQ4vYO0eY+YRvZe0uibs4rYGn7WiDjoAQW6BD4H3p+Bl/JmULE592nXCzDpeCXbsz0kRlyUQlBKkLoqBCzvo0Uuz0Q3gp7dK66eTZ755bwW9F7qYjDTnYMekKBz4CWYAiUm0EywZZXlYnWmFiNTqjFgXx0ztUkTE8AELQkBe4HSSA5Bgpv8BL3j6vFucjW+Titjz069XsCEDHun7N1Sw+Fx4PTb5XXFNXygAC/PJ23lbFAxrZtVmovEvEKsytSyj0KS6T1of505DNxfBwryc5Tm8+OVLH3k5RIk5heCnlNer4G+IUvU5Hy76IDW5HLI5ccceDlIgXZMmlcCU9LCpmG9+iYBFMrqNSxIv2k5bjutLT1Dek6glQHPr0uCiQPfFRuMDH4ruOlaV/zP/D85Va8ceN5QnGooXEh0DUHJgefAc+CDqA1w4IOosrmW7hpaujP1yIHnwHMNH0RtgAMfRJXdGc3A7+0a1gEHngPPNXwQtQEOfBBVNtfSXUNLd6YeOfAceK7hg6gNcOCDqLI7oxn4vV3DOuDAc+C5hg+iNsCBD6LK5lq6a2jpztTj/wew6iLKPOYEqQAAAABJRU5ErkJggg==;" vertex="1" parent="1">
          <mxGeometry x="-20" y="180" width="162" height="104.79" as="geometry" />
        </mxCell>
        <mxCell id="q1pJfg4_mO1esPuGB9fL-7" value="" style="aspect=fixed;html=1;points=[];align=center;image;fontSize=12;image=img/lib/mscae/Azure_Test_Plans.svg;" vertex="1" parent="1">
          <mxGeometry x="260" y="360" width="45" height="50" as="geometry" />
        </mxCell>
        <mxCell id="q1pJfg4_mO1esPuGB9fL-10" value="" style="shape=image;verticalLabelPosition=bottom;labelBackgroundColor=#ffffff;verticalAlign=top;aspect=fixed;imageAspect=0;image=data:image/png,iVBORw0KGgoAAAANSUhEUgAAAOwAAAE7CAYAAADen203AAAgAElEQVR4Ae2d28t+yVXn/Te8EAUvvHA8g+AoKgjSrREGg4cRCQx4AmVQo0EQLzrJgIjYHbU7GbUTRiGK6XjIXNm5chzw14LexKg3uQghkKtAQm7DI5+3s95ez3pXnav2rr13FTxU7b1r12Gt9V1r1ap6nuerbivtQoGPv/767b0vvPv2Uz/xk7ev/9qvm+rztud/6GFsH33ttdsXvvCFXeizOvUp8FX+7XW3NwUQfADwCz/7c7dv+6ZvngqgKYWBUvnQqx+8feYzn+lNltVeIQUWYAsJVlJdQDqjFU2BNPQc6wt4l+UtkYR+dRdg+9HysSXcXSxpSOjPcv9d7/y127N//MfHea/CeAoswHaiMe4ia9Kjubs9lAcexAJuJ0FKNLMAmyBQ6jHrUtzEHoIfa+Nb/8s33f77j//E7dd/9Z2397344u31v/u7B5AAFA2Wf/vkJ+/uv/aRjzzU5z3e/97/+t3DxrqAm5KW9ucLsBU0ZP32vhdfun3fd3/PMOEHvAAMcGpAVgz3ySuMnzZpGyD3BjHLgbXGfUL2LjcWYAvIKEAd6fZiSd/zwgubR2Rx6T/46qu3n/+Zn70xhpi1z3kGjfACVupLgQXYDHpuAVSsHO7rLAmwoThare+ytn05ugCboCdr1JGuL9YMyzZzwn3Gda61vKzxWVuv1E6BBdgADRHS0v1TrFGuUFOPNeSR1nqMFS+AtXWOW6zrLBc5IGiFtxdgDcFYy7G/qIUtVn7bc88/WEg5BYRQp9xIrNWRgGpI9HApVjdGG+8Zhy5WqqfAAuxXaAeA2Ef1hMzeA5BYRwGpJX/IhcYync01hAYoIEuj2DUKcaU6CizA3m4PWzQ5kV8iqLHIZ8iNxv2NvVfHurneKgXuAm0d/y4NWEAUsobaQmBBQtYUsmM1Q+0QaT26+1siWtCCZYKmX6hMjOBKtCmhY6juJQEL+FIBJQkKxYAqYPWsM24zFveqiSVDTgCOCPICbb6UXAqwCAYnlEIaX+6nLKqQl4ipB9arWVWhh82xtgu0lipt15cBLNYu5LYKUAkKpSwq5Ab4XiT5CmvVUnGDVjku8rK0eZQ9PWARmFT0t8R9fVijOYf9ATt9reRTICeSvEDr007fPTVgQ+ASi0pecniB9jwXmDZWSlMgB7TEFlYKU+C0gA2tLwWsWFUAmJs8sOICz3T+N3cue9bLAe3a8glz6JSA5TSNANPLEZoS95V1rbWsgLUE8GEWXO9JzpqWwN1KTylwOsB6wSABba1FtFtACFwJ4J+S/dp3oF0OaJf38lROTgXYFFhrLCJCI4AnX2B9KkQ1dwAtClTT1itfeS/bo+tpAIsL5TFcQJazXWMJhFBpV3iB1VKo7RoFmgIt9K/hXdvI5n37FIC1VlADtwVkWgm0tDMv+/cfWYx3wse13fMWnw4PWC96+8johrUm7Uo7RJTXmvUtoeld0opRaG7zFTl+k+qHByza1zKX61aLKO2uaHBvePrt5Xwp/uzfePIpc3/30IDlwIIHVkDWYhH5yRZpd0Uq7wVm1FVOEIr1bAtfR419y3YPC1gYpwNCAjDymmiwEF27wuzXrrQdBYgIaz56ZX7U7crpsIANWdeWHzTT62HWrSttTwHt3XiA5d6Vt3oOC1jPurIOSqU3nj278bGJX0fUbV5ZKCxttr7mlz1CYOU+8YWrpkMCNrQV4O3X8cdURBhTX63TApID/KsKTO95ozzhEd9TJucaPuLhaJ7Y8lVjC4cErBdR1OtNAam2mJbhseuWNXBvgT5je3gvqX/3S/Huqlb2cIAl2OSBDStqz/x69VL3lnUdqyJS301O8Uc/v+Ky5XCAzQlKaKaWltHseydcQr5xhAISJYRFQSkdWUgZfyk/YvW1V7U3z7bq/zCAxbL2YDhrI4IaRJkBP5vxVij2AgX9CkDtmPQ1dY62H8nc9Bx6lb24xVbg2aOfQwCWAENqTRMSAA5RoIkBZkjIbYBj6+9iMq7Ums7OD4sbms8egpTqMxX5tfPLvW7ZxkuNecbn0wM2FBFOMTT1o9+aGQBat0dEeauEIqlVRlsrlhaa6Ci9KFG8HPkQO+C+5kNO+WrBp6kBWwNWwFfqJnn9tAhn7ruhwx85gkqdIwXIGC/nu1PLDSL08LAEvKX8zuXPjPWmBay3towJMsJbyzjes22P3tqxVt32n3N9JMCWuq64+7k0QvFdJU0JWJiV6yaiiUuFwWOuBUjKEnht5N7LEUTtNjI/xsOHMgIKWFFqZ08oThtjsLy6kls8JWBzAzC4WLVW1Qq6FQLc5BHJc79131cBYgltUeDQRdPJlo8UgCuZu607HWCxIpYZ3jVBpZ5Msn30sNqW2FgL249c56zvbHtXu455JqMU7Gw0ng6wOeF/GNc7WQ3e2yVGuehIqQCVnPn0VD69aTNTeyg2TTspj5CJmeYtY5kKsF7wRxgi+SjGsA6SPsh7AzYUER41H2Hw2XIUmxdB3nIrbk+aTgXY1G/7oF1HJQ3W3oBFyLwg2gJrHTdZrlh+cd0rnlE3qm3emgqwIZcRZqBVRzLECkDPbR0v0IQLvlI9BbzI8RWi5tMANhaQAUwjgkBaXCxg9bPWsl2Xo3zWmrWNqt4S40gnv2pnPw1gQ26OWNeRAm6VBdq7Z7LK4AqWoCf9vLaQB0vXK3gt0wDWWiHNjNGa024l9WS8DaT1bNsT5Cvd8yLGZ5//NID1gjIC2p7rSY+h1rr3POpmlcHIdbg3tzPf84KUZ6fvFID13BsBK+u90cmuh3q7rDKXFRXuy0mrDKFz7+24viNub20KwHqEFyHHVR6dcFOlP/LeWlqixL3bHU2X2dv3FH1P72jG+U8BWBFoDRopb8EAfWhilEUfGTSbUbBax4Ryy6EZ/BJZIT+7FzMFYK1LqhmwhYuj+9vCorcKc+x9hPwM52qRiZytPOsdnT2od3nA2i2dLSx6DHCtz1Bw/ObT0RN8yDluiEXVCvfsX7WbArBWS2oGjBY8u37ewqKPnJPM5+jzkMh9ylvwvLOR9N277csD1jI8Z920N9Ni/Qtgj25lZR4pK2v5h7I/Og9j/L08YPVe3sgvF8SY0PMZwioeyqioNMsIfnJ25P64XqrEvAUBtsyZPFa/J633aOvygNXu+NEDTiJAcgJo1AkxcVdT1k/GU5sLCGPewgJsLXUb3tOgESZJ3tBs1qu6b9yrMyTxGjg9NsI91CAZaWX1cdWQ1dRjEZnpffBlJpm4vIUVJpOfhdHanRyhhDRIcrZeagVeLDm8CXk/egkgvBwx59o59H5vAfZrv+5xzRfS4r2JvkV78n3REVZWAzbmrrbO04IxZM0FqJIvwLZSPvG+dkuF6JInXm1+LP2Qnylp6zRCgDXdRio67RaHlIMeC+UR851FNpaFVRZ2Fqb0GAfWSR/bC1mn2r60kg0BqbZt/R7LFA1ITzno55TPfDxxCsDa0yqaASOCJiIQ2rUbdYZY+tojx9IILXu7xrpt+vCA1GvO4t7Tj6ccZI6So0zOmqYArHbfhOiSjxQEDdgzMtlaWY7t9VKA1vJ5QOoFGqscbHBQtrFEZs7IS6HlFIDVwBGiSz4SsDqaelYmW2HvCVrtcsOv1DFCEbrSnAMgIg/k7P9qxQPv9POz8hK6TQFYBqIJrssWsB997bXbe19494NrJF+Lg4FoeP7ig38uL1mvSV+jDwGUCmmv+gi2dimZby/Qyn6v0LCn282433j27IGfwmfphxxFJGkBViixYW6FSpgDY9CwHIVDIOR+KgeAgDuVdL+pukd97n3fuMcpKGv54AlKMzfh2r7vxZcelC0KF56l+KqfSz8LsEKJDXNLdGGMp13lWU6OEFgrrael+x119lb3t1dZz1Po1mMsXrt2jRnqR8ZRky8LG6LqRvc9xtcwMvQObrSXdIQ6V9C8dra6xxixYlgmPAjcxlTCwnreSUyRpdqU57RhaZ7rGts1sG0ndG23bazscH3WNM0attQdCjEzdh+32ibtLmqtbevNcq1deD1XPBHcShQTYObDfGN0LVnrx+avlZ6MKSdq7L0n73s5APcCWwuwMe4MeIbV8Bg04p4FrV6HHUEz96JJz31nTUM9vtQ5Yy8gpt+XMmNlza0jw1oMF2A1NQaXYYLnrgmzbI6FgXm4Ytqlox2Az7OUq2VdX72PFxKKwWTIbt7So/a6tzdBe95YUlYcemNpLc+45lgiFjXFkwXYbPFpr4jr5DHa3gOoFmih3tH4+gyqbQs3UQsBIJc6uX2E+h59X49Vxlya2zVgrzFrxSdjsrRO9VUT+LOu9RE8pRQdQs93XcPqgwvCYC+vtQaWkbpt7a7pwAmAmD1BD2uR9NxiZT3v3vPUdNRjyFnPtozFWvcF2BZqRt7NsRZekCHS5JNH1l0SQSJIo1Povq4zUxkPAfDFPAmZE94JyqvGepXOOcTTkYrQAhaanDXtamFjEUyErYd7GgqI0L4WYBFucu0uH4XxjFnW9TrfYy6eawxdW5VviBdWadV6ZKH2Z7q/G2BT7nCM6LzLtoVsYXAcMSaYIdcYwZakA1/6vjxfeT4FUIQhlz0VhMrv5a2a1ouKyc5bbx2ztBtgcee0VdPl0BoEUMaCVGzZeMANWVlZzwFQ3f+ZGb6VmOIdaZpKOfdQRck4F2BLqFVZN7TWgbGehQOIOccUcbM9LW7dJvoB/IBcW1fuY5FXaqcAik+AqnP46CnW2h4XYGspV/CeJbIwNGRdYwCXdyUHgBa0rJ/keSoPjaFgeqvqVyjgKUro3zNybBW5p/DPwpDdXOJQwMkLTKCNYbJspoeEQAMR0OqgkrSh64TKC7D9xPvBM3rueVdZ2lNntb1aPi7A1lIy8p4lslx7rhJrTSKPYjVzwWe/6hWKXkrfkqMQVupHAfgWCkL12O4Rvkm+ANuPd48tCXF1HrJsAFYD2QtYAUbvYLxmXo5bTR3d1+OAV6GJAvBB81qXPa+qpDPdFuUz8283l9gSmetcy6ZdYjS3WF6YbLdwdAApFLlEUQBU7UKXCMyqm0eBWByhFrTw3spS3miOWWsqwOZup2j3ymM0ABQmspaVhOZF0/PRIJfnKx9PgZiX4/EyNSJrufGyzpwOCVgBI7nn/th9V5i60jwUsF6Q5mdpIMouj0LLqnlm3zaS3QCrraQwLMfCAlCpH2OOFooF2DYhGfG29oKEn5JjhXOT3evNXVbltj9bvd0A6zEsh9jaesYYq10ltPBKc1EAxesFCQW0uUsWHc/g3RylPxclykYzFWBjFlNPS5iaYo4ohR5fItD9r3IfCmilKjyVPNcrEh7Le2dXzrsB1royQvAcUZC6KcBijXG9c5mf0/eq05cCob3xXJ7ZY6W57/WdxXat7QbYUIg/xxWS9W8KsJCR9nLa3I7kqydNgZDi9oKJ+j0pi/KWPPc9ef9o+W6ABURCZJ3nuDSybskB7NEYcrXxeoDF6uYkrKmWHcpnT7sBFsKKpdREt78E4TFAQvkLsB51jnVPlK+WgRylzSxFDuTd3BjIsSh0P9pdAWsDBkL41IkjiRQvwN4z82hXuK92DYoMpPgv89Rbd7ynT7VJnbPluwLWakgBbA4QYU5OvbMxbPR8tgzawD/hueS57jB0sF+ru4I87ApYsZTCLMn1ccKQgKKda46yhdpb928Pp8ag/ehtMHjHz/p41rUEdCIvkm+pbPaSl10By6RDYf0Fxu1FQiL3sQMpLaNCQXu/8CGA4yBFLui8gNPZI8TQfnfAhtxitO8VGNACgN7vypqwd/BGgCrA9HKURAm/rdwQwLxC2h2wMMljIPdK3KMrMGv0HHUQsAQ8oXFhBbGoIf5ynz5r9sltdJnrK6TdAQuRRbN7jK1h5hUYN2KOGrAtSxL+BjP265bwGYvY0odd/15FuU8B2FDwCcb2/oW9EYJ+ljY1YEv/EwfFyu9EWyBZJQxQAVeLBffWr7lr36PzagrAQsSYlbW/zXR0os86foCkAYay/Pjrr7vDRcliSQFp6Af1dFuU4THvlSYLbta7tu3SNo9afxrAxqwszCn9YrNlCO2zlYCrNnrbwvZ9lGvPcmlg2H1P/SxUFotaA1RcZvq01tOOo2Tv9ii8CI1zGsAyQKvhrRBgaa22DU1M3+dvPbSrhqZfyadAaJvN8iJ1jXsN4Gr4BUBlDWyDSZ5iH7UN5VNo37tTARbmxr7UjJB4GjdEQtoD5Fa4EKaVfAqkrKylpb4GXGy31FhTRsM6WIBKu1hn2xZKQPdJ+Uoe01SAFaZZhnjXuMixCDKCF1pbXSWi6EMyfdcDheYBVhilh2UDoNZlTfdwXwNQets/Hp/sdg7jqrHi9yM4ztV0gIV0KYHRwgMoYTZur/yjnV3j6Ppo7TMzGPC0Amgr8Q0BFX5561L4pnlJ+Wre0pSALQWtZWLoGrDGrPJWgjq6H5YVKC2CbNalHN13Tvu4sNr1tfwK8clT5J4VzhnDUetMC1gI6jHIMjf3OiQER2VcbNyWboCX7Re2YfYCMFY/Z58WfjJ+L3me0xUUsKbF1IBloGhjwJYLzFC9o7iJmjkt5di+NjTCwslSAkv8xrNnD58egKYNWZ7ELKnHq1AEnzZtfeTiaml6wMIQmMVaxTIs9/pKYX8twCnQ5tIPywbwYh9t6bzAUE5fIbAyJ++wRKy+psOZyocArBAcVym17eMJxtWsq9CLPLW37dGr5h7RYkk1yjUFPi/if6XtHKHtoQArgwa4JRv8VwYsNMP6ldCrBrA6+FMK2JQHBDC9MZ052i+ybvNDAlYmgauMZscFi61zzwxY5sZaFHc1NU9oVeOheGCx97SFzAUsPAsFmITH5N46GJ5fMR0asJphXlBChEq7a/qdM5S15USwcxIgyQWV0DCV056knLYBeI6FRAl5fecAXcZzpvw0gIUpHmO5p7X/mZjHXBBcPe+UldXzR8nxfm2QSPebA1isO7yg39zkWVcscw7Yc/s4Ur1TATbk7hHlHJ10lHR0X7Z9DVrmWivMgB1vBFDlWMkQYFmTwgvaQBmwvq2hD+/oPqR8ZgVseWuvTwXYmJDVCrElWOi6VihD7ZXe7wVar1+AA5j5ME/vQ/+9E8AUkOq8xIvoPaa92zsVYBEkzVhdHr0FQN9sPYxWDDGB0XuVBKKOnEIxCe+M8ZHnWTr2UwEWzatBqsuprYNSwtn64r7tDRQdhMI9rnFF7dz2uPa+Fgk/R1jyPeZX2+epAAsRQts7WL/RSfoebc1j8wCgMg5RWBw9PFIKKV7WxVdPpwNsaN2D8I62NtI3v25REgntLYQEjgSskjMmzvfuOa7ceXqnmpjHldeuQrvTATZ0KgaGb+UW09cWkWlhopfHtmrYKsHqjlZg3rhS90JxCL1tlGrjzM9PB1iYFdre2cIt1pHq0QoiJpgEv0J0EKtLjuUFwPLNHX4lseWbOygBeT82Pu9ZKNDEOI/gGXhz6n3vlIANaWkYP9qq2PXXbOtZDdaR5RqL6B2SYIzwc6U3KXBKwKKNbeBFhHMLq6fdUSzYaCURE2b6DtFCaNI7p7/SOYeWMrS151ZZjLZ7PDslYCFkyMoCoNHJKoyW00c9xgp4ctzjXsAt3XoBkPDF6//M58BreHtawMbWcKUCVUNY+tACuPe/F0APvAs9pt5llELNEiC057qs61PJOy1gmapdT4qAslbaIsk2j/Q7w1oM6884ellcDmqgCGq3XEKuMDTbYvmyhRz07OPUgIVQFjQCni2ijlg1ffKIvrew7rkCAg0YDwBm3U2giI+MGVDLPXJoSV3c1FqA6rHRf8gVhlY11lq3f8by6QELaLygC8K3RfKCPqUBmS3GuUcfoaiwKNUeSmGPeY3s8/SAhXihtRtg3iJZ13zvyPEWc0714Z3GEqBKvve6PzWHPZ5fArBYNBECnW+5prRBqCuDNsQPzRspz7SE2AOgts9LAJZJiwDoHNBsZWUZAwrC9n819xh6x9atmj5SXqB9C7aXBiwCsaWVhew2CHYlSwtY2ZMWIJbkC7RvgvYSgCUaGRKOra3sVUHbAlbh3QLt7XZ6wOYIyh77fWyTiCBKflaBxO0vdYOFJjY/K43ecnrjpVMDFkHJdcG22JfVrHhQJM89/wS0R/uyuZ6TV2Y+KbCy7QYQve03C1iu9/5VD2+eW907JWABA1/W9pgdurfV6SfN2BBoGQvPjpxQgKl9VuGFBN7Ic0HLls/RaVTD39MBltMxoV8sEAEJ5XscNA+BFqt01JM+KMuUVYUHgNPOMUQPj2d4T1t7RjUg6/nOaQDL4YRcje4xn3sImWj7nkROtYWQ2uixjJH/VD2KJSlRlhx/DNG6BLR78SzF01HPDw9YNCxrGhHw1nzPr8KFQItQ8mfMs6ZSZcm55ZQSKgXtVYJRhwUsDM11vUpBvCdoY0f2cPWtC7kniEuBCh9K9r1LQEvbVwDtIQFb4nppsLKVAlP1L0Lo57oMaEMu22iQAITY199w/fntpT0SIMLa18QJoL383lMubUtBixI/czoUYGFyzToVV9MKiD0mqMEqZVzRvbZZENSUYgE0CCh1RycUBEsPaCL0Kcl5z4I812MoBe2Zt30OAVgYRvClRECIQALKmDCH1oy2HwRrrzUk1tY7ZGHHiJBSt1eCboAUulug2b5br3Nc2VLQ7rms6cUDr53pAQtQSrR6DlA1IXJBi1AiuFjcnlsJtIWVDHkOCB57jqHnFizQCvBCN+tV6HnbMq4q7zAW+rTtjr7OWZsD2pTXocd5RtBOC1isRYnglAJVC2yOBdOCQJmxIdxYoZgV1/3oMu+Ueg12DLnXgBjAe5/cNkbXY4y5dCxVsiWKS/NoxvJ0gMXihH6UKyQ0MDCX2R4TeFd+FiXUR+o+AAYQgBhLhcWKCQpWMNXm1Z6XRJBLQIsyiPHCk4lZ700F2Jxzp1qIsYy93FPawUrr9nuWcae1hevZ9hHaglfyCdEZGpWknMCh0OYs7vEUgC11f9ny6BlgESFBC4eESRiPkPBJ1ZP6Z8kBG99qIkAE7fEkUnNjvemtTfFoQhaylK+0n8sLFObR066AhXGl67gSt6mGOQhkTBC1a4WwMB6EudWlRugQcFEItBkbR8mz2J6u144eiwUQPEstWRi7plOID94ca77qiHeUS/+ciHRovDPc3w2wCAJrC09gvHswt5f7myJ87LRRjsJAWJkfHwSEdxBE5uBZAwAVEnDa4P1cgbS0w82EbrRPO4zBfrjPBwUUozFt0J7tQ65LPR/mJu9Kjutak2JWW9omL3W7a8Yy8p3NAVtqVRFwz60aSRTajoG2RUsDFi1AlGMg0fOkHuMqBS+KsWXMjIH4gh23vgbw8LY0eda/ph3pN+Rq67GGlKO0MXO+KWDRqDENrYlKGRexhXmthIexIXAQ5a0Zm/UqELCaBHix2p7FtnSUa9Zw8KAkMcdYRBv6tACAOcj4JC8do51PCrSt7dv+trzeBLAwvWStupdVDREe6+EBA/CVHF1EsEUoJe/hPWA9Pcstfdgct5Nxp4CGUqCufV+uoUtrYv7SnuR4ES0JefP4Je0vwEaoy57kkaxqaCoIbwgUAJeoKXViyXOza6x0qA8EMTRGEVabM3bZbiKYxDz4YFWtNyDvYlV7CT3zl3Yl76EIPFpL+73GHuLDyPvDLGwpUNGIreuskYSStmF2yE1GIBB65u4B0R6ro50RqQa4IsyxnPXmCB7ZdSxKpzWhPENzSXkWrX2PfL87YEuBClFhUMo6jSRCTdsIrhU0KyBYLqwVp54AsLV+PQQzNnbGGHMN7XhT16P2MUfRJTSfGM1mf9YNsGgtGBoiUuh+D/dnLyIDwtD6NjRffb824FQyX8aYCsLoMaXKIxQrNNT99lBkzFu3KeVRXk0JT1rqdgEsgYPQekcIZXOs05FdE030WuBuqawAmuwFW15wDag1Pyhby0e9EWO2680ee6UsC7x5QoMjp2bAwliPMLF7e2/XjGJYKXBHCH/u3PR2SmxdakGLF0WEWYJT2uXP7dvW88Bl65ReMydPBntE5UvH0rN+M2BLIsAQsDVk33Pyo9oCuMwztcbdE7B6+QJgQskDkwYCcwTUKOFad9nrIzSe3PtaIenxwpsjpybAlljXM7nAJQyPBae2BiyA8oKCMQvLXG3gCl7yTi/ht3LUY51pPQNAi1I5emoCrF17aE2my2d1gUuY7wF3NGABFABlTzXmCaXGYYU/ZpFLaKLranmhv9ak25NySjG19rnF+02AhdFCjFB+BRc4l1HWkqSAktuuV4++aB9lGds3hm8py2MDirMD1tJZZLOXR+DRe6t7wwCLGwXhVrqngAgPeQ9Lct96/IqAC9Fg6+ICyFDCjdZjpjwasK3bXVhSO+aUUgrNf7b7TYD1zoEKoUZaj9mIWDIebe22BqyME0tjlzMh5ep997U3YGlP5Ia8VXa8feezeHpNgIXxmtC63GMvTQTsTLkWpr0AK/TU/LLrO3jrgZV3RgPWjkXGm5t7X1iojWDn9rlVvSbAMsjY1kUr4bciwpb9aHdtb6WmAUuZ8bDdEwtQjQAsFlWPpQVcnhHpEXXeUkZifTUDVlsMTXTKMH+lewrYgAgCtkeybqjlXewaC0bkmQh0C7hk3nga0h/r65bkzavVxW4ZT+93mwGrLYYQXeehtVHviRypPR302evkTSz+oPmXUxbLzKknQMyXHXKTDWq1Bpy8AxNnksFmwHouiGZyKwNyGX+kekQshUZ7nG0FrHarRsYjOUoFy4TFgse8oy2h1EvlWGM8LSyyPs4owLbr5FYFZtevLNnOlJoBCzG0AFoGIhh7uX2zMkp7JVuvY71f/rCRa8YX4hnRVu0hWH63XLeCyzMeeyjEkXLXBbBaAD2GnSWk3osR1g3cwmVDmPX5YeFTzf4k462xttJnKG9V7p6b32qxe/G8VztdAOtpNs2Ura1IL+KMbEdbtdFBEQBmXUX4w4j8woUAABjbSURBVBhCljRn7ihqPQ/NcyljNQG3fFL1W2hh16+tAawcGmxdpwtgGXTMLYZ5Z9N0rYzSwjVSobEGDa1XAVyPhMdg+0EeuOcllAReV2hLMPSe15a+Bx1FUZDXeA+6vRnL3QDruSOaeCv4dM9+rJ6mT62Q3rd6f5X6LWGA3GNbRnotnQ/A1YpL3mdcpcsES0/a6qWQZH4z5N0Ay2RiwQiYsNI9BTS9eio0gEBUVgAQy3GVc9Mn//Vfo1V1PyUKyIuBIC8l7joWW/dPueT96MQmetgVsAidJZq+Xm7xPec1vUoF9L6lt64AinUN4QHKQfen+ZKKpH7605++/fBzz92+5qu/+varv/zLb3VmSrrNEsDSjAfaEiVmg2Cslc+YugLWc0s0E0sYcEZi2znZZUSLC4c18bZsoD/CLK5vCLQxgP2Pd7zjAawAls+rf/zHdioP15rXsfbcl2+3J+5xroJn7rpvymfdmegKWBgRCiRAxOUW34uqFbSaIAltcAghZFWt4FLf41HMNX7+B3/wDrC/97u/ez+R2+1BIWjQ0E9p0goMJZObPOssCiq3jaPU6w5YL4igGZmrNY9CwNZx2uh6rqAjkFhUlKCmr5S1VbVjDHlCFtzyHkcNxbr++Nvffvvyl78sjx5zLKr0TV6T9NZTSdDJ0vCs7jA07Q5YBEkzzpaXW3wvytY6xNxisabeAQhN55y9TOrodyjH1tGf//znbx/727+9H7y6agWspkOJjEATO4+Q4lHDPWyxO2ChRGxzfLnF97KCwOloMa6tduewbmzPpECK0NJO7tqRfj3XOAfs9zN486oFsIxFPAXmwHVu0kAX4JZY59x+Zqk3BLBoOCGely+3+J79oUCQR7vQPZRkiaAzAgsyaVsrjPuRhq90W6Uuqbb2pdbRusMooTOnIYA9o1uMJsf6jVA2KXoJkEI5gC8Fqwi1FXj6KHFJpR0N2JKAkZ57KdiYs6VJaotKxnvUfAhgIYYnCEJcBP9ICcEQl61EGEvmqK2M0Cknh84tSQNG98f9kqRd0xIaaVcf0Jck3aeM/czuMLQZBliPmEJU8iMR1s6lRKhK6saUnKadlGvcYG88XmS/1MpqhZNr5bRVrlE8ll6lFtqjxez3hgGWietgigiZ5KVrlT0JaQV61Fiw5FrwhVYIpo0LlAZnYmOmX8urUMT4s5/97O1/vec9t///D/9w16QeN+WcJHvH9F1q0T13uFTJ5IxxtjpDAQsBRehsXqNR9yIeLp4e/xbjwAPRLqKlpX7WYzwacDJXCzyOKH7Ht3zL457sa3/5l49d6/dzlLGub/t5bDRSsAqMMY+IL0SGsMujoYBF6IT5Xr7LjCs63QOwepiWjiMsSY6V/a3f/M1HsHKQ4nu+67seh6kBmFImWFOJCdS6sfqQBbKFlb5CGgpYCBjbk00xdhYGaMBuLRgASVxHUXql7mMuHTXopC/W75I+9jd/cwfY33jXu+TR3S9QpPiqvYVU3ccOVIH5y/gkH6HEVJfTFIcD1gZshMDkucGJvamlAUt5y2S/JjdSMD0rayP6H3jllds3fsM33N75K79yRwZNo7sH5gKAigzULotsTIH2jhTENCQpuhwOWC84IAyLHTgvmsXgyloYtwQsazKhleSj12keGHKsoKZRjB3iyuKpIBs1SdxpoUmtW13T997vDAcsE9QukBBZ8lqmbUk4LYxbAta6wlu44567mWMJBUSxU046UJQTmPJ47Cmxo3hq3nxK720CWI/IAtjRFqOUIF59rXC2Eg7tOgqtyHGRRys5PV/pO7VulnohhcaYc0Dt0V/fQ3lIX5JfxR2GDpsAlo6wDkJgndeE9DUDtyjrYMxW440pOQSfH+UeBVzPysYUla4foo/+wfAcF9vjq+5HZOhK7jA02QywntaG6CGN7DFsr3t7ADZkYUVQyQEu3+QZkfQyQPoKKQg9Vs/V1coHOahNmg9Ch5giqe1n5vc2A6xmmhBb8pkJxNi0QG7lwgMOrIfQKJaz1uVXJ3omj18eGOlT7wRY68k8ZC3eEmiiH2lH0+JK7jA02AywME4TWpdnJ7oGrBXIniCxbUGXXNBCz97AtX3Tvpe05bNWGAsovNZ7ul47sXueArmaOwx9NgMsnVk3qwcjY0zu9QzgyFi3BCzjBwBeoEXG4+W9gKujutKPBzoZnwWQVnStSx/pQ8ZBHlov9+L7jO1sClitiTXhW9Y1WxFVxrs1YGV+9BtSeDI2m7cCF2Vhg4V8Hc4m+qFvC0rZc+VZixflBZtok/u1iXf5NQ/5Rz1+H4u58ZF7JX+bWTuO0vc2Bazn1kD4IxygYJx89gKsMBYLZ11VGVsoB1C1UWUvWGhpIP1qi6eVs74v8yjJdVvSV2y/12sbhUGAjmi1bC9JW7GcumyltSgHbzy19zYFbGwdWzuBrd4Tplph3ap/2w/Kr9Ti1gifXg4IDbSVhR5yX2ij76Fc7LrWziV1LRZc+iH3XHPbDmPHcnrv67Zyy7TVOhc7xtLrTQHL4ELWQZhdOoGt6otrONs4GU8pcBFQQJcbWfbaFzpo64cw89EWDMXSkkJeWQg43MeSanc8F5A59Wg31HfLPHPf3RywXvAAQoW2DHInMrqeCK0I6uj+StuvBW6Ou4w1s8IsVlboIi6qPiDBs9ZEP7ZvZMgmrKn9ooR9r9f1nqDdHLBe5BFCzr4BLm7VrIAVAa4FLjwAbFhdz4J4nhF9CQjgn+Vt67pPty/9kGurTR0P1Lr+iDLKYY+0OWBDTOihjUcSUJjO+I+QGKdYPxl7bi5r3Y+//vrjVLXrK+1o1xew6uvWQBMde0BkaUIK/T2JjC03h0Z6PYyy4jqHdnvIwuaAhdgeMWH2zEnGvAeTWuiCq+hFemU+qVzAy7owVlevGVtPNDFfa62lbzwd8XbkXk2Ox6AttUdjgCuxC68P5rx12gWwoV+h8Fyx0QTJ7VMYdjTACv1wT7F6nmsrc+uVa4sl/efmb47zpahyaBmntaipcaHwYjTbWh52AWxI4289eZiFEON6xfqGaSIksXop5s/yPNflkzmX5ADCJpQihxC8D243e8SsCbWVLukzVRfAscauXVPzXsjSegEwO/+e17sA1lsPQXTcoK2TPusa2mfTWwtnACw0RghZB/YGCcqNdgFgD9c1BcbQcwEp4+mR4Huor1pFUDOuXQCrAaCJsEekGGujx4CQWSZrj2APpSKMtZaKdaUcoyPHU7AfHQjS8xxRpq8t+7NzwArCq9TaVOhZmocCUT0CbLlj2QWwIW3luVO5E2mp5+0NAwDRnNpSIBA9k7iJWCUBnwadFcp1/eYRUU0H5GYUSDWvQ4YG+dgq7QJYJqcJLmW08x4JyxUKhOmDAIwzlzmAHTAKEPXh8j2tkND6DDnKU5TqVnITCkBtoTCY426ADS3ityK87SekPT3Bxo22gGTNhmXU1th7d917aiFLaYJFtcsWy8/ca7w9FGvuboGOeehx9/a8QuPfDbCh9cBeQZ0SwGpGrXI7AEtoWBvnQMHi7YinQ59YS1G+IYDY+ygKb7xbeYe7AdZbN0KIPQALM3tHSz2m9r6HG4/iq/mEPJzeY4y1B2Bk7MgDwRs+IWVeA1YAaXkrQLVgzL3e0y3eDbChrZ2tIm7s/6FtLTNjAjbymYBPCy7ChgLj08sFDAkl7dMPfcIDwAFwSoAtcxAQkodiA9AyBkBcTEtvaJOb7FFJ2mIuPeSLcduxcb2FW7wbYBEMb9I9CBpjKtZ0j3WmCDPz4yNAjI11lmfQjPFay4elARgxZcLa0OMz92gvlOjTvpfjdjIWTwnTF232SKHlU874WvvfDbAIgGVIiomtk+X9kCvujaX0nrh4aGAEmTn2EpIec29tgzlpmsQAp/sKWdlUxN2zsjHlAL1tBB6e9I7gxpRQ7740HSlfDrDanUHg9Ee7o1hBrnmuhZQyrhX3NTAtYc94bZUsNMhJmuaWlrH3PUuGZ+YlgKzbBqihut77pfc8uaD/0W7xboCFQJrAUt7CrShlDhpVW5dcQS3tZ/b6tYANLX/gecoDsWtoDxDwR5QryiFmhXvRGIUuMqvzlNfQ2v90gGXyMyYtrFcFLHzRwplLB2v9dBvQNZasW5zbZ6zNHs+0POj5UB6pMHYFrNWeMvGRE65llhW62naO/p7wiLwEPPo9XU65rZ5bnEtDLK/sBujjnlJml4DjoCUHJ6Tv2DoWb2xU2hWwMFwzT8oprTuKGKl2ZXzkV006gFQCWP2epiOuZSx5wEi50bSHa2wDULpfr4w7y3v0mZNCcyqhS04/us6UgB0dadMEKClrJs/oBZTMpbauVrIlgqnf03Rk7ZlKFhgphY7Vpr/QByUhH9rik6ME7Dhrg2m2nZLrXQFr1yfCyJTWLZlgz7pacFJC07PfmdrSPCsBLDwV/uqcPdNUssCYRT5iwbRR8rErYENMnIUhVpC0lRi5TrH9znStedYDsIA3lXSEnvqzyAdWWSsfXR4lH1MCFo06Y8J9E6bMIjRb00kDNsc6yviwOEI7m6fcUftuiaKQ/kflocDpKPnYFbAhl2ImhmhGa2H19gN13bOWNQ0AXm6yoNOgzXEfdf0SRZE7vtp6WonrMZ4SsCEmHgGws46xVvBy36sFrBftFQHPEW5ryXLHO7qepUfJnGrGtquFDQF2Jg2qiar3BEefaNH9zlS2XlHJ2ESYbZ6zBEJB6vdS/X7xi1+8/cWH//z2P3/xl24/9qNvf/jCx3d++3fcfuD7vv/23972Iw8no37nt3/79td/9Ve3//j3f081F3xu6SFjzFFCwUYjD6YELJOeMVkFM+MYR4+phQYizDbP8Vas68k4Quml3/Mj0rZfe/2On/7p2x/+/h/c/uWf/znU9JP7lh7S5ikBG3OTnlBmght2vFfci7UCWsIWayVFuHO8Fet6xgD7pS996fa5z33u9qlPfer2iU984vZPb/zT7f/9/d8/fGvn/37sY7ePfuS12198+MO3P/s/f/rwT3d/8kd/dPvf7//A7f2vvHJ75eWXb6/84cu397/88u0Dr7ySnJ6lh8zplFFiqCETtHmSUjtV0OOMCc1OwxverRXQkg5DgIWmqWQBiys6Q7L0EPkYJRu7usQQXCZo81ETbmUyX9uSsY5ye1rHOPJ9K6AlfcUAm+L3rHuxlh4iG6mtqhK66boLsJoaGWUtdDnBkowmD1XFfgkiBTQ9OXtiSYSbPHUc1QJjFmVpLb/MSc+7Z3l3wGoAyGTJSwShJ0FSbdUezUu1e6TntXwKCTftpQBoAYvczJBsMIy5jBzbAmwh17XQzbr9VDil4uojAIvgx9KsgCVgpumRo3xi80w9W4BNUcg8t/tu5vElLrWAlnhCdh2q20lZJQvYGZSlHZPMp4QmpQIzLWBHhcVLCWTrWyaNCi7Yfme6FsEkL4nWWtrpdlJbO967e9NEL49kLpzIGpmmBWxqTTOSKLG27Tc0RmrT2Dj2fCbCSV7CJw90uq3YnLx3Y/VHP7PBN5nH6DPmC7AVnBXmlApsRVdTvqLP9fYEbOyXHjzAlhxckX8JDOWxvj0m8DMzWg6kPFqBL8B63Ejc03uxozVqYii7PNaR/RLAMlgRbC+PCbsHWNax8vtMNveCQV6f+h4/KcO/FfIfPDEAh9bi/MDB6LQAW0FhLbCpYElF89O/oudfuhetAWLLHmABDgAKWTTbRu01Shjly5o8Zrlt0FH3V7Ker2Xy7oD1Fu4QoVQQaglQ854+ADDj7yjXzKnkHb33WKqwtIDbslhrASl/4Wnr9LjGEgo4PSURogW/sBjqfwvryrh2ByxMChEBrVpC0BChe9+3Y465T737nqE9Pf9SwOrfxQrxfcR9AJo6TRWiLRYX9zs2rq3kdGrACoFmA67+Xixj3IpZIYHa+n4LYLU7LfwdmeMBlfIHBUxwCouaAipjhx5bpd0BG1rAe0ycBbgIgB7frHvGo4RIAza1f2rHoN1pTcNYmag0FpJ+WSdC/xAIdUBQtwlwkR+CSgBRf3C9ecZHv5NTZlxbpt0Ba4U/h0gQfe8DC3qcWzNtSwHx+rKBF69O6J4Gu6ahLQM8FGEsAOT1USNPtu/c6z34vjtgIbre18slFvXQjHsBV4+5dB3nCdqR7llQ5I4dVzMVSIKWIeuZ20+uUiiRNV0XZVK7Hs6dQ6jeFIDVUVdNmNwyQrB14MeuxUIEPuP9HMBiGflfG1xPXM3cfVHA1iMhU/BIK9ZcefLqAVLa3AuoQpMpAAvYWqOHrFEQjq2Aa9dipa6bMOCouRZq+VMpgJkTpNHv2vIIQCATKBlceRQCH/gHoL0Pz6iDS857W8lUjixMAVgZKESyDCy93gq4dqwjBE3oMmNeypec+ljDmcAxI92nAiwEgmGAodWVGQ1cG3hhzFdKrfzxAAxNV4pTYDrA6uFitazr6TE6dg/g4rL1Dk7ZdRyu1ZUS843RveQZPL7akqJWVqYGrEwKq8t6IrTHliscrLEIhPRIjEn3W7of2WMMe7bRA7B4JcsFLuPiIQCrp4Tb1ApcwEWAqtXqasBSvpLwhQCLq4zFlIANXpKlk1y30l/LxVXKhwOsMKYHcBEcopofevWDVeC1QoubfJXEoQEBHhF+5h5ya6Weza9Cq57zPCxghQi9gCvgZb3L17lytL9dX18p8MRcBYAorliyik3ei72znvkUODxgZVo9gSsCRcBKzp4CYg6EayuihZZ3APBVkp57CrDaGgttyVcqp8BpACtTxzULaXQtLD3K9vQOAL9KKgGsrqvpfhVa9Zzn6QArxNkSuFoIc1xpGeORcw3ClIWFF5pGUr5SkK4Xr08LWCEQAAq5ZCI4PXNc8yukEsDaLTChN0BeqYwCpweskAOhYauh9cyyCFso54D4FZK2mikLCz28rbirKLee8nAZwGqiETgCWJ4QhYCYe59toiukUsDaiDr0vIpy6ykPlwSsJiAuM5YXgep1Pla3f9ZyKWChsVV6OZb5rPSrndflAWsJB4ARRtZofAAygmU/Mdea98+eNGABYirZ+gLe1Hvr+T0FFmDv6VF0FbLIWJOzJwvAnPkKSHWu97Vz2rh6nQXYBgnw1mUII/fPnmoA63klV1BuPWVhAbaBmkQ5tbWQ8hUOUNQA1lNwV1BuDSL25NUF2Cckyb8R2l8EuGd39ZifKCjynKT3buXdKyi3HNrk1lmAzaVUoJ7n5iGMV3D1BHTkWNxUslZZ3r/K6bAUfXKeL8DmUClSx7MaCOIVXD0BXC5grVWW99cBioiAmUcLsIYgpZchIbyCqyeAywUstNXvSHkdoMiXugXYfFoFa4a2d3LcxGCjB3gggGsF7DpAkc/sBdh8WgVrhr5cgLt85qQBmztX/Y6Ur/Z7WC0ysQDbQr2vvBv63aKzWw4BHHkuYKGJfk/KHdhwiSYWYDuwOba906H5aZvQEfIF2G3YtADbic4hy3Hmdaye8wJsJ0FKNLMAmyBQ7mPv2yi4e2eOgGrAso6PJbwQfhfL/qzOcoljVHv6bAH2KU2q7rD5L8Kn8zN/P1YDlrJN0ASQ8kN2mia2zPeSV8qjwAJsHp2yaoW+EH/Wkzy4wQI+LCfA5N8V+LAPLc9S+Zm9kCzBKai0AFtArFRVBM8TzrOe5NGA9eadc4897LMqtJS81DxfgK2hWuCd0FnZsx5T7AHYsyqzgIg0316AbSbhfQOhU0/3tc5xFVJQuZb1av+p24PrC7A9qKjaCJ16OqNw1gCWdT6WmajxSuUUWIAtp1n0jdCpp9S2R7TRSR/GDoyIlcXjIIIMSM/+HeEt2LQAO4DKnlt81m/vCDBtztp0AbS/cC3A9qdp8J8GzijAoa2sAWRdTd5utwXYAWKAdbEWh+sz7jfqwxN6zgPIuppcgB0jA6G13RlPPYW2dsZQdrW6LOwgGfB+IRALdLZDAiFvYkWBxwjWAuwYut5CgoyV/dCrHzxNQCa0tcP9lfpTYAG2P00fW/SixXqdR+SY87dHBDABNMYdOti/APsoBl0LC7BdyXnfWOgQhQatLgNgDs6/94V3P3zL5Y1nz+4b3PGKsQhAcw72s7ZdqT8FFmD70/SxRayQBmRtGTcaS/a+F196+AAePr3Xw9IuX4mjL5RH6Purqbmc8WTXI2N3LCzADiZ+aJ8yJfAlz8Uyy1fbdI61Bnzk+r6UawEZGx8/HbPSGAoswI6h62OroV+iiAn8kZ+xbj/jAZFHhu5cWIAdzADc1iMDsGTsC6yDhWkdnBhPYHogYsoppy3c4xKA9axLgG3tvY6Xp2Vhx9P4rgfcRdxkDlaktn16AmpEW4wfoPYOft0RbF3cUWAB9o4c218g7ERU2QYBxKGzuSMAV9ImgSTGBkAZ69pn3V5W6HEBdh+6J3sFyICCDwCRD6DRn1IrjVuu39cgpA+sv/S7gkdJNm1eYQF2c5KvDhcF6imwAFtPu/XmosDmFFiA3Zzkq8NFgXoKLMDW0269uSiwOQUWYDcn+epwUaCeAv8JujGiRZrimCkAAAAASUVORK5CYII=;" vertex="1" parent="1">
          <mxGeometry x="376.05" y="300" width="82.41" height="110" as="geometry" />
        </mxCell>
      </root>
    </mxGraphModel>
  </diagram>
</mxfile>
